<svg xmlns="http://www.w3.org/2000/svg" xmlns:xlink="http://www.w3.org/1999/xlink" width="922.768" height="831.215" viewBox="0 0 922.768 831.215">
  <defs>
    <linearGradient id="linear-gradient" x1="0.5" y1="1" x2="0.5" gradientUnits="objectBoundingBox">
      <stop offset="0" stop-color="gray" stop-opacity="0.251"/>
      <stop offset="0.54" stop-color="gray" stop-opacity="0.122"/>
      <stop offset="1" stop-color="gray" stop-opacity="0.102"/>
    </linearGradient>
  </defs>
  <g id="Groupe_123" data-name="Groupe 123" transform="translate(0 -0.008)">
    <path id="Tracé_99" data-name="Tracé 99" d="M631.052,183.313c-58.388-2.3-114.006-23.654-167.107-47.021s-105.7-49.26-162.687-61.639C264.6,66.69,222.68,65.566,193.152,87.829c-28.427,21.466-37.611,58.419-42.546,92.744-3.717,25.821-5.9,52.991,4.285,77.166,7.064,16.785,19.613,30.891,28.283,47.021,30.2,55.935,8.859,124.913-23.862,179.529-15.337,25.627-33.154,50.088-44.991,77.34S97,620.151,107.357,647.975c10.276,27.6,34.751,48.289,61.257,62.855,53.85,29.593,117.281,38.057,179.178,42.851C484.767,764.3,622.464,759.7,759.8,755.1c50.828-1.707,101.872-3.434,151.87-12.338,27.769-4.947,56.43-12.788,76.594-31.739,25.585-24.052,31.927-64.787,14.786-94.942-28.77-50.589-108.259-63.152-128.4-117.451-11.06-29.879.307-63.162,16.383-90.884,34.5-59.451,92.318-111.614,95.367-179.57,2.093-46.684-25.712-93.419-68.691-115.509C872.669,89.434,810.185,92.378,776.968,130.7,742.74,170.188,682.6,185.337,631.052,183.313Z" transform="translate(-89.882 -42.843)" fill="#fb404b" opacity="0.1"/>
    <path id="Tracé_100" data-name="Tracé 100" d="M398.634,696.992,89.842,695.285,59.16,613.744l108.494-8.924-18.909-89.4L363.333,483.9,157.847,402.966,176,398.08l330.416,61.077-18.2,139.52-26.009,76.675Z" transform="translate(-5.788 8.838)" fill="#6c63ff"/>
    <path id="Tracé_101" data-name="Tracé 101" d="M187,698.847s18.945-3.435,30.313,11.735c0,0-8.336,7.442-26.271-2.862Z" transform="translate(-98.209 -28.876)" fill="#6c63ff"/>
    <path id="Tracé_102" data-name="Tracé 102" d="M183.956,698.51s-12.089,16.856-6.135,35.624c0,0,9.852-4.467,10.925-27.221Z" transform="translate(-97.15 -28.877)" fill="#6c63ff"/>
    <path id="Tracé_103" data-name="Tracé 103" d="M172.76,671.518s7.578-15.752,37.891,6.3c0,0-4.042,10.59-17.43,9.731S176.3,679.819,172.76,671.518Z" transform="translate(-96.816 -29.597)" fill="#6c63ff"/>
    <path id="Tracé_104" data-name="Tracé 104" d="M168.719,670.29s-15.725-2.044-17.249,38.741c0,0,9.969,2.341,17.051-10.559S172.7,678.335,168.719,670.29Z" transform="translate(-94.733 -29.503)" fill="#6c63ff"/>
    <path id="Tracé_105" data-name="Tracé 105" d="M160.44,638.788s8.841-27.763,40.922-8.014c0,0-7.326,25.473-37.638,17.459Z" transform="translate(-95.611 -30.538)" fill="#fb404b"/>
    <path id="Tracé_106" data-name="Tracé 106" d="M149.52,598.144s16.672-28.049,46.227-2.044c0,0-10.357,26.332-43.7,12.021Z" transform="translate(-94.542 -31.396)" fill="#fb404b"/>
    <path id="Tracé_107" data-name="Tracé 107" d="M145.6,559.469s19.451-25.77,48.717,0c0,0-18.44,22.611-48.717,6.583Z" transform="translate(-94.159 -32.218)" fill="#fb404b"/>
    <path id="Tracé_108" data-name="Tracé 108" d="M142.24,521.959s19.7-26.9,47.742-1.431c0,0-22.229,23.756-47.742,7.728Z" transform="translate(-93.83 -33.071)" fill="#fb404b"/>
    <path id="Tracé_109" data-name="Tracé 109" d="M144.2,488.79s20.75-34.632,46.985-11.162c0,0-22.229,29.766-46.985,17.745Z" transform="translate(-94.022 -33.961)" fill="#fb404b"/>
    <path id="Tracé_110" data-name="Tracé 110" d="M149.52,449.84s21.977-34.346,47.49-8.014c0,0-26.018,29.767-47.49,14.311Z" transform="translate(-94.542 -34.796)" fill="#fb404b"/>
    <path id="Tracé_111" data-name="Tracé 111" d="M157.517,415.148s26.018-32.281,48.717-19.422c0,0-27.11,34.285-49.853,27.988Z" transform="translate(-95.213 -35.666)" fill="#fb404b"/>
    <path id="Tracé_112" data-name="Tracé 112" d="M167.489,382.311s30.024-39.539,47.49-26.332c0,0-22.121,30.666-49.619,33.733Z" transform="translate(-96.092 -36.541)" fill="#fb404b"/>
    <path id="Tracé_113" data-name="Tracé 113" d="M181.887,343.985s26.28-32.281,45.478-24.267c0,0-22.482,33.487-49.005,34.346Z" transform="translate(-97.364 -37.314)" fill="#fb404b"/>
    <path id="Tracé_114" data-name="Tracé 114" d="M195.3,308.217s29.05-30.911,41.68-25.473c0,0-20.966,34.346-42.943,32.343Z" transform="translate(-98.898 -38.121)" fill="#fb404b"/>
    <path id="Tracé_115" data-name="Tracé 115" d="M208.32,275.353s25.008-36.932,38.658-34.07c0,0-15.165,32.925-38.658,37.821Z" transform="translate(-100.295 -39.031)" fill="#fb404b"/>
    <path id="Tracé_116" data-name="Tracé 116" d="M222.2,230.673s22.1-28.3,34.048-28.243c0,0-17.448,37.821-34.959,37.474Z" transform="translate(-101.564 -39.89)" fill="#fb404b"/>
    <path id="Tracé_117" data-name="Tracé 117" d="M230.285,201.681,251.64,142.72s1.065,53.3-24.07,69.9Z" transform="translate(-102.179 -41.216)" fill="#fb404b"/>
    <path id="Tracé_118" data-name="Tracé 118" d="M240.174,137.946s3.536-49.239,1.263-53.246c0,0,15.265,40.939-1.407,75Z" transform="translate(-103.398 -42.504)" fill="#fb404b"/>
    <path id="Tracé_119" data-name="Tracé 119" d="M155.564,637.888s-22.139-15.548-36.474,22.488c0,0,19.7,14.822,39.082-12.788Z" transform="translate(-91.565 -30.292)" fill="#fb404b"/>
    <path id="Tracé_120" data-name="Tracé 120" d="M144.357,596.362S117.2,582.328,104.03,622.04c0,0,20.975,16.355,42.8-15.64Z" transform="translate(-90.092 -31.198)" fill="#fb404b"/>
    <path id="Tracé_121" data-name="Tracé 121" d="M138.917,561.779s-19.451-25.77-48.717,0c0,0,18.44,22.611,48.717,6.583Z" transform="translate(-88.738 -32.166)" fill="#fb404b"/>
    <path id="Tracé_122" data-name="Tracé 122" d="M136.322,521.959s-19.7-26.9-47.742-1.431c0,0,22.229,23.756,47.742,7.728Z" transform="translate(-88.58 -33.071)" fill="#fb404b"/>
    <path id="Tracé_123" data-name="Tracé 123" d="M139.443,489.9s-13.821-38.793-43.863-22.11c0,0,16.239,34.4,42.636,28.55Z" transform="translate(-89.265 -34.091)" fill="#fb404b"/>
    <path id="Tracé_124" data-name="Tracé 124" d="M146.656,449.825s-13.74-39.467-44.206-21.17c0,0,18.657,36.176,42.853,27.262Z" transform="translate(-89.937 -34.975)" fill="#fb404b"/>
    <path id="Tracé_125" data-name="Tracé 125" d="M157.563,415.874S152.15,372.6,126.89,368.73c0,0,5.359,45.631,27.272,54.943Z" transform="translate(-92.328 -36.198)" fill="#fb404b"/>
    <path id="Tracé_126" data-name="Tracé 126" d="M165.936,382.932s-2.111-52.132-23-53.952c0,0,.7,39.569,20.641,61.332Z" transform="translate(-93.898 -37.08)" fill="#fb404b"/>
    <path id="Tracé_127" data-name="Tracé 127" d="M181.833,343.057S175.608,299.7,155.67,294.41c0,0,2.472,41.982,24.187,59.288Z" transform="translate(-95.144 -37.848)" fill="#fb404b"/>
    <path id="Tracé_128" data-name="Tracé 128" d="M196.529,309.125s-.207-45.161-12.387-51.795c0,0-7.551,40.888,8.859,57.56Z" transform="translate(-97.76 -38.671)" fill="#fb404b"/>
    <path id="Tracé_129" data-name="Tracé 129" d="M207.743,275.262s-1.705-46.5-14.317-53.052c0,0-4.312,36.8,12.432,56.1Z" transform="translate(-98.789 -39.451)" fill="#fb404b"/>
    <path id="Tracé_130" data-name="Tracé 130" d="M222.947,234.7s-.072-37.821-9.076-46.694c0,0-8.949,41.43,4.375,54.3Z" transform="translate(-100.551 -40.21)" fill="#fb404b"/>
    <path id="Tracé_131" data-name="Tracé 131" d="M228.1,199.947,219.337,137s-11.9,51.58,9.175,74.314Z" transform="translate(-101.046 -41.343)" fill="#fb404b"/>
    <path id="Tracé_132" data-name="Tracé 132" d="M228.911,138.391S206.429,96.072,206.889,91.37c0,0,2.391,44.353,30.673,66.443Z" transform="translate(-100.155 -42.356)" fill="#fb404b"/>
    <path id="Tracé_133" data-name="Tracé 133" d="M230.878,126.551S209.659,66.446,200.06,61.58c0,0,30.313,17.459,32.586,63.254Z" transform="translate(-99.487 -43.017)" fill="#fb404b"/>
    <path id="Tracé_134" data-name="Tracé 134" d="M221.012,242.061l-1.452-.5c17.908-66.167,22.374-108.353,12.585-118.933l1.038-1.247C243.566,132.542,239.353,174.269,221.012,242.061Z" transform="translate(-101.395 -41.689)" fill="#3a3768"/>
    <path id="Tracé_135" data-name="Tracé 135" d="M166.277,394.47l-2.147-.869c1.9-6.062,3.951-12.215,6.1-18.277,18.693-52.786,34.607-101.893,44.81-139.592l1.867-1.022c-10.221,37.77-25.856,88.758-44.567,141.616C170.2,382.275,168.163,388.4,166.277,394.47Z" transform="translate(-95.972 -39.173)" fill="#3a3768"/>
    <path id="Tracé_136" data-name="Tracé 136" d="M209.081,755.315c-.289-.358-29.311-37.392-49.547-100.615a416.279,416.279,0,0,1-19.55-115.284c-1.389-49.2,7.723-104.132,23.33-154.036l1.7,2.249c-35.04,112-21.12,207.977-2.652,265.772,20.019,62.651,48.717,99.276,49,99.644Z" transform="translate(-93.596 -35.828)" fill="#3a3768"/>
    <path id="Tracé_137" data-name="Tracé 137" d="M698.662,670.36s-20.452,28.284-4.213,71.043L531.158,821.646l-15.671,3.721-7.217-35.777,4.827-45.151V719.763Z" transform="translate(-129.642 -29.502)" fill="#d5d6db"/>
    <path id="Tracé_138" data-name="Tracé 138" d="M59.16,610.074,285.169,563.39l299.472,54.054L398.634,693.322Z" transform="translate(-5.788 12.508)" fill="#6c63ff"/>
    <path id="Tracé_139" data-name="Tracé 139" d="M59.16,610.074,285.169,563.39l299.472,54.054L398.634,693.322Z" transform="translate(-5.788 12.508)" fill="#fb404b"/>
    <path id="Tracé_140" data-name="Tracé 140" d="M146.817,652.47s-21.138,45.375,3.221,87.286l335.153,82.287s-20.8-36.145,1.074-86.315Z" transform="translate(-93.445 -29.899)" fill="#fb404b"/>
    <path id="Tracé_141" data-name="Tracé 141" d="M146.817,652.47s-21.138,45.375,3.221,87.286l335.153,82.287s-20.8-36.145,1.074-86.315Z" transform="translate(-95.445 -32.899)" opacity="0.1"/>
    <path id="Tracé_142" data-name="Tracé 142" d="M158.228,667.86s-12.08,33.2,0,54.688" transform="translate(-94.869 -29.557)" opacity="0.1"/>
    <path id="Tracé_143" data-name="Tracé 143" d="M486.463,820.325,673.571,729.86s10.465,2.556,3.7,11.244-187.2,87.909-187.2,87.909L151.31,738.038Z" transform="translate(-94.717 -28.181)" fill="#fb404b"/>
    <path id="Tracé_144" data-name="Tracé 144" d="M486.463,820.325,673.571,729.86s10.465,2.556,3.7,11.244a77.282,77.282,0,0,1-29.409,25.389c-53.728,25.948-157.79,62.521-157.79,62.521L151.31,738.038Z" transform="translate(-92.717 -32.181)" opacity="0.1"/>
    <path id="Tracé_145" data-name="Tracé 145" d="M504.94,742.86s-18.043,24.533,0,61.332" transform="translate(-128.532 -27.892)" opacity="0.1"/>
    <path id="Tracé_245" data-name="Tracé 245" d="M.341,6.565,86.8,3.157l-.036,1.01L.305,7.575Z" transform="translate(380.431 739.025) rotate(-18.45)" opacity="0.1"/>
    <path id="Tracé_246" data-name="Tracé 246" d="M.479,8.883l105.7-4.6-.04,1.007L.439,9.89Z" transform="translate(379.197 745.242) rotate(-20.82)" opacity="0.1"/>
    <path id="Tracé_247" data-name="Tracé 247" d="M.6,10.89,123.392,5.269l-.042,1L.556,11.895Z" transform="translate(378.666 753.224) rotate(-22.26)" opacity="0.1"/>
    <path id="Tracé_248" data-name="Tracé 248" d="M.766,13.461,142.592,6.537l-.045,1L.721,14.462Z" transform="translate(378.406 759.678) rotate(-24.31)" opacity="0.1"/>
    <path id="Tracé_249" data-name="Tracé 249" d="M.8,14.383,155.732,6.976l-.044,1L.751,15.386Z" transform="matrix(0.916, -0.401, 0.401, 0.916, 379.159, 762.932)" opacity="0.1"/>
    <path id="Tracé_250" data-name="Tracé 250" d="M.919,17.064,186.25,8.272l-.044,1L.876,18.068Z" transform="translate(380.137 767.483) rotate(-23.36)" opacity="0.1"/>
    <path id="Tracé_146" data-name="Tracé 146" d="M152.23,614.761,311.01,576.94,407.74,597.9,277.63,645.427Z" transform="translate(-14.894 12.808)" fill="#fff" opacity="0.3"/>
    <path id="Tracé_147" data-name="Tracé 147" d="M710.035,659.69s8.21,3.752,3.392,9.547S524,735.568,524,735.568Z" transform="translate(-131.181 -29.738)" fill="#6c63ff"/>
    <path id="Tracé_148" data-name="Tracé 148" d="M797.953,574.18s-20.443,28.274-4.2,71.043L630.458,725.466l-15.671,3.741L607.57,693.43l4.9-45.14V623.583Z" transform="translate(-139.357 -31.637)" fill="#d5d6db"/>
    <path id="Tracé_149" data-name="Tracé 149" d="M158.46,513.884l226-46.674,299.481,54.054L497.934,597.142Z" transform="translate(-15.504 10.372)" fill="#3a3768"/>
    <path id="Tracé_150" data-name="Tracé 150" d="M246.077,556.29s-21.147,45.375,3.212,87.286l335.153,82.287s-20.795-36.176,1.11-86.325Z" transform="translate(-103.156 -32.034)" fill="#3a3768"/>
    <path id="Tracé_151" data-name="Tracé 151" d="M246.077,556.29s-21.147,45.375,3.212,87.286l335.153,82.287s-20.795-36.176,1.11-86.325L479.565,613.543Z" transform="translate(-63.156 -71.034)" opacity="0.1"/>
    <path id="Tracé_152" data-name="Tracé 152" d="M257.518,571.68s-12.071,33.191,0,54.688" transform="translate(-104.584 -31.692)" opacity="0.1"/>
    <path id="Tracé_153" data-name="Tracé 153" d="M585.753,724.145,772.87,633.68s10.456,2.555,3.69,11.244-187.2,87.909-187.2,87.909L250.6,641.858Z" transform="translate(-104.432 -30.316)" fill="#3a3768"/>
    <path id="Tracé_154" data-name="Tracé 154" d="M585.753,724.145,772.87,633.68s10.456,2.555,3.69,11.244-187.2,87.909-187.2,87.909L250.6,641.858Z" transform="translate(-104.432 -30.316)" opacity="0.1"/>
    <path id="Tracé_155" data-name="Tracé 155" d="M604.23,646.68s-18.043,24.533,0,61.332" transform="translate(-138.246 -30.027)" opacity="0.1"/>
    <path id="Tracé_251" data-name="Tracé 251" d="M.341,6.565,86.8,3.157l-.036,1.01L.305,7.575Z" transform="translate(470.013 640.721) rotate(-18.45)" opacity="0.1"/>
    <path id="Tracé_252" data-name="Tracé 252" d="M.479,8.883l105.7-4.6-.04,1.007L.439,9.89Z" transform="translate(468.791 646.933) rotate(-20.82)" opacity="0.1"/>
    <path id="Tracé_253" data-name="Tracé 253" d="M.6,10.89,123.392,5.269l-.042,1L.556,11.895Z" transform="translate(468.246 654.901) rotate(-22.26)" opacity="0.1"/>
    <path id="Tracé_254" data-name="Tracé 254" d="M.766,13.461,142.592,6.537l-.045,1L.721,14.462Z" transform="translate(467.997 661.357) rotate(-24.31)" opacity="0.1"/>
    <path id="Tracé_255" data-name="Tracé 255" d="M.8,14.383,155.732,6.976l-.044,1L.751,15.386Z" transform="matrix(0.916, -0.401, 0.401, 0.916, 468.737, 664.598)" opacity="0.1"/>
    <path id="Tracé_256" data-name="Tracé 256" d="M.919,17.064,186.25,8.272l-.044,1L.876,18.068Z" transform="translate(469.721 669.148) rotate(-23.36)" opacity="0.1"/>
    <path id="Tracé_156" data-name="Tracé 156" d="M251.53,518.581,410.31,480.76l96.73,20.955L376.93,549.247Z" transform="translate(-24.609 10.673)" fill="#fff" opacity="0.45"/>
    <path id="Tracé_157" data-name="Tracé 157" d="M809.338,563.51s8.2,3.752,3.392,9.537-189.4,66.331-189.4,66.331Z" transform="translate(-140.899 -31.874)" fill="#3a3768"/>
    <path id="Tracé_158" data-name="Tracé 158" d="M807.356,464.15s-20.452,50.773-4.213,93.531L639.852,615.436l-15.634,3.751L617,583.41l4.827-45.15V513.553Z" transform="translate(-140.28 -34.08)" fill="#d5d6db"/>
    <path id="Tracé_159" data-name="Tracé 159" d="M167.89,403.864,393.9,357.18l299.481,54.054L507.364,487.112Z" transform="translate(-16.426 7.93)" fill="#fb404b"/>
    <path id="Tracé_160" data-name="Tracé 160" d="M255.545,446.26s-21.174,45.375,3.185,87.286l335.153,82.287s-20.8-36.176,1.1-86.315Z" transform="translate(-104.081 -34.477)" fill="#fb404b"/>
    <path id="Tracé_161" data-name="Tracé 161" d="M255.545,446.26s-21.174,45.375,3.185,87.286l335.153,82.287s-20.8-36.176,1.1-86.315Z" transform="translate(-101.081 -34.477)" opacity="0.1"/>
    <path id="Tracé_162" data-name="Tracé 162" d="M266.958,461.65s-12.08,33.2,0,54.688" transform="translate(-105.507 -34.135)" opacity="0.1"/>
    <path id="Tracé_163" data-name="Tracé 163" d="M595.193,613.937,782.3,545.961s10.465,2.555,3.7,11.244-187.2,65.421-187.2,65.421L260.04,531.65Z" transform="translate(-105.355 -32.581)" fill="#fb404b"/>
    <path id="Tracé_164" data-name="Tracé 164" d="M595.193,613.937,782.3,545.961s10.465,2.555,3.7,11.244-187.2,65.421-187.2,65.421L260.04,531.65Z" transform="translate(-106.355 -29.581)" opacity="0.1"/>
    <path id="Tracé_165" data-name="Tracé 165" d="M613.67,536.65s-18.043,24.533,0,61.332" transform="translate(-139.17 -32.47)" opacity="0.1"/>
    <path id="Tracé_257" data-name="Tracé 257" d="M.341,6.565,86.8,3.157l-.036,1.01L.305,7.575Z" transform="translate(478.532 528.246) rotate(-18.45)" opacity="0.1"/>
    <path id="Tracé_258" data-name="Tracé 258" d="M.479,8.883l105.7-4.6-.04,1.007L.439,9.89Z" transform="translate(477.304 534.464) rotate(-20.82)" opacity="0.1"/>
    <path id="Tracé_259" data-name="Tracé 259" d="M.6,10.89,123.392,5.269l-.042,1L.556,11.895Z" transform="translate(476.751 542.437) rotate(-22.26)" opacity="0.1"/>
    <path id="Tracé_260" data-name="Tracé 260" d="M.766,13.461,142.592,6.537l-.045,1L.721,14.462Z" transform="translate(476.515 548.884) rotate(-24.31)" opacity="0.1"/>
    <path id="Tracé_261" data-name="Tracé 261" d="M.8,14.383,155.732,6.976l-.044,1L.751,15.386Z" transform="matrix(0.916, -0.401, 0.401, 0.916, 477.259, 552.134)" opacity="0.1"/>
    <path id="Tracé_262" data-name="Tracé 262" d="M.919,17.064,186.25,8.272l-.044,1L.876,18.068Z" transform="translate(478.24 556.691) rotate(-23.36)" opacity="0.1"/>
    <path id="Tracé_166" data-name="Tracé 166" d="M260.96,408.551,419.74,370.73l96.73,20.955L386.36,439.217Z" transform="translate(-25.532 8.23)" fill="#fff" opacity="0.3"/>
    <path id="Tracé_167" data-name="Tracé 167" d="M818.767,453.48s8.21,3.751,3.392,9.547-189.4,66.331-189.4,66.331Z" transform="translate(-141.822 -34.316)" fill="#fb404b"/>
    <path id="Tracé_168" data-name="Tracé 168" d="M395.681,149.921S361.4,147.58,365.4,174.832c0,0-.8,4.815,3.049,7,0,0,.063-2.044,3.518-1.339a13.6,13.6,0,0,0,3.735.2,7.325,7.325,0,0,0,4.556-2.126h0s9.644-4.518,13.4-22.386c0,0,2.779-3.895,2.707-4.9l-5.81,2.8s1.976,4.733.424,8.668c0,0-.189-8.494-1.308-8.3-.226,0-3,1.646-3,1.646s3.4,8.249.83,14.239c0,0,.974-10.161-1.895-13.646l-4.078,2.7s3.979,8.515,1.281,15.466c0,0,.695-10.662-2.138-14.812l-3.7,3.271s3.744,8.392,1.461,14.158c0,0-.3-12.41-2.255-13.35,0,0-3.239,3.23-3.726,4.559,0,0,2.562,6.133.965,9.312,0,0-.965-8.27-1.8-8.311,0,0-3.221,5.479-3.555,9.2a21.771,21.771,0,0,1,2.77-9.752,9.333,9.333,0,0,0-4.926,2.893s.5-3.874,5.729-4.211c0,0,2.661-4.16,3.374-4.406,0,0-5.205-.5-8.354,1.084,0,0,2.779-3.649,9.3-2.044l3.609-3.373s-6.838-1.022-9.743.112c0,0,3.347-3.23,10.727-.879l3.978-2.688s-5.837-1.421-9.31-.91c0,0,3.663-2.239,10.474.184l2.833-1.441s-4.267-.951-5.521-1.1-1.317-.542-1.317-.542a13.283,13.283,0,0,1,8.029,1.022S395.8,150.35,395.681,149.921Z" transform="translate(-115.632 -41.057)" fill="#fb404b"/>
    <path id="Tracé_169" data-name="Tracé 169" d="M930.281,259.5S896,257.16,900,284.412c0,0-.8,4.815,3.049,7,0,0,.063-2.044,3.518-1.339a14.06,14.06,0,0,0,3.735.2,7.306,7.306,0,0,0,4.511-2.126h0s9.653-4.518,13.4-22.386c0,0,2.779-3.895,2.706-4.9l-5.792,2.8s1.976,4.733.424,8.668c0,0-.189-8.495-1.3-8.3-.226,0-3.013,1.646-3.013,1.646s3.4,8.249.839,14.239c0,0,.974-10.161-1.9-13.646l-4.078,2.7s3.978,8.515,1.281,15.466c0,0,.695-10.662-2.138-14.812l-3.69,3.271s3.735,8.392,1.452,14.158c0,0-.3-12.41-2.255-13.35,0,0-3.23,3.23-3.726,4.559,0,0,2.562,6.133.974,9.312,0,0-.974-8.27-1.8-8.311,0,0-3.221,5.479-3.554,9.2a21.7,21.7,0,0,1,2.779-9.752,9.373,9.373,0,0,0-4.935,2.893s.505-3.874,5.729-4.211c0,0,2.661-4.16,3.374-4.416,0,0-5.2-.491-8.354,1.094,0,0,2.779-3.649,9.3-2.044l3.609-3.373s-6.847-1.022-9.743.112c0,0,3.338-3.23,10.727-.879l3.969-2.688s-5.837-1.421-9.31-.91c0,0,3.663-2.239,10.474.184l2.842-1.441s-4.276-.951-5.53-1.1-1.317-.542-1.317-.542a13.188,13.188,0,0,1,8.029,1.022S930.389,259.93,930.281,259.5Z" transform="translate(-167.937 -38.624)" fill="#fb404b" opacity="0.1"/>
    <path id="Tracé_170" data-name="Tracé 170" d="M458.893,315.111s-14.94-35.092-33.957-17.8a6.525,6.525,0,0,0-3.906,6.43s1.579-.93,2.707,2.831a19.172,19.172,0,0,0,1.66,3.782,8.036,8.036,0,0,0,3.87,3.475h0s8.183,7.339,23.781,2.331c0,0,4.357.848,5.07.256l-4.98-4.365s-2.707,4.263-6.478,4.641c0,0,6.459-4.324,5.765-5.326-.144-.2-2.706-2.177-2.706-2.177s-4.7,7.39-10.564,7.769c0,0,8.3-3.987,9.581-8.535l-4.06-2.719s-4.628,8.1-11.3,8.811c0,0,8.553-4.508,10.366-9.333l-4.312-2.044s-4.646,7.789-10.2,8.351c0,0,9.419-6.348,9.184-8.75,0,0-4.069-1.615-5.332-1.462,0,0-3.446,5.51-6.694,5.51,0,0,5.891-5,5.53-5.806,0,0-5.792-.511-8.841,1.022a15.833,15.833,0,0,1,8.868-2.044,9.721,9.721,0,0,0-4.637-3.465s3.23-1.39,6.035,3.608c0,0,4.511.6,5.043,1.186,0,0-2.156-5.377-4.908-7.718,0,0,4.168.951,6.072,8.178l4.375,1.963s-2.517-7.278-4.836-9.578c0,0,4.114,1.728,5.909,10.222l4.006,2.617s-1.741-6.471-3.834-9.65c0,0,3.509,2.535,4.962,10.447l2.5,2.106s-1.353-4.692-1.8-6-.225-1.574-.225-1.574a18,18,0,0,1,3.14,8.433S458.568,315.417,458.893,315.111Z" transform="translate(-121.106 -37.89)" fill="#fb404b" opacity="0.1"/>
    <path id="Tracé_171" data-name="Tracé 171" d="M842.673,211.491s-14.931-35.092-33.957-17.8a6.537,6.537,0,0,0-3.906,6.43s1.588-.92,2.706,2.832a18.762,18.762,0,0,0,1.669,3.792,7.989,7.989,0,0,0,3.861,3.465h0s8.192,7.339,23.781,2.341c0,0,4.357.838,5.079.245l-4.953-4.375s-2.706,4.273-6.468,4.651c0,0,6.45-4.334,5.756-5.336-.144-.2-2.706-2.177-2.706-2.177s-4.691,7.391-10.564,7.769c0,0,8.309-3.987,9.59-8.525l-4.123-2.7s-4.619,8.086-11.3,8.811c0,0,8.552-4.518,10.375-9.343l-4.321-2.044s-4.646,7.8-10.194,8.351c0,0,9.41-6.348,9.175-8.74,0,0-4.06-1.625-5.323-1.462,0,0-3.446,5.5-6.7,5.5,0,0,5.9-5,5.539-5.806,0,0-5.792-.511-8.85,1.022a15.825,15.825,0,0,1,8.868-2.044,9.669,9.669,0,0,0-4.628-3.465s3.23-1.39,6.035,3.608c0,0,4.511.613,5.043,1.2,0,0-2.156-5.387-4.917-7.728,0,0,4.168.961,6.072,8.229l4.384,1.963s-2.517-7.288-4.836-9.588c0,0,4.114,1.728,5.9,10.222l4.015,2.617s-1.75-6.46-3.843-9.65c0,0,3.518,2.535,4.962,10.447l2.5,2.106s-1.344-4.692-1.8-6-.226-1.564-.226-1.564a18.052,18.052,0,0,1,3.13,8.433S842.393,211.818,842.673,211.491Z" transform="translate(-158.654 -40.19)" fill="#fb404b" opacity="0.1"/>
    <path id="Tracé_172" data-name="Tracé 172" d="M895.56,381.3s-14.931-35.1-33.984-17.807a6.538,6.538,0,0,0-3.906,6.43s1.588-.92,2.707,2.831a18.76,18.76,0,0,0,1.66,3.792,7.989,7.989,0,0,0,3.861,3.465h0s8.192,7.35,23.79,2.341c0,0,4.348.848,5.07.245l-4.98-4.365s-2.707,4.273-6.478,4.651c0,0,6.451-4.334,5.756-5.336-.144-.2-2.706-2.177-2.706-2.177s-4.691,7.391-10.564,7.779c0,0,8.309-4,9.59-8.535l-4.069-2.719s-4.619,8.1-11.3,8.811c0,0,8.552-4.518,10.375-9.343l-4.321-2.044s-4.646,7.789-10.195,8.351c0,0,9.419-6.348,9.184-8.75,0,0-4.069-1.625-5.332-1.462,0,0-3.446,5.5-6.7,5.5,0,0,5.9-5,5.539-5.806,0,0-5.792-.511-8.85,1.022a15.873,15.873,0,0,1,8.877-2.044,9.648,9.648,0,0,0-4.637-3.465s3.23-1.4,6.035,3.608c0,0,4.511.6,5.043,1.186,0,0-2.156-5.377-4.908-7.728,0,0,4.168.961,6.072,8.229l4.375,1.963s-2.517-7.288-4.836-9.578c0,0,4.114,1.717,5.9,10.222l4.015,2.607s-1.75-6.46-3.843-9.65c0,0,3.518,2.535,4.971,10.457l2.5,2.044s-1.353-4.692-1.8-6-.226-1.564-.226-1.564a17.942,17.942,0,0,1,3.13,8.433S895.28,381.607,895.56,381.3Z" transform="translate(-163.826 -36.421)" fill="#fb404b" opacity="0.1"/>
    <ellipse id="Ellipse_1" data-name="Ellipse 1" cx="20.741" cy="2.627" rx="20.741" ry="2.627" transform="translate(161.451 796.315)" fill="#6c63ff" opacity="0.1"/>
    <ellipse id="Ellipse_2" data-name="Ellipse 2" cx="20.741" cy="2.627" rx="20.741" ry="2.627" transform="translate(25.486 751.665)" fill="#6c63ff" opacity="0.1"/>
    <ellipse id="Ellipse_3" data-name="Ellipse 3" cx="20.741" cy="2.627" rx="20.741" ry="2.627" transform="translate(265.091 825.969)" fill="#6c63ff" opacity="0.1"/>
    <ellipse id="Ellipse_4" data-name="Ellipse 4" cx="20.741" cy="2.627" rx="20.741" ry="2.627" transform="translate(796.193 761.376)" fill="#6c63ff" opacity="0.1"/>
    <ellipse id="Ellipse_5" data-name="Ellipse 5" cx="20.741" cy="2.627" rx="20.741" ry="2.627" transform="translate(623.601 748.629)" fill="#6c63ff" opacity="0.1"/>
    <ellipse id="Ellipse_6" data-name="Ellipse 6" cx="24.53" cy="4.774" rx="24.53" ry="4.774" transform="translate(508.16 806.506)" fill="#6c63ff" opacity="0.1"/>
    <path id="Tracé_173" data-name="Tracé 173" d="M688.831,790.14s-34.156,19.994-16.51,43.546c0,0,1.66,5.111,6.459,4.753,0,0-.956-1.983,2.706-3.568a17.012,17.012,0,0,0,3.69-2.218,9.808,9.808,0,0,0,3.3-5h0s6.983-10.59,1.57-30.186c0,0,.7-5.54.09-6.44l-4.15,6.45s4.285,3.261,4.781,8.055c0,0-4.511-8.045-5.413-7.155-.2.184-2.057,3.527-2.057,3.527s7.434,5.714,7.984,13.135c0,0-4.186-10.4-8.706-11.878l-2.589,5.234s8.119,5.6,9.022,14.024c0,0-4.718-10.682-9.536-12.839l-1.9,5.53s7.831,5.643,8.553,12.655c0,0-6.55-11.725-8.9-11.357,0,0-1.479,5.193-1.281,6.8,0,0,5.53,4.191,5.629,8.311,0,0-5.106-7.309-5.891-6.828,0,0-.325,7.35,1.245,11.173a24.371,24.371,0,0,1-2.264-11.173,12.6,12.6,0,0,0-3.275,5.97s-1.471-4.038,3.374-7.758c0,0,.46-5.714,1.02-6.419,0,0-5.242,2.9-7.47,6.46,0,0,.821-5.305,7.93-7.943l1.8-5.6s-7.109,3.414-9.3,6.419c0,0,1.579-5.264,9.861-7.789l2.454-5.111s-6.315,2.412-9.4,5.111c0,0,2.391-4.528,10.158-6.614l1.994-3.22s-4.583,1.85-5.864,2.515-1.534.337-1.534.337a15.768,15.768,0,0,1,8.219-4.232S689.146,790.487,688.831,790.14Z" transform="translate(-145.197 -26.842)" fill="#fb404b"/>
    <path id="Tracé_174" data-name="Tracé 174" d="M770.356,429.086c-5.9-18.164-38.378-19.872-52.47-15.241-10.014,3.3-31.125,7.023-42.4,8.893l-.731-.787c1.461-.491,1.5-1.7,1.317-3.486a61.78,61.78,0,0,1,.09-7.074c6.911,2.433,13.063-3.322,13.063-3.322h0c8.12-4.089,5.936-21.589,7.488-26.373,1.164-3.578,2.418-24.655,2.977-35.164h.117l.063-3.527c.081-1.523.117-2.412.117-2.412s.794-25.7,2.346-30.9c1.443-4.784,2.616-28.887,2.8-32.71v-.5l-.117-2.228c.081-1.625.117-3.435.108-5.336,0-8.74-.8-19.749-.9-21.528v-.93c.063-3.731-.352-22.417-14.38-29.48-5.169-2.617-11.385-5.735-17.4-8.77-1.552-15.18-5.1-30.278-4.791-45.57,0-2.3.18-4.6.379-6.89,0,.664-.063,1.339-.072,2.044v4.457c.532-19.125,6.911-38.353,6.315-57.069-.054,1.83-.171,3.67-.325,5.51a67,67,0,0,0-1.732-18.8c-.541-2.157-1.272-4.385-2.833-5.827a10.921,10.921,0,0,0-4.944-2.218,89.028,89.028,0,0,0-12.982-2.739,23.939,23.939,0,0,0-2.923-6.43c-9.148-14.229-22.7-27.6-38.721-30.666-8.038-1.533-17.285-.256-22.753,6.256a18.419,18.419,0,0,0-1.606,1.84c-2.941,3.976-4.2,9.2-7.217,13.166-.2.266-.424.511-.641.767-5.9,5.98-15.093,7.227-21.652,12.594a27.29,27.29,0,0,0-3.239,3.2,61.272,61.272,0,0,0-7.073,9.742c-2.95,4.7-5.981,9.6-6.919,15.21-1.886,11.244,4.872,21.906,6.126,33.222,2.8,25.32-21.932,47.788-17.249,72.77a34.733,34.733,0,0,0,7.957,16.181c-9.644,9.895-17.854,19.493-17.854,19.493v.572h-1.525l.153,2.044h-.153L517,262.161l-.839,16.151v1.523h.054c.28,5.919,1.389,27.2,2.706,31.688,1.552,5.2,2.337,30.9,2.337,30.9s1.714,36.319,3.284,41.123-.659,22.253,7.488,26.373h0a16.13,16.13,0,0,0,8.183,3.843c-.415,3.823-.153,6.593,1.191,7.462a3.6,3.6,0,0,0,1.895.613,23.713,23.713,0,0,0-1.471,2.913,34.52,34.52,0,0,1-9.455-2.525c-8.751-4.089-37.792-13.289-46.227-6.818s-28.734,12.338-19.36,38.384,13.74,26.7,13.74,26.7a35.972,35.972,0,0,1,7.5,8.535c2.815,4.794,29.041,15.762,35.6,15.762a56.754,56.754,0,0,1,8.345.47s-7.118,7.074-6.171,11.183-2.165,37-2.165,37,7.217,8.239,10.3-2.566l.108.164c.577.889,3.7,4.906,9.572-.164a53.264,53.264,0,0,1,7.632-5.479l28.436-4.559a71.049,71.049,0,0,1,8.9-.072c4.511.419,8.94-2.607,11.728-4.947,5.891,2.535,12.513,5.305,15.661,6.317,6.387,2.044,35.744,10.968,42.609,8.178a9.659,9.659,0,0,0,3.7-2.985l6.55.235-3.067.7s5.972.112,14.092.235l-.343.225,10.185-.1c14.9.153,31.648.2,33.849-.358,3.446-.869,21.354-.256,26.632,0h1.471s19.676-4.446,11.557-27.068c-6.243-17.377-25.432-22.427-33.948-23.817,2.4-.542,4.466-.961,5.837-1.206,5.945-1.022,17.493-7.155,18.431-9.251s10.618-8.178,13.117-11.643S776.283,447.25,770.356,429.086ZM607.38,479.92l-.965.358-.65.245-1.245,1.39c-.992-.756-2.057-1.554-3.167-2.372C603.312,479.675,605.323,479.808,607.38,479.92Zm85.985,28.806Z" transform="translate(-125.347 -43.42)" fill="url(#linear-gradient)"/>
    <path id="Tracé_175" data-name="Tracé 175" d="M686.65,367.738s13.8,40.888,21.652,36.8,5.72-21.466,7.217-26.23,3.158-40.888,3.158-40.888.758-25.555,2.255-30.727c1.389-4.753,2.517-28.724,2.707-32.5v-.5l-1.489-29.644-8.426-2.382-19.541,8.178-2.706,17.51-1.055,6.839-.451,2.913Z" transform="translate(-147.095 -39.019)" fill="#be6f72"/>
    <path id="Tracé_176" data-name="Tracé 176" d="M691.69,358.3s13.172,12.215,17.141,13.289,6.405,10.6,6.405,10.6" transform="translate(-147.588 -36.43)" opacity="0.1"/>
    <path id="Tracé_177" data-name="Tracé 177" d="M562.989,369.488s-13.8,40.888-21.652,36.8-5.72-21.466-7.217-26.23-3.158-40.888-3.158-40.888-.758-25.555-2.255-30.727c-1.389-4.753-2.517-28.724-2.706-32.5v-.5l1.5-29.644,8.426-2.382,19.541,8.178,2.706,17.51,1.056,6.839.451,2.913Z" transform="translate(-131.377 -38.98)" fill="#be6f72"/>
    <rect id="Rectangle_21" data-name="Rectangle 21" width="30.809" height="54.412" transform="translate(490.685 111.696)" fill="#3e373a"/>
    <rect id="Rectangle_22" data-name="Rectangle 22" width="30.809" height="54.412" transform="translate(490.685 111.696)" opacity="0.1"/>
    <path id="Tracé_178" data-name="Tracé 178" d="M560.188,406.661s-10.528,13.115-6.622,15.5,29.176,47.021,29.176,47.021,83,11.581,98.651-5.8,15.337-48.422,15.337-48.422-12.576,3.067-13.947,1.4-8.9-9.7-8.9-9.7S567.4,399.342,560.188,406.661Z" transform="translate(-133.989 -35.428)" fill="#4b4b5b"/>
    <path id="Tracé_179" data-name="Tracé 179" d="M560.188,406.661s-10.528,13.115-6.622,15.5,29.176,47.021,29.176,47.021,83,11.581,98.651-5.8,15.337-48.422,15.337-48.422-12.576,3.067-13.947,1.4-8.9-9.7-8.9-9.7S567.4,399.342,560.188,406.661Z" transform="translate(-133.989 -35.428)" opacity="0.02"/>
    <path id="Tracé_180" data-name="Tracé 180" d="M707.154,246.463,680.089,271l-8.183.675-3,.245-50.458,4.191-52.325-4.334-7.786-.644-9.924-.818-20.75-22.488S542.347,230,555.212,217.964c5.07-4.753,9.861-8.6,13.352-10.11l.6-.235a14.985,14.985,0,0,0,5.72-4.518c10.158-11.868,19.55-41.154,19.55-41.154s44.81-26.23,39.4,8.178,20.145,25.9,20.145,25.9l8.426,4.355,3.329,1.728,8.489,4.406,19.153,9.956C708.4,224.312,707.154,246.463,707.154,246.463Z" transform="translate(-131.539 -41.001)" fill="#be6f72"/>
    <ellipse id="Ellipse_7" data-name="Ellipse 7" cx="40.3" cy="45.662" rx="40.3" ry="45.662" transform="translate(444.504 57.642)" opacity="0.1"/>
    <path id="Tracé_181" data-name="Tracé 181" d="M707.055,277.791H526v-.5l1.5-29.644s14.687-17.827,27.552-29.858l113.672-5.111,5.287-6.317,19.153,9.956c15.039,7.83,13.83,29.981,13.83,29.981S709.048,271.965,707.055,277.791Z" transform="translate(-131.377 -39.803)" opacity="0.1"/>
    <path id="Tracé_182" data-name="Tracé 182" d="M707.055,276.791H526v-.5l1.5-29.644s14.687-17.827,27.552-29.858l113.672-5.111,5.287-6.317,19.153,9.956c15.039,7.83,13.83,29.981,13.83,29.981S709.048,270.965,707.055,276.791Z" transform="translate(-131.377 -39.825)" fill="#e7c7ca"/>
    <path id="Tracé_183" data-name="Tracé 183" d="M592.567,194.114s28.562,41.236,66.607-.848,4.213,93.869,4.213,93.869l-82.1,11.04Z" transform="translate(-136.786 -40.273)" opacity="0.1"/>
    <path id="Tracé_184" data-name="Tracé 184" d="M592.567,196.114s28.562,41.236,66.607-.848,4.213,93.869,4.213,93.869l-82.1,11.04Z" transform="translate(-136.786 -40.228)" fill="#e7c7ca"/>
    <path id="Tracé_185" data-name="Tracé 185" d="M668.018,203.037l3.022,52.224,3.239,17.377,2.472,13.289s6.315,102.22,4.511,107.331.9,9.2,1.281,11.919-.379,9.547-.081,12.614,0,4.426-6.911,3.332-16.546-3-16.546-3-24.358,2.044-32.776-1.359-24.358-3.414-24.358-3.414-24.061.685-31.873-.337-12.035,10.907-17.141,7.493,6.008-36.452,9.617-46-4.809-33.733-4.809-33.733l10.826-68.048,2.409-15.425V208.812l.6-.235a14.984,14.984,0,0,0,5.72-4.518l2.707,48.8,84.8,3.414V201.35" transform="translate(-133.875 -39.914)" opacity="0.1"/>
    <path id="Tracé_186" data-name="Tracé 186" d="M668.018,201.037l3.022,52.224,3.239,17.377,2.472,13.289s6.315,102.22,4.511,107.331.9,9.2,1.281,11.919-.379,9.547-.081,12.614,0,4.426-6.911,3.332-16.546-3-16.546-3-24.358,2.044-32.776-1.36-24.358-3.414-24.358-3.414-24.061.685-31.873-.337-12.035,10.907-17.141,7.493,6.008-36.452,9.617-46-4.809-33.733-4.809-33.733l10.826-68.048,2.409-15.425V206.812l.6-.235a14.984,14.984,0,0,0,5.72-4.518l2.707,48.8,84.8,3.414V199.35" transform="translate(-133.875 -39.958)" fill="#e7c7ca"/>
    <path id="Tracé_187" data-name="Tracé 187" d="M676.4,95.426c-.514-2.136-1.227-4.355-2.706-5.786a10.406,10.406,0,0,0-4.763-2.208,84.345,84.345,0,0,0-12.522-2.719,24.124,24.124,0,0,0-2.707-6.368c-8.841-14.147-21.922-27.487-37.313-30.5-8.056-1.584-17.394-.164-22.554,7.033-2.833,3.956-4.051,9.2-6.911,13.084-5.512,7.544-15.463,8.474-22.41,14.311-3.708,3.067-6.4,7.513-9.022,11.827-2.842,4.671-5.765,9.537-6.667,15.118-1.8,11.152,4.7,21.783,5.9,33.038,2.707,25.177-21.111,47.512-16.609,72.351,2.625,14.485,14.435,24.686,26.65,29.858,4.3,1.83,9.22,3.649,11.232,8.331.9,2.044,1.056,4.406,1.9,6.471,2.851,6.89,12.224,7.155,17.258,2.136s6.622-13.135,7.217-20.71c2.418-33.078-9.274-65.758-7.912-98.918.406-10.028,2.9-21.4,10.826-25.943,10.673-6.133,23.51,4.089,35.257,2.136a89.141,89.141,0,0,1,3.374,48.36c-1.867,8.822-5.1,17.377-5.332,26.475-.352,13.851,6.243,26.506,11.945,38.752a22.414,22.414,0,0,1,2.409,7.472,20.128,20.128,0,0,1-1.29,7.82c-3.221,9.823-8.778,18.941-9.41,29.4a5.264,5.264,0,0,0,.677,3.5,3.688,3.688,0,0,0,2.328,1.186c9.743,1.891,18.17-7.891,22.924-17.715a91.455,91.455,0,0,0,9.04-35.286c.983-20.812-5.6-41.287-5.2-62.119C672.486,142.12,681.932,118.272,676.4,95.426Z" transform="translate(-132.507 -43.335)" opacity="0.1"/>
    <path id="Tracé_188" data-name="Tracé 188" d="M677.4,94.426c-.514-2.136-1.227-4.355-2.707-5.786a10.4,10.4,0,0,0-4.763-2.208,84.34,84.34,0,0,0-12.522-2.719,24.124,24.124,0,0,0-2.706-6.368c-8.841-14.147-21.923-27.487-37.313-30.5-8.056-1.584-17.394-.164-22.554,7.033-2.833,3.956-4.051,9.2-6.91,13.084-5.512,7.544-15.463,8.474-22.41,14.311-3.708,3.067-6.4,7.513-9.022,11.827-2.842,4.671-5.765,9.537-6.667,15.118-1.8,11.152,4.7,21.783,5.9,33.038,2.706,25.177-21.111,47.512-16.609,72.351,2.625,14.485,14.435,24.686,26.65,29.858,4.3,1.83,9.22,3.649,11.232,8.331.9,2.044,1.055,4.406,1.9,6.471,2.851,6.89,12.224,7.155,17.258,2.136s6.622-13.135,7.217-20.71c2.418-33.078-9.274-65.758-7.912-98.918.406-10.028,2.9-21.4,10.826-25.943,10.673-6.133,23.51,4.089,35.256,2.136a89.139,89.139,0,0,1,3.374,48.36c-1.867,8.822-5.1,17.377-5.332,26.475-.352,13.851,6.243,26.506,11.945,38.752a22.42,22.42,0,0,1,2.409,7.472,20.128,20.128,0,0,1-1.29,7.82c-3.221,9.823-8.778,18.941-9.41,29.4a5.263,5.263,0,0,0,.677,3.5,3.688,3.688,0,0,0,2.328,1.186c9.743,1.891,18.169-7.891,22.924-17.715a91.455,91.455,0,0,0,9.04-35.286c.983-20.812-5.6-41.287-5.2-62.119C673.486,141.12,682.932,117.272,677.4,94.426Z" transform="translate(-132.604 -43.357)" fill="#3e373a"/>
    <path id="Tracé_189" data-name="Tracé 189" d="M581.79,493.355l35.789,1.3-5.133-30.073-27.417,2.954Z" transform="translate(-56.922 10.314)" fill="#c3c7d9"/>
    <path id="Tracé_190" data-name="Tracé 190" d="M775.255,467.8c-2.409,3.4-11.728,9.537-12.63,11.581s-12.026,8.178-17.745,9.2-23.754,5.459-27.065,7.84c-2.373,1.717-21.417,7.155-33.93,10.171a86.119,86.119,0,0,1-10.276,2.1c-5.413.337-64.649-22.488-64.649-22.488l11.421-13.289.631-.245c3.23-1.237,18.151-6.951,26.433-9.67,9.328-3.067,20.154-15.67,20.154-15.67s15.932-6.133,18.043-6.818-5.413-23.848-5.413-23.848,34.58-5.438,48.112-10.048,44.81-2.9,50.521,15.159S777.7,464.392,775.255,467.8Z" transform="translate(-139.493 -35.405)" fill="#4b4b5b"/>
    <path id="Tracé_191" data-name="Tracé 191" d="M610.337,523.534s-6.911,8.178-13.83,7.5-31.116,2.044-31.116,2.044a47.5,47.5,0,0,0-12.188,8c-5.657,5.05-8.661,1.022-9.22.164l-.1-.164c-3.013,10.743-9.924,2.555-9.924,2.555s3-32.71,2.084-36.8,5.945-11.111,5.945-11.111l8.119-2.341,20.569-5.97L600.152,499Z" transform="translate(-132.155 -33.563)" fill="#e7c7ca"/>
    <path id="Tracé_192" data-name="Tracé 192" d="M550.073,493.26l-6.089,47.859-.1-.164c-3.013,10.743-9.924,2.556-9.924,2.556s3-32.71,2.084-36.8,5.945-11.111,5.945-11.111Z" transform="translate(-132.155 -33.433)" opacity="0.1"/>
    <path id="Tracé_193" data-name="Tracé 193" d="M599,360.08s15.932,6.133,29.771,0" transform="translate(-138.519 -36.39)" opacity="0.1"/>
    <path id="Tracé_194" data-name="Tracé 194" d="M659.29,371.42s6.613,3.741,11.728,0" transform="translate(-144.418 -36.138)" opacity="0.1"/>
    <path id="Tracé_195" data-name="Tracé 195" d="M659.29,380.137s11.124,1.687,13.235-1.717" transform="translate(-144.418 -35.983)" opacity="0.1"/>
    <path id="Tracé_196" data-name="Tracé 196" d="M655.29,398.905s20.894-3.067,26.082-7.155" transform="translate(-144.026 -35.687)" opacity="0.1"/>
    <path id="Tracé_197" data-name="Tracé 197" d="M584.62,391.75s11.728,7.493,20.452,7.155" transform="translate(-137.112 -35.687)" opacity="0.1"/>
    <path id="Tracé_198" data-name="Tracé 198" d="M683.874,505.107a86.164,86.164,0,0,1-10.276,2.1c-5.413.337-64.649-22.488-64.649-22.488l11.421-13.289.631-.245c1.8,1.441,3.284,2.678,4.339,3.619,4.971,4.436,9.77-1.359,11.575-1.359s17.439,14.648,17.439,14.648,14.435,3.751,16.843,7.155,10.826,2.729,12.323,5.111C683.974,501.09,684.028,502.9,683.874,505.107Z" transform="translate(-139.492 -33.924)" opacity="0.1"/>
    <path id="Tracé_199" data-name="Tracé 199" d="M559.2,418.013s-14.6.951-23.014-3.067-36.384-13.289-44.5-6.777-27.669,12.266-18.648,38.169,13.235,26.577,13.235,26.577a35.307,35.307,0,0,1,7.217,8.484c2.707,4.774,27.967,15.67,34.282,15.67s17.439,0,33.073,12.266,29.771,13.636,29.771,13.636,19.848,9.2,26.027,11.244,34.417,10.9,41.039,8.178,10.826-19.769,10.826-19.769,3-15.333,1.5-17.715-9.924-1.707-12.323-5.111-16.843-7.155-16.843-7.155-15.6-14.658-17.4-14.658-6.6,5.786-11.575,1.359a262.323,262.323,0,0,0-31.134-22.488C569.307,450.038,559.2,418.013,559.2,418.013Z" transform="translate(-125.967 -35.372)" fill="#4b4b5b"/>
    <path id="Tracé_200" data-name="Tracé 200" d="M536.27,427.429a15.821,15.821,0,0,1,14.786,4.426c7.217,6.818,31.5,20.505,31.5,20.505" transform="translate(-132.381 -34.904)" opacity="0.1"/>
    <path id="Tracé_201" data-name="Tracé 201" d="M732.148,427s-32.18,5.52-38.188,13.013" transform="translate(-147.81 -34.904)" opacity="0.1"/>
    <path id="Tracé_202" data-name="Tracé 202" d="M768.321,538.53H766.9c-5.088-.2-22.329-.818-25.648,0-3.906,1.022-55.636,0-55.636,0l10.113-2.382s-3.753-14.9-1.371-16.14c0,0-13.532-10.1-3.329-16.917a28.346,28.346,0,0,1,21.2-3.946l25.612-9.834,4.917-1.891s28.869,1.707,36.682,24.2S768.321,538.53,768.321,538.53Z" transform="translate(-146.994 -33.563)" fill="#e7c7ca"/>
    <path id="Tracé_203" data-name="Tracé 203" d="M773.985,538.529h-1.416c8.4-7.851,27.4-31.75-29.059-49.168l4.917-1.891s28.869,1.707,36.682,24.2S773.985,538.529,773.985,538.529Z" transform="translate(-152.658 -33.562)" opacity="0.1"/>
    <ellipse id="Ellipse_8" data-name="Ellipse 8" cx="1.579" cy="1.789" rx="1.579" ry="1.789" transform="translate(566.674 474.894)" fill="#4b4b5b"/>
    <ellipse id="Ellipse_9" data-name="Ellipse 9" cx="1.579" cy="1.789" rx="1.579" ry="1.789" transform="translate(557.5 477.848)" fill="#4b4b5b"/>
    <g id="Groupe_122" data-name="Groupe 122" transform="translate(406.192 64.286)" opacity="0.1">
      <path id="Tracé_204" data-name="Tracé 204" d="M653.169,143.633a88.737,88.737,0,0,0-5.178-32.854c-11.728,1.983-24.575-8.27-35.257-2.136-7.9,4.539-10.384,15.916-10.826,25.943-.108,2.647-.126,5.295-.081,7.943,0-.94,0-1.891.081-2.831.415-10.028,2.9-21.4,10.826-25.943,10.682-6.133,23.51,4.089,35.257,2.136a88.209,88.209,0,0,1,5.178,27.743Z" transform="translate(-544.985 -106.302)"/>
      <path id="Tracé_205" data-name="Tracé 205" d="M557.315,141.718a38.567,38.567,0,0,0-.117-6.685c-.956-9-5.3-17.592-6.081-26.363-1.01,10.58,4.935,20.74,6.081,31.474A7.21,7.21,0,0,1,557.315,141.718Z" transform="translate(-540.015 -106.258)"/>
      <path id="Tracé_206" data-name="Tracé 206" d="M603.659,231.393c-.559,7.585-2.138,15.691-7.217,20.72s-14.435,4.753-17.258-2.136c-.9-2.044-1.037-4.426-1.913-6.471-2-4.682-6.929-6.5-11.232-8.331-12.224-5.183-24.016-15.333-26.641-29.859a35.334,35.334,0,0,1-.478-3.987,36.427,36.427,0,0,0,.478,9.1c2.625,14.485,14.435,24.676,26.641,29.858,4.3,1.83,9.229,3.649,11.232,8.331.9,2.044,1.056,4.406,1.913,6.471,2.842,6.89,12.215,7.155,17.258,2.136s6.613-13.135,7.217-20.72q.412-5.988.28-12C603.938,226.824,603.821,229.113,603.659,231.393Z" transform="translate(-538.823 -104.2)"/>
      <path id="Tracé_207" data-name="Tracé 207" d="M687.93,158.626v4.426c.505-19.013,6.658-38.128,6.054-56.742C693.514,123.524,688.273,141.126,687.93,158.626Z" transform="translate(-553.411 -106.31)"/>
      <path id="Tracé_208" data-name="Tracé 208" d="M664.935,233.738a14.894,14.894,0,0,0,.207-3.69,22.227,22.227,0,0,0-2.409-7.472c-5.215-11.244-11.16-22.754-11.863-35.235,0,.532-.063,1.022-.072,1.595-.361,13.841,6.234,26.506,11.935,38.752A26.446,26.446,0,0,1,664.935,233.738Z" transform="translate(-549.777 -104.511)"/>
      <path id="Tracé_209" data-name="Tracé 209" d="M689.873,218.3a91.572,91.572,0,0,1-9.1,35.286c-4.763,9.823-13.181,19.606-22.933,17.715a3.649,3.649,0,0,1-2.328-1.2,2.641,2.641,0,0,1-.424-.8c-.108.8-.2,1.6-.253,2.423a5.217,5.217,0,0,0,.677,3.486,3.649,3.649,0,0,0,2.328,1.2c9.752,1.891,18.17-7.891,22.933-17.715a91.571,91.571,0,0,0,9.1-35.286c.108-2.392.117-4.774.054-7.155C689.909,216.945,689.909,217.62,689.873,218.3Z" transform="translate(-550.167 -103.869)"/>
    </g>
    <path id="Tracé_210" data-name="Tracé 210" d="M695.31,519.586s22.834,10.856,37.891-13.166" transform="translate(-147.942 -33.141)" fill="none" stroke="#000" stroke-miterlimit="10" stroke-width="1" opacity="0.1"/>
    <path id="Tracé_211" data-name="Tracé 211" d="M700.29,538s18.648-13.738,42.4-.45" transform="translate(-148.429 -32.579)" fill="none" stroke="#000" stroke-miterlimit="10" stroke-width="1" opacity="0.1"/>
    <path id="Tracé_212" data-name="Tracé 212" d="M561.93,535.038s7.831-20.015,28.743-4.753" transform="translate(-134.892 -32.739)" fill="none" stroke="#000" stroke-miterlimit="10" stroke-width="1" opacity="0.1"/>
    <path id="Tracé_213" data-name="Tracé 213" d="M533.79,245.684l15.968-16.355s61.915-4.6,64.477,19.248c0,0,21.95-28.274,68.113-21.977l19.532,17.623L647.9,271.066l-52.461,20.618-38.64-19.6Z" transform="translate(-132.139 -39.374)" opacity="0.1"/>
    <path id="Tracé_214" data-name="Tracé 214" d="M533.79,246.684l15.968-16.355s61.915-4.6,64.477,19.248c0,0,21.95-28.274,68.113-21.977l19.532,17.623L647.9,272.066l-52.461,20.618-38.64-19.6Z" transform="translate(-132.139 -39.351)" fill="#d5d6db"/>
    <path id="Tracé_215" data-name="Tracé 215" d="M437.38,204.83l7.064,95.75,74.879,4.263L516.075,209.5l-.063-1.6Z" transform="translate(-42.793 4.547)" opacity="0.1"/>
    <path id="Tracé_216" data-name="Tracé 216" d="M437.38,202.83l7.064,95.75,74.879,4.263L516.075,207.5l-.063-1.6Z" transform="translate(-42.793 4.503)" fill="#fb404b"/>
    <path id="Tracé_217" data-name="Tracé 217" d="M626.953,202.83,549.71,215.955v96.179l75.484-12.358Z" transform="translate(-53.783 4.503)" opacity="0.1"/>
    <path id="Tracé_218" data-name="Tracé 218" d="M626.953,200.83,549.71,213.955v96.179l75.484-12.358Z" transform="translate(-53.783 4.458)" fill="#fb404b"/>
    <path id="Tracé_219" data-name="Tracé 219" d="M610.615,223.79l-41.725,5.254.911,16.11,40.787-5.05Z" transform="translate(-55.659 4.968)" fill="#fff" opacity="0.3"/>
    <path id="Tracé_220" data-name="Tracé 220" d="M538.093,391.932l4.249,12.951s6.315,6.133,13.226,3.067,12.937-4.59,15.941-7.574,7.217-17.981,7.217-17.981,4.213-16.355,8.417-20.444,15.337-60.422,0-54.913-27.065,56.62-27.065,56.62-2.707,3.741-6.613,4.089-11.728-.685-13.235,3.067S533.583,384.439,538.093,391.932Z" transform="translate(-132.382 -37.576)" fill="#be6f72"/>
    <path id="Tracé_221" data-name="Tracé 221" d="M635.833,259.219a23.8,23.8,0,0,1-22.653-6.4l3.257,95.33s7.668,9.4,19.4,7.258Z" transform="translate(-139.906 -38.771)" opacity="0.1"/>
    <path id="Tracé_222" data-name="Tracé 222" d="M635.833,257.219a23.8,23.8,0,0,1-22.653-6.4l3.257,95.33s7.668,9.4,19.4,7.258Z" transform="translate(-139.906 -38.816)" fill="#fb404b"/>
    <path id="Tracé_223" data-name="Tracé 223" d="M635.833,257.219a23.8,23.8,0,0,1-22.653-6.4l1.7,49.709,1.559,45.621s7.668,9.4,19.4,7.258Z" transform="translate(-138.906 -38.816)" opacity="0.1"/>
    <path id="Tracé_224" data-name="Tracé 224" d="M640.29,246.776s31.422-10.886,39.614-9.353" transform="translate(-142.559 -39.116)" opacity="0.1"/>
    <path id="Tracé_225" data-name="Tracé 225" d="M597.475,242.056s-30.457-8.178-35.545-5.857" transform="translate(-134.892 -39.149)" opacity="0.1"/>
    <path id="Tracé_226" data-name="Tracé 226" d="M662.25,248.024s21.011-8.73,28.607-4.579" transform="translate(-144.707 -39.004)" opacity="0.1"/>
    <path id="Tracé_227" data-name="Tracé 227" d="M650.52,462.519a68.349,68.349,0,0,1,10.357-7.288c5.413-2.954,15.337-10.621,15.337-10.621" transform="translate(-143.56 -34.513)" opacity="0.1"/>
    <path id="Tracé_228" data-name="Tracé 228" d="M559.376,360.08S546.2,372.3,542.235,373.369s-6.405,10.6-6.405,10.6" transform="translate(-132.338 -36.39)" opacity="0.1"/>
    <path id="Tracé_229" data-name="Tracé 229" d="M709.153,390.151l-4.2,12.982s-6.315,6.133-13.235,3.067-12.928-4.59-15.941-7.575-7.217-17.98-7.217-17.98-4.2-16.355-8.417-20.444-15.337-60.422,0-54.913,27.065,56.62,27.065,56.62,2.706,3.741,6.613,4.089,11.728-.685,13.235,3.067S713.664,382.689,709.153,390.151Z" transform="translate(-143.732 -37.615)" fill="#be6f72"/>
    <path id="Tracé_230" data-name="Tracé 230" d="M707.15,364.94s8.616,6.276,8.58,13.779" transform="translate(-149.1 -36.282)" opacity="0.1"/>
    <path id="Tracé_264" data-name="Tracé 264" d="M40.3,0C62.556,0,80.6,20.443,80.6,45.662S62.556,91.323,40.3,91.323,0,70.88,0,45.662,18.043,0,40.3,0Z" transform="translate(443.648 59.403)" fill="#be6f72"/>
    <path id="Tracé_231" data-name="Tracé 231" d="M595.906,131.346c4.89-.869,9.175-4.089,13.848-5.939,10.456-4.16,22.022-1.308,32.6,2.443,4.06,1.441,8.183,3.067,12.441,3.067s8.778-1.973,10.952-6.133c2-3.823,1.615-8.791-.072-12.808s-4.511-7.247-7.362-10.294c-9.383-10.038-21.02-19.422-33.894-18.4-5.178.419-10.131,2.515-14.895,4.835a157.592,157.592,0,0,0-17.484,9.977c-4.339,2.852-12.378,6.665-14.877,11.878C571.484,121.716,587.065,132.92,595.906,131.346Z" transform="translate(-136.264 -42.537)" fill="#3e373a"/>
    <path id="Tracé_232" data-name="Tracé 232" d="M665.751,119.856c-2.174,4.16-6.694,6.133-10.952,6.133s-8.381-1.564-12.45-3.005c-10.582-3.751-22.139-6.614-32.6-2.443-4.664,1.85-8.958,5.111-13.848,5.929-7.127,1.268-18.6-5.765-19.848-14.709-1.4,10.334,11.909,19.187,19.848,17.776,4.89-.869,9.184-4.089,13.848-5.929,10.465-4.171,22.022-1.308,32.6,2.443,4.069,1.441,8.183,3.067,12.45,3.005s8.778-1.963,10.952-6.133a13.33,13.33,0,0,0,1.263-7.472,12.066,12.066,0,0,1-1.263,4.406Z" transform="translate(-136.263 -41.903)" opacity="0.1"/>
    <path id="Tracé_233" data-name="Tracé 233" d="M1036.4,661.63s5.35,7.922-2.472,19.892-14.263,22.069-11.665,29.531c0,0,11.8-22.223,21.4-22.539S1046.949,674.99,1036.4,661.63Z" transform="translate(-179.874 -29.695)" fill="#fb404b"/>
    <path id="Tracé_234" data-name="Tracé 234" d="M1036.437,661.63a10.383,10.383,0,0,1,1.092,2.484c9.365,12.471,14.362,24.114,5.35,24.4-8.39.276-18.449,17.275-20.858,21.558q.115.519.28,1.022s11.8-22.223,21.4-22.539S1046.983,674.99,1036.437,661.63Z" transform="translate(-179.907 -29.695)" opacity="0.1"/>
    <path id="Tracé_235" data-name="Tracé 235" d="M1048.866,671.549c0,2.791-.28,5.05-.613,5.05s-.622-2.259-.622-5.05.343-1.472.686-1.472S1048.866,668.758,1048.866,671.549Z" transform="translate(-182.412 -29.515)" fill="#ffd037"/>
    <path id="Tracé_236" data-name="Tracé 236" d="M1052.333,674.813c-2.156,1.329-4.042,2.136-4.2,1.8s1.453-1.7,3.609-3.067,1.308-.368,1.471,0S1054.5,673.474,1052.333,674.813Z" transform="translate(-182.46 -29.446)" fill="#ffd037"/>
    <path id="Tracé_237" data-name="Tracé 237" d="M1005.359,661.63s-5.35,7.922,2.472,19.892,14.263,22.069,11.656,29.531c0,0-11.791-22.223-21.4-22.539S994.84,674.99,1005.359,661.63Z" transform="translate(-177.103 -29.695)" fill="#fb404b"/>
    <path id="Tracé_238" data-name="Tracé 238" d="M1005.359,661.63a10.388,10.388,0,0,0-1.092,2.484c-9.365,12.471-14.363,24.114-5.35,24.4,8.381.276,18.449,17.275,20.858,21.558a8.7,8.7,0,0,1-.289,1.022s-11.791-22.223-21.4-22.539S994.84,674.99,1005.359,661.63Z" transform="translate(-177.103 -29.695)" opacity="0.1"/>
    <path id="Tracé_239" data-name="Tracé 239" d="M995.64,671.549c0,2.791.271,5.05.614,5.05s.622-2.259.622-5.05-.352-1.472-.686-1.472S995.64,668.758,995.64,671.549Z" transform="translate(-177.326 -29.515)" fill="#ffd037"/>
    <path id="Tracé_240" data-name="Tracé 240" d="M991.718,674.813c2.156,1.329,4.042,2.136,4.2,1.8s-1.453-1.7-3.609-3.067-1.308-.368-1.471,0S989.552,673.474,991.718,674.813Z" transform="translate(-176.814 -29.446)" fill="#ffd037"/>
    <ellipse id="Ellipse_11" data-name="Ellipse 11" cx="55.934" cy="9.721" rx="55.934" ry="9.721" transform="translate(786.459 722.553)" fill="#6c63ff" opacity="0.1"/>
    <path id="Tracé_241" data-name="Tracé 241" d="M1047.994,699.61l-.271,2.474-.379,3.5-.153,1.462-.379,3.5-.162,1.462-.37,3.486-4.285,39.764c-.379,3.547-5.494,6.317-11.674,6.317h-22.238c-6.18,0-11.286-2.77-11.674-6.317l-4.285-39.764L991.744,712l-.153-1.462-.379-3.5-.162-1.462-.37-3.5-.271-2.474c-.208-2.044,2.553-3.7,6.054-3.7h45.487C1045.441,695.91,1048.21,697.6,1047.994,699.61Z" transform="translate(-176.813 -28.934)" fill="#65617d"/>
    <path id="Tracé_242" data-name="Tracé 242" d="M959.174,658.53l-.37,3.5H902.509l-.379-3.5Z" transform="translate(-88.263 14.62)" fill="#9d9cb5"/>
    <path id="Tracé_243" data-name="Tracé 243" d="M958.7,663.38l-.37,3.5H903.1l-.379-3.5Z" transform="translate(-88.321 14.727)" fill="#9d9cb5"/>
    <path id="Tracé_244" data-name="Tracé 244" d="M958.225,668.23l-.379,3.5H903.69l-.37-3.5Z" transform="translate(-88.38 14.835)" fill="#9d9cb5"/>
    <g id="Groupe_124" data-name="Groupe 124" transform="translate(262.768 -19.94)">
      <path id="Tracé_102-2" data-name="Tracé 102" d="M218.482,121.189a13.644,13.644,0,0,0-17.752.777" transform="translate(0 0.272)" fill="none" stroke="#000" stroke-linecap="round" stroke-linejoin="round" stroke-width="0.2"/>
      <path id="Tracé_103-2" data-name="Tracé 103" d="M216.51,120.568a17.387,17.387,0,0,1,18.807.372" transform="translate(15.453 0)" fill="none" stroke="#000" stroke-linecap="round" stroke-linejoin="round" stroke-width="0.2"/>
      <path id="Tracé_104-2" data-name="Tracé 104" d="M227.488,135.1c-.4-.7-1.486-.7-2.347-.595a66.089,66.089,0,0,1-13.136.74,5.788,5.788,0,0,0-2.856.283,1.06,1.06,0,0,0-.5.428.889.889,0,0,0-.061.517,3.916,3.916,0,0,0,1.876,2.427,11.907,11.907,0,0,0,5.916,2.156,14.8,14.8,0,0,0,5.538-.538,10.14,10.14,0,0,0,4.649-2.93C227.06,137.016,227.927,135.88,227.488,135.1Z" transform="translate(7.681 15.426)" fill="#fffffe"/>
      <path id="Tracé_105-2" data-name="Tracé 105" d="M211.518,120.955a21.49,21.49,0,0,1-.764,14.4,11.644,11.644,0,0,0-1.007,2.911,4.814,4.814,0,0,0,3.7,5.127" transform="translate(8.796 2.78)" fill="none" stroke="#000" stroke-linecap="round" stroke-linejoin="round" stroke-width="0.2"/>
      <path id="Tracé_106-2" data-name="Tracé 106" d="M212.5,139.162a13.374,13.374,0,0,0,5.174-.205" transform="translate(11.529 19.644)" fill="none" stroke="#000" stroke-linecap="round" stroke-linejoin="round" stroke-width="0.2"/>
    </g>
  </g>
</svg>
