<svg xmlns="http://www.w3.org/2000/svg" xmlns:xlink="http://www.w3.org/1999/xlink" width="98" height="90" viewBox="0 0 98 90">
  <defs>
    <clipPath id="clip-logBlanc2">
      <rect width="98" height="90"/>
    </clipPath>
  </defs>
  <g id="logBlanc2" clip-path="url(#clip-logBlanc2)">
    <g id="Groupe_36" data-name="Groupe 36" transform="translate(-5 -3)">
      <g id="Groupe_32" data-name="Groupe 32" transform="translate(8.756 6.098)">
        <g id="Groupe_31" data-name="Groupe 31">
          <g id="Groupe_30" data-name="Groupe 30">
            <path id="Tracé_51" data-name="Tracé 51" d="M909.536,709.522l3.106,7.266c-19.036-1.663-36.239,4.47-42.877,7.268C873.089,721.5,889.591,710.369,909.536,709.522Z" transform="translate(-826.868 -672.154)" fill="#fff"/>
            <path id="Tracé_52" data-name="Tracé 52" d="M819.861,709.522l-3.105,7.266c19.034-1.663,36.239,4.47,42.879,7.268C856.309,721.5,839.806,710.369,819.861,709.522Z" transform="translate(-816.756 -672.154)" fill="#fff"/>
            <path id="Tracé_53" data-name="Tracé 53" d="M913.009,695.224c-1.317.249-2.586.523-3.827.814l2.389,4.068c-14.977,1.738-33.1,9.835-41.55,19.31,5.535-4.164,21.562-14.371,39.848-15.9.32-.027.648-.044.973-.067a56.885,56.885,0,0,1,7.012-.048Z" transform="translate(-826.917 -667.673)" fill="#fff"/>
            <path id="Tracé_54" data-name="Tracé 54" d="M905.325,671.973l-5.951-9.864a25.461,25.461,0,0,0-5.866,2.344l1.47,2.327c.8-.33,1.624-.64,2.475-.923l9.656,16.471c-13.918,3.326-31,12.619-37.343,26.869h0c.2-.308.448-.665.732-1.06.051-.07.109-.146.161-.219,3.761-5.147,14.157-16.578,35.284-22.282.294-.081.595-.155.892-.231,1.822-.47,3.714-.906,5.693-1.285.04-.006.078-.016.115-.021Z" transform="translate(-826.868 -657.295)" fill="#fff"/>
            <g id="Groupe_27" data-name="Groupe 27" transform="translate(42.88)">
              <path id="Tracé_55" data-name="Tracé 55" d="M901.512,676.588l-2.683-4.24-.45-.713-5.661-8.961-.445-.7-4.342-6.873c-1.9.672-11.376,4.76-15.447,11.7,2.384-3.173,6.99-6,13.809-8.26l10.411,17.19S868.947,687.78,869.761,707c.769-8.919,10.992-22.769,32.027-29.973Z" transform="translate(-869.743 -655.098)" fill="#fff"/>
            </g>
            <path id="Tracé_56" data-name="Tracé 56" d="M866.008,705.2V658.274l-8.626,3.831-.113.089V700.16A83.532,83.532,0,0,1,866.008,705.2Z" transform="translate(-824.484 -656.093)" fill="#fff"/>
            <g id="Groupe_28" data-name="Groupe 28" transform="translate(21.632 15.02)">
              <path id="Tracé_57" data-name="Tracé 57" d="M852.224,704.856V676.973l-8.737,2.646V701.4A82.7,82.7,0,0,1,852.224,704.856Z" transform="translate(-843.487 -676.973)" fill="#fff"/>
            </g>
            <g id="Groupe_29" data-name="Groupe 29" transform="translate(10.57 27.912)">
              <path id="Tracé_58" data-name="Tracé 58" d="M838.554,706.552v-10.8l-8.736,2.985v5.814A70.373,70.373,0,0,1,838.554,706.552Z" transform="translate(-829.818 -695.75)" fill="#fff"/>
            </g>
          </g>
        </g>
      </g>
      <g id="Groupe_35" data-name="Groupe 35" transform="translate(18.458 60)">
        <g id="Groupe_34" data-name="Groupe 34" transform="translate(0)">
          <text id="FOLLOW" transform="translate(-0.458 13)" fill="#fff" font-size="14" font-family="BodoniMT-Bold, Bodoni MT" font-weight="700" letter-spacing="0.193em"><tspan x="0" y="0">FOLLOW</tspan></text>
          <text id="STUDENTS" transform="translate(13.542 25)" fill="#fff" font-size="7" font-family="BodoniMT, Bodoni MT" letter-spacing="0.106em"><tspan x="0" y="0">STUDENTS</tspan></text>
        </g>
      </g>
    </g>
  </g>
</svg>
