<svg xmlns="http://www.w3.org/2000/svg" width="925.768" height="812.66" viewBox="0 0 925.768 812.66">
  <g id="Groupe_123" data-name="Groupe 123" transform="translate(0 -18.563)">
    <path id="Tracé_99" data-name="Tracé 99" d="M631.052,183.313c-58.388-2.3-114.006-23.654-167.107-47.021s-105.7-49.26-162.687-61.639C264.6,66.69,222.68,65.566,193.152,87.829c-28.427,21.466-37.611,58.419-42.546,92.744-3.717,25.821-5.9,52.991,4.285,77.166,7.064,16.785,19.613,30.891,28.283,47.021,30.2,55.935,8.859,124.913-23.862,179.529-15.337,25.627-33.154,50.088-44.991,77.34S97,620.151,107.357,647.975c10.276,27.6,34.751,48.289,61.257,62.855,53.85,29.593,117.281,38.057,179.178,42.851C484.767,764.3,622.464,759.7,759.8,755.1c50.828-1.707,101.872-3.434,151.87-12.338,27.769-4.947,56.43-12.788,76.594-31.739,25.585-24.052,31.927-64.787,14.786-94.942-28.77-50.589-108.259-63.152-128.4-117.451-11.06-29.879.307-63.162,16.383-90.884,34.5-59.451,92.318-111.614,95.367-179.57,2.093-46.684-25.712-93.419-68.691-115.509C872.669,89.434,810.185,92.378,776.968,130.7,742.74,170.188,682.6,185.337,631.052,183.313Z" transform="translate(-86.882 -41.843)" fill="#fb404b" opacity="0.1"/>
    <path id="Tracé_100" data-name="Tracé 100" d="M398.634,696.992,89.842,695.285,59.16,613.744l108.494-8.924-18.909-89.4L363.333,483.9,157.847,402.966,176,398.08l330.416,61.077-18.2,139.52-26.009,76.675Z" transform="translate(-5.788 8.838)" fill="#6c63ff"/>
    <path id="Tracé_101" data-name="Tracé 101" d="M187,698.847s18.945-3.435,30.313,11.735c0,0-8.336,7.442-26.271-2.862Z" transform="translate(-98.209 -28.876)" fill="#6c63ff"/>
    <path id="Tracé_102" data-name="Tracé 102" d="M183.956,698.51s-12.089,16.856-6.135,35.624c0,0,9.852-4.467,10.925-27.221Z" transform="translate(-97.15 -28.877)" fill="#6c63ff"/>
    <path id="Tracé_103" data-name="Tracé 103" d="M172.76,671.518s7.578-15.752,37.891,6.3c0,0-4.042,10.59-17.43,9.731S176.3,679.819,172.76,671.518Z" transform="translate(-96.816 -29.597)" fill="#6c63ff"/>
    <path id="Tracé_104" data-name="Tracé 104" d="M168.719,670.29s-15.725-2.044-17.249,38.741c0,0,9.969,2.341,17.051-10.559S172.7,678.335,168.719,670.29Z" transform="translate(-94.733 -29.503)" fill="#6c63ff"/>
    <path id="Tracé_105" data-name="Tracé 105" d="M160.44,638.788s8.841-27.763,40.922-8.014c0,0-7.326,25.473-37.638,17.459Z" transform="translate(-95.611 -30.538)" fill="#fb404b"/>
    <path id="Tracé_106" data-name="Tracé 106" d="M149.52,598.144s16.672-28.049,46.227-2.044c0,0-10.357,26.332-43.7,12.021Z" transform="translate(-94.542 -31.396)" fill="#fb404b"/>
    <path id="Tracé_107" data-name="Tracé 107" d="M145.6,559.469s19.451-25.77,48.717,0c0,0-18.44,22.611-48.717,6.583Z" transform="translate(-94.159 -32.218)" fill="#fb404b"/>
    <path id="Tracé_108" data-name="Tracé 108" d="M142.24,521.959s19.7-26.9,47.742-1.431c0,0-22.229,23.756-47.742,7.728Z" transform="translate(-93.83 -33.071)" fill="#fb404b"/>
    <path id="Tracé_109" data-name="Tracé 109" d="M144.2,488.79s20.75-34.632,46.985-11.162c0,0-22.229,29.766-46.985,17.745Z" transform="translate(-94.022 -33.961)" fill="#fb404b"/>
    <path id="Tracé_110" data-name="Tracé 110" d="M149.52,449.84s21.977-34.346,47.49-8.014c0,0-26.018,29.767-47.49,14.311Z" transform="translate(-94.542 -34.796)" fill="#fb404b"/>
    <path id="Tracé_111" data-name="Tracé 111" d="M157.517,415.148s26.018-32.281,48.717-19.422c0,0-27.11,34.285-49.853,27.988Z" transform="translate(-95.213 -35.666)" fill="#fb404b"/>
    <path id="Tracé_112" data-name="Tracé 112" d="M167.489,382.311s30.024-39.539,47.49-26.332c0,0-22.121,30.666-49.619,33.733Z" transform="translate(-96.092 -36.541)" fill="#fb404b"/>
    <path id="Tracé_113" data-name="Tracé 113" d="M181.887,343.985s26.28-32.281,45.478-24.267c0,0-22.482,33.487-49.005,34.346Z" transform="translate(-97.364 -37.314)" fill="#fb404b"/>
    <path id="Tracé_114" data-name="Tracé 114" d="M195.3,308.217s29.05-30.911,41.68-25.473c0,0-20.966,34.346-42.943,32.343Z" transform="translate(-98.898 -38.121)" fill="#fb404b"/>
    <path id="Tracé_115" data-name="Tracé 115" d="M208.32,275.353s25.008-36.932,38.658-34.07c0,0-15.165,32.925-38.658,37.821Z" transform="translate(-100.295 -39.031)" fill="#fb404b"/>
    <path id="Tracé_116" data-name="Tracé 116" d="M222.2,230.673s22.1-28.3,34.048-28.243c0,0-17.448,37.821-34.959,37.474Z" transform="translate(-101.564 -39.89)" fill="#fb404b"/>
    <path id="Tracé_117" data-name="Tracé 117" d="M230.285,201.681,251.64,142.72s1.065,53.3-24.07,69.9Z" transform="translate(-102.179 -41.216)" fill="#fb404b"/>
    <path id="Tracé_118" data-name="Tracé 118" d="M240.174,137.946s3.536-49.239,1.263-53.246c0,0,15.265,40.939-1.407,75Z" transform="translate(-103.398 -42.504)" fill="#fb404b"/>
    <path id="Tracé_119" data-name="Tracé 119" d="M155.564,637.888s-22.139-15.548-36.474,22.488c0,0,19.7,14.822,39.082-12.788Z" transform="translate(-91.565 -30.292)" fill="#fb404b"/>
    <path id="Tracé_120" data-name="Tracé 120" d="M144.357,596.362S117.2,582.328,104.03,622.04c0,0,20.975,16.355,42.8-15.64Z" transform="translate(-90.092 -31.198)" fill="#fb404b"/>
    <path id="Tracé_121" data-name="Tracé 121" d="M138.917,561.779s-19.451-25.77-48.717,0c0,0,18.44,22.611,48.717,6.583Z" transform="translate(-88.738 -32.166)" fill="#fb404b"/>
    <path id="Tracé_122" data-name="Tracé 122" d="M136.322,521.959s-19.7-26.9-47.742-1.431c0,0,22.229,23.756,47.742,7.728Z" transform="translate(-88.58 -33.071)" fill="#fb404b"/>
    <path id="Tracé_123" data-name="Tracé 123" d="M139.443,489.9s-13.821-38.793-43.863-22.11c0,0,16.239,34.4,42.636,28.55Z" transform="translate(-89.265 -34.091)" fill="#fb404b"/>
    <path id="Tracé_124" data-name="Tracé 124" d="M146.656,449.825s-13.74-39.467-44.206-21.17c0,0,18.657,36.176,42.853,27.262Z" transform="translate(-89.937 -34.975)" fill="#fb404b"/>
    <path id="Tracé_125" data-name="Tracé 125" d="M157.563,415.874S152.15,372.6,126.89,368.73c0,0,5.359,45.631,27.272,54.943Z" transform="translate(-92.328 -36.198)" fill="#fb404b"/>
    <path id="Tracé_127" data-name="Tracé 127" d="M181.833,343.057S175.608,299.7,155.67,294.41c0,0,2.472,41.982,24.187,59.288Z" transform="translate(-95.144 -37.848)" fill="#fb404b"/>
    <path id="Tracé_128" data-name="Tracé 128" d="M196.529,309.125s-.207-45.161-12.387-51.795c0,0-7.551,40.888,8.859,57.56Z" transform="translate(-97.76 -38.671)" fill="#fb404b"/>
    <path id="Tracé_129" data-name="Tracé 129" d="M207.743,275.262s-1.705-46.5-14.317-53.052c0,0-4.312,36.8,12.432,56.1Z" transform="translate(-98.789 -39.451)" fill="#fb404b"/>
    <path id="Tracé_130" data-name="Tracé 130" d="M222.947,234.7s-.072-37.821-9.076-46.694c0,0-8.949,41.43,4.375,54.3Z" transform="translate(-100.551 -40.21)" fill="#fb404b"/>
    <path id="Tracé_131" data-name="Tracé 131" d="M228.1,199.947,219.337,137s-11.9,51.58,9.175,74.314Z" transform="translate(-101.046 -41.343)" fill="#fb404b"/>
    <path id="Tracé_132" data-name="Tracé 132" d="M228.911,138.391S206.429,96.072,206.889,91.37c0,0,2.391,44.353,30.673,66.443Z" transform="translate(-100.155 -42.356)" fill="#fb404b"/>
    <path id="Tracé_133" data-name="Tracé 133" d="M230.878,126.551S209.659,66.446,200.06,61.58c0,0,30.313,17.459,32.586,63.254Z" transform="translate(-99.487 -43.017)" fill="#fb404b"/>
    <path id="Tracé_134" data-name="Tracé 134" d="M221.012,242.061l-1.452-.5c17.908-66.167,22.374-108.353,12.585-118.933l1.038-1.247C243.566,132.542,239.353,174.269,221.012,242.061Z" transform="translate(-101.395 -41.689)" fill="#3a3768"/>
    <path id="Tracé_135" data-name="Tracé 135" d="M166.277,394.47l-2.147-.869c1.9-6.062,3.951-12.215,6.1-18.277,18.693-52.786,34.607-101.893,44.81-139.592l1.867-1.022c-10.221,37.77-25.856,88.758-44.567,141.616C170.2,382.275,168.163,388.4,166.277,394.47Z" transform="translate(-95.972 -39.173)" fill="#3a3768"/>
    <path id="Tracé_136" data-name="Tracé 136" d="M209.081,755.315c-.289-.358-29.311-37.392-49.547-100.615a416.279,416.279,0,0,1-19.55-115.284c-1.389-49.2,7.723-104.132,23.33-154.036l1.7,2.249c-35.04,112-21.12,207.977-2.652,265.772,20.019,62.651,48.717,99.276,49,99.644Z" transform="translate(-93.596 -35.828)" fill="#3a3768"/>
    <path id="Tracé_137" data-name="Tracé 137" d="M698.662,670.36s-20.452,28.284-4.213,71.043L531.158,821.646l-15.671,3.721-7.217-35.777,4.827-45.151V719.763Z" transform="translate(-129.642 -29.502)" fill="#d5d6db"/>
    <path id="Tracé_138" data-name="Tracé 138" d="M59.16,610.074,285.169,563.39l299.472,54.054L398.634,693.322Z" transform="translate(-5.788 12.508)" fill="#6c63ff"/>
    <path id="Tracé_139" data-name="Tracé 139" d="M59.16,610.074,285.169,563.39l299.472,54.054L398.634,693.322Z" transform="translate(-5.788 12.508)" fill="#fb404b"/>
    <path id="Tracé_140" data-name="Tracé 140" d="M146.817,652.47s-21.138,45.375,3.221,87.286l335.153,82.287s-20.8-36.145,1.074-86.315Z" transform="translate(-93.445 -29.899)" fill="#fb404b"/>
    <path id="Tracé_141" data-name="Tracé 141" d="M146.817,652.47s-21.138,45.375,3.221,87.286l335.153,82.287s-20.8-36.145,1.074-86.315Z" transform="translate(-95.445 -32.899)" opacity="0.1"/>
    <path id="Tracé_142" data-name="Tracé 142" d="M158.228,667.86s-12.08,33.2,0,54.688" transform="translate(-94.869 -29.557)" opacity="0.1"/>
    <path id="Tracé_143" data-name="Tracé 143" d="M486.463,820.325,673.571,729.86s10.465,2.556,3.7,11.244-187.2,87.909-187.2,87.909L151.31,738.038Z" transform="translate(-94.717 -28.181)" fill="#fb404b"/>
    <path id="Tracé_144" data-name="Tracé 144" d="M486.463,820.325,673.571,729.86s10.465,2.556,3.7,11.244a77.282,77.282,0,0,1-29.409,25.389c-53.728,25.948-157.79,62.521-157.79,62.521L151.31,738.038Z" transform="translate(-92.717 -32.181)" opacity="0.1"/>
    <path id="Tracé_145" data-name="Tracé 145" d="M504.94,742.86s-18.043,24.533,0,61.332" transform="translate(-128.532 -27.892)" opacity="0.1"/>
    <path id="Tracé_245" data-name="Tracé 245" d="M.341,6.565,86.8,3.157l-.036,1.01L.305,7.575Z" transform="translate(380.431 739.025) rotate(-18.45)" opacity="0.1"/>
    <path id="Tracé_246" data-name="Tracé 246" d="M.479,8.883l105.7-4.6-.04,1.007L.439,9.89Z" transform="translate(379.197 745.242) rotate(-20.82)" opacity="0.1"/>
    <path id="Tracé_247" data-name="Tracé 247" d="M.6,10.89,123.392,5.269l-.042,1L.556,11.895Z" transform="translate(378.666 753.224) rotate(-22.26)" opacity="0.1"/>
    <path id="Tracé_248" data-name="Tracé 248" d="M.766,13.461,142.592,6.537l-.045,1L.721,14.462Z" transform="translate(378.406 759.678) rotate(-24.31)" opacity="0.1"/>
    <path id="Tracé_249" data-name="Tracé 249" d="M.8,14.383,155.732,6.976l-.044,1L.751,15.386Z" transform="matrix(0.916, -0.401, 0.401, 0.916, 379.159, 762.932)" opacity="0.1"/>
    <path id="Tracé_250" data-name="Tracé 250" d="M.919,17.064,186.25,8.272l-.044,1L.876,18.068Z" transform="translate(380.137 767.483) rotate(-23.36)" opacity="0.1"/>
    <path id="Tracé_146" data-name="Tracé 146" d="M152.23,614.761,311.01,576.94,407.74,597.9,277.63,645.427Z" transform="translate(-14.894 12.808)" fill="#fff" opacity="0.3"/>
    <path id="Tracé_147" data-name="Tracé 147" d="M710.035,659.69s8.21,3.752,3.392,9.547S524,735.568,524,735.568Z" transform="translate(-131.181 -29.738)" fill="#6c63ff"/>
    <path id="Tracé_148" data-name="Tracé 148" d="M797.953,574.18s-20.443,28.274-4.2,71.043L630.458,725.466l-15.671,3.741L607.57,693.43l4.9-45.14V623.583Z" transform="translate(-139.357 -31.637)" fill="#d5d6db"/>
    <path id="Tracé_149" data-name="Tracé 149" d="M158.46,513.884l226-46.674,299.481,54.054L497.934,597.142Z" transform="translate(-15.504 10.372)" fill="#3a3768"/>
    <path id="Tracé_150" data-name="Tracé 150" d="M246.077,556.29s-21.147,45.375,3.212,87.286l335.153,82.287s-20.795-36.176,1.11-86.325Z" transform="translate(-103.156 -32.034)" fill="#3a3768"/>
    <path id="Tracé_151" data-name="Tracé 151" d="M246.077,556.29s-21.147,45.375,3.212,87.286l335.153,82.287s-20.795-36.176,1.11-86.325L479.565,613.543Z" transform="translate(-63.156 -71.034)" opacity="0.1"/>
    <path id="Tracé_152" data-name="Tracé 152" d="M257.518,571.68s-12.071,33.191,0,54.688" transform="translate(-104.584 -31.692)" opacity="0.1"/>
    <path id="Tracé_153" data-name="Tracé 153" d="M585.753,724.145,772.87,633.68s10.456,2.555,3.69,11.244-187.2,87.909-187.2,87.909L250.6,641.858Z" transform="translate(-104.432 -30.316)" fill="#3a3768"/>
    <path id="Tracé_154" data-name="Tracé 154" d="M585.753,724.145,772.87,633.68s10.456,2.555,3.69,11.244-187.2,87.909-187.2,87.909L250.6,641.858Z" transform="translate(-104.432 -30.316)" opacity="0.1"/>
    <path id="Tracé_155" data-name="Tracé 155" d="M604.23,646.68s-18.043,24.533,0,61.332" transform="translate(-138.246 -30.027)" opacity="0.1"/>
    <path id="Tracé_251" data-name="Tracé 251" d="M.341,6.565,86.8,3.157l-.036,1.01L.305,7.575Z" transform="translate(470.013 640.721) rotate(-18.45)" opacity="0.1"/>
    <path id="Tracé_252" data-name="Tracé 252" d="M.479,8.883l105.7-4.6-.04,1.007L.439,9.89Z" transform="translate(468.791 646.933) rotate(-20.82)" opacity="0.1"/>
    <path id="Tracé_253" data-name="Tracé 253" d="M.6,10.89,123.392,5.269l-.042,1L.556,11.895Z" transform="translate(468.246 654.901) rotate(-22.26)" opacity="0.1"/>
    <path id="Tracé_254" data-name="Tracé 254" d="M.766,13.461,142.592,6.537l-.045,1L.721,14.462Z" transform="translate(467.997 661.357) rotate(-24.31)" opacity="0.1"/>
    <path id="Tracé_255" data-name="Tracé 255" d="M.8,14.383,155.732,6.976l-.044,1L.751,15.386Z" transform="matrix(0.916, -0.401, 0.401, 0.916, 468.737, 664.598)" opacity="0.1"/>
    <path id="Tracé_256" data-name="Tracé 256" d="M.919,17.064,186.25,8.272l-.044,1L.876,18.068Z" transform="translate(469.721 669.148) rotate(-23.36)" opacity="0.1"/>
    <path id="Tracé_156" data-name="Tracé 156" d="M251.53,518.581,410.31,480.76l96.73,20.955L376.93,549.247Z" transform="translate(-24.609 10.673)" fill="#fff" opacity="0.45"/>
    <path id="Tracé_157" data-name="Tracé 157" d="M809.338,563.51s8.2,3.752,3.392,9.537-189.4,66.331-189.4,66.331Z" transform="translate(-140.899 -31.874)" fill="#3a3768"/>
    <path id="Tracé_158" data-name="Tracé 158" d="M807.356,464.15s-20.452,50.773-4.213,93.531L639.852,615.436l-15.634,3.751L617,583.41l4.827-45.15V513.553Z" transform="translate(-140.28 -34.08)" fill="#d5d6db"/>
    <path id="Tracé_159" data-name="Tracé 159" d="M167.89,403.864,393.9,357.18l299.481,54.054L507.364,487.112Z" transform="translate(-16.426 7.93)" fill="#fb404b"/>
    <path id="Tracé_160" data-name="Tracé 160" d="M255.545,446.26s-21.174,45.375,3.185,87.286l335.153,82.287s-20.8-36.176,1.1-86.315Z" transform="translate(-104.081 -34.477)" fill="#fb404b"/>
    <path id="Tracé_161" data-name="Tracé 161" d="M255.545,446.26s-21.174,45.375,3.185,87.286l335.153,82.287s-20.8-36.176,1.1-86.315Z" transform="translate(-101.081 -34.477)" opacity="0.1"/>
    <path id="Tracé_162" data-name="Tracé 162" d="M266.958,461.65s-12.08,33.2,0,54.688" transform="translate(-105.507 -34.135)" opacity="0.1"/>
    <path id="Tracé_163" data-name="Tracé 163" d="M595.193,613.937,782.3,545.961s10.465,2.555,3.7,11.244-187.2,65.421-187.2,65.421L260.04,531.65Z" transform="translate(-105.355 -32.581)" fill="#fb404b"/>
    <path id="Tracé_164" data-name="Tracé 164" d="M595.193,613.937,782.3,545.961s10.465,2.555,3.7,11.244-187.2,65.421-187.2,65.421L260.04,531.65Z" transform="translate(-106.355 -29.581)" opacity="0.1"/>
    <path id="Tracé_165" data-name="Tracé 165" d="M613.67,536.65s-18.043,24.533,0,61.332" transform="translate(-139.17 -32.47)" opacity="0.1"/>
    <path id="Tracé_257" data-name="Tracé 257" d="M.341,6.565,86.8,3.157l-.036,1.01L.305,7.575Z" transform="translate(478.532 528.246) rotate(-18.45)" opacity="0.1"/>
    <path id="Tracé_258" data-name="Tracé 258" d="M.479,8.883l105.7-4.6-.04,1.007L.439,9.89Z" transform="translate(477.304 534.464) rotate(-20.82)" opacity="0.1"/>
    <path id="Tracé_259" data-name="Tracé 259" d="M.6,10.89,123.392,5.269l-.042,1L.556,11.895Z" transform="translate(476.751 542.437) rotate(-22.26)" opacity="0.1"/>
    <path id="Tracé_260" data-name="Tracé 260" d="M.766,13.461,142.592,6.537l-.045,1L.721,14.462Z" transform="translate(476.515 548.884) rotate(-24.31)" opacity="0.1"/>
    <path id="Tracé_261" data-name="Tracé 261" d="M.8,14.383,155.732,6.976l-.044,1L.751,15.386Z" transform="matrix(0.916, -0.401, 0.401, 0.916, 477.259, 552.134)" opacity="0.1"/>
    <path id="Tracé_262" data-name="Tracé 262" d="M.919,17.064,186.25,8.272l-.044,1L.876,18.068Z" transform="translate(478.24 556.691) rotate(-23.36)" opacity="0.1"/>
    <path id="Tracé_166" data-name="Tracé 166" d="M260.96,408.551,419.74,370.73l96.73,20.955L386.36,439.217Z" transform="translate(-25.532 8.23)" fill="#fff" opacity="0.3"/>
    <path id="Tracé_167" data-name="Tracé 167" d="M818.767,453.48s8.21,3.751,3.392,9.547-189.4,66.331-189.4,66.331Z" transform="translate(-141.822 -34.316)" fill="#fb404b"/>
    <path id="Tracé_168" data-name="Tracé 168" d="M395.681,149.921S361.4,147.58,365.4,174.832c0,0-.8,4.815,3.049,7,0,0,.063-2.044,3.518-1.339a13.6,13.6,0,0,0,3.735.2,7.325,7.325,0,0,0,4.556-2.126h0s9.644-4.518,13.4-22.386c0,0,2.779-3.895,2.707-4.9l-5.81,2.8s1.976,4.733.424,8.668c0,0-.189-8.494-1.308-8.3-.226,0-3,1.646-3,1.646s3.4,8.249.83,14.239c0,0,.974-10.161-1.895-13.646l-4.078,2.7s3.979,8.515,1.281,15.466c0,0,.695-10.662-2.138-14.812l-3.7,3.271s3.744,8.392,1.461,14.158c0,0-.3-12.41-2.255-13.35,0,0-3.239,3.23-3.726,4.559,0,0,2.562,6.133.965,9.312,0,0-.965-8.27-1.8-8.311,0,0-3.221,5.479-3.555,9.2a21.771,21.771,0,0,1,2.77-9.752,9.333,9.333,0,0,0-4.926,2.893s.5-3.874,5.729-4.211c0,0,2.661-4.16,3.374-4.406,0,0-5.205-.5-8.354,1.084,0,0,2.779-3.649,9.3-2.044l3.609-3.373s-6.838-1.022-9.743.112c0,0,3.347-3.23,10.727-.879l3.978-2.688s-5.837-1.421-9.31-.91c0,0,3.663-2.239,10.474.184l2.833-1.441s-4.267-.951-5.521-1.1-1.317-.542-1.317-.542a13.283,13.283,0,0,1,8.029,1.022S395.8,150.35,395.681,149.921Z" transform="translate(-115.632 -41.057)" fill="#fb404b"/>
    <path id="Tracé_169" data-name="Tracé 169" d="M930.281,259.5S896,257.16,900,284.412c0,0-.8,4.815,3.049,7,0,0,.063-2.044,3.518-1.339a14.06,14.06,0,0,0,3.735.2,7.306,7.306,0,0,0,4.511-2.126h0s9.653-4.518,13.4-22.386c0,0,2.779-3.895,2.706-4.9l-5.792,2.8s1.976,4.733.424,8.668c0,0-.189-8.495-1.3-8.3-.226,0-3.013,1.646-3.013,1.646s3.4,8.249.839,14.239c0,0,.974-10.161-1.9-13.646l-4.078,2.7s3.978,8.515,1.281,15.466c0,0,.695-10.662-2.138-14.812l-3.69,3.271s3.735,8.392,1.452,14.158c0,0-.3-12.41-2.255-13.35,0,0-3.23,3.23-3.726,4.559,0,0,2.562,6.133.974,9.312,0,0-.974-8.27-1.8-8.311,0,0-3.221,5.479-3.554,9.2a21.7,21.7,0,0,1,2.779-9.752,9.373,9.373,0,0,0-4.935,2.893s.505-3.874,5.729-4.211c0,0,2.661-4.16,3.374-4.416,0,0-5.2-.491-8.354,1.094,0,0,2.779-3.649,9.3-2.044l3.609-3.373s-6.847-1.022-9.743.112c0,0,3.338-3.23,10.727-.879l3.969-2.688s-5.837-1.421-9.31-.91c0,0,3.663-2.239,10.474.184l2.842-1.441s-4.276-.951-5.53-1.1-1.317-.542-1.317-.542a13.188,13.188,0,0,1,8.029,1.022S930.389,259.93,930.281,259.5Z" transform="translate(-167.937 -38.624)" fill="#fb404b" opacity="0.1"/>
    <path id="Tracé_170" data-name="Tracé 170" d="M458.893,315.111s-14.94-35.092-33.957-17.8a6.525,6.525,0,0,0-3.906,6.43s1.579-.93,2.707,2.831a19.172,19.172,0,0,0,1.66,3.782,8.036,8.036,0,0,0,3.87,3.475h0s8.183,7.339,23.781,2.331c0,0,4.357.848,5.07.256l-4.98-4.365s-2.707,4.263-6.478,4.641c0,0,6.459-4.324,5.765-5.326-.144-.2-2.706-2.177-2.706-2.177s-4.7,7.39-10.564,7.769c0,0,8.3-3.987,9.581-8.535l-4.06-2.719s-4.628,8.1-11.3,8.811c0,0,8.553-4.508,10.366-9.333l-4.312-2.044s-4.646,7.789-10.2,8.351c0,0,9.419-6.348,9.184-8.75,0,0-4.069-1.615-5.332-1.462,0,0-3.446,5.51-6.694,5.51,0,0,5.891-5,5.53-5.806,0,0-5.792-.511-8.841,1.022a15.833,15.833,0,0,1,8.868-2.044,9.721,9.721,0,0,0-4.637-3.465s3.23-1.39,6.035,3.608c0,0,4.511.6,5.043,1.186,0,0-2.156-5.377-4.908-7.718,0,0,4.168.951,6.072,8.178l4.375,1.963s-2.517-7.278-4.836-9.578c0,0,4.114,1.728,5.909,10.222l4.006,2.617s-1.741-6.471-3.834-9.65c0,0,3.509,2.535,4.962,10.447l2.5,2.106s-1.353-4.692-1.8-6-.225-1.574-.225-1.574a18,18,0,0,1,3.14,8.433S458.568,315.417,458.893,315.111Z" transform="translate(-121.106 -37.89)" fill="#fb404b" opacity="0.1"/>
    <path id="Tracé_171" data-name="Tracé 171" d="M842.673,211.491s-14.931-35.092-33.957-17.8a6.537,6.537,0,0,0-3.906,6.43s1.588-.92,2.706,2.832a18.762,18.762,0,0,0,1.669,3.792,7.989,7.989,0,0,0,3.861,3.465h0s8.192,7.339,23.781,2.341c0,0,4.357.838,5.079.245l-4.953-4.375s-2.706,4.273-6.468,4.651c0,0,6.45-4.334,5.756-5.336-.144-.2-2.706-2.177-2.706-2.177s-4.691,7.391-10.564,7.769c0,0,8.309-3.987,9.59-8.525l-4.123-2.7s-4.619,8.086-11.3,8.811c0,0,8.552-4.518,10.375-9.343l-4.321-2.044s-4.646,7.8-10.194,8.351c0,0,9.41-6.348,9.175-8.74,0,0-4.06-1.625-5.323-1.462,0,0-3.446,5.5-6.7,5.5,0,0,5.9-5,5.539-5.806,0,0-5.792-.511-8.85,1.022a15.825,15.825,0,0,1,8.868-2.044,9.669,9.669,0,0,0-4.628-3.465s3.23-1.39,6.035,3.608c0,0,4.511.613,5.043,1.2,0,0-2.156-5.387-4.917-7.728,0,0,4.168.961,6.072,8.229l4.384,1.963s-2.517-7.288-4.836-9.588c0,0,4.114,1.728,5.9,10.222l4.015,2.617s-1.75-6.46-3.843-9.65c0,0,3.518,2.535,4.962,10.447l2.5,2.106s-1.344-4.692-1.8-6-.226-1.564-.226-1.564a18.052,18.052,0,0,1,3.13,8.433S842.393,211.818,842.673,211.491Z" transform="translate(-158.654 -40.19)" fill="#fb404b" opacity="0.1"/>
    <path id="Tracé_172" data-name="Tracé 172" d="M895.56,381.3s-14.931-35.1-33.984-17.807a6.538,6.538,0,0,0-3.906,6.43s1.588-.92,2.707,2.831a18.76,18.76,0,0,0,1.66,3.792,7.989,7.989,0,0,0,3.861,3.465h0s8.192,7.35,23.79,2.341c0,0,4.348.848,5.07.245l-4.98-4.365s-2.707,4.273-6.478,4.651c0,0,6.451-4.334,5.756-5.336-.144-.2-2.706-2.177-2.706-2.177s-4.691,7.391-10.564,7.779c0,0,8.309-4,9.59-8.535l-4.069-2.719s-4.619,8.1-11.3,8.811c0,0,8.552-4.518,10.375-9.343l-4.321-2.044s-4.646,7.789-10.195,8.351c0,0,9.419-6.348,9.184-8.75,0,0-4.069-1.625-5.332-1.462,0,0-3.446,5.5-6.7,5.5,0,0,5.9-5,5.539-5.806,0,0-5.792-.511-8.85,1.022a15.873,15.873,0,0,1,8.877-2.044,9.648,9.648,0,0,0-4.637-3.465s3.23-1.4,6.035,3.608c0,0,4.511.6,5.043,1.186,0,0-2.156-5.377-4.908-7.728,0,0,4.168.961,6.072,8.229l4.375,1.963s-2.517-7.288-4.836-9.578c0,0,4.114,1.717,5.9,10.222l4.015,2.607s-1.75-6.46-3.843-9.65c0,0,3.518,2.535,4.971,10.457l2.5,2.044s-1.353-4.692-1.8-6-.226-1.564-.226-1.564a17.942,17.942,0,0,1,3.13,8.433S895.28,381.607,895.56,381.3Z" transform="translate(-163.826 -36.421)" fill="#fb404b" opacity="0.1"/>
    <ellipse id="Ellipse_1" data-name="Ellipse 1" cx="20.741" cy="2.627" rx="20.741" ry="2.627" transform="translate(161.451 796.315)" fill="#6c63ff" opacity="0.1"/>
    <ellipse id="Ellipse_2" data-name="Ellipse 2" cx="20.741" cy="2.627" rx="20.741" ry="2.627" transform="translate(25.486 751.665)" fill="#6c63ff" opacity="0.1"/>
    <ellipse id="Ellipse_3" data-name="Ellipse 3" cx="20.741" cy="2.627" rx="20.741" ry="2.627" transform="translate(265.091 825.969)" fill="#6c63ff" opacity="0.1"/>
    <ellipse id="Ellipse_4" data-name="Ellipse 4" cx="20.741" cy="2.627" rx="20.741" ry="2.627" transform="translate(796.193 761.376)" fill="#6c63ff" opacity="0.1"/>
    <ellipse id="Ellipse_5" data-name="Ellipse 5" cx="20.741" cy="2.627" rx="20.741" ry="2.627" transform="translate(623.601 748.629)" fill="#6c63ff" opacity="0.1"/>
    <ellipse id="Ellipse_6" data-name="Ellipse 6" cx="24.53" cy="4.774" rx="24.53" ry="4.774" transform="translate(508.16 806.506)" fill="#6c63ff" opacity="0.1"/>
    <path id="Tracé_173" data-name="Tracé 173" d="M688.831,790.14s-34.156,19.994-16.51,43.546c0,0,1.66,5.111,6.459,4.753,0,0-.956-1.983,2.706-3.568a17.012,17.012,0,0,0,3.69-2.218,9.808,9.808,0,0,0,3.3-5h0s6.983-10.59,1.57-30.186c0,0,.7-5.54.09-6.44l-4.15,6.45s4.285,3.261,4.781,8.055c0,0-4.511-8.045-5.413-7.155-.2.184-2.057,3.527-2.057,3.527s7.434,5.714,7.984,13.135c0,0-4.186-10.4-8.706-11.878l-2.589,5.234s8.119,5.6,9.022,14.024c0,0-4.718-10.682-9.536-12.839l-1.9,5.53s7.831,5.643,8.553,12.655c0,0-6.55-11.725-8.9-11.357,0,0-1.479,5.193-1.281,6.8,0,0,5.53,4.191,5.629,8.311,0,0-5.106-7.309-5.891-6.828,0,0-.325,7.35,1.245,11.173a24.371,24.371,0,0,1-2.264-11.173,12.6,12.6,0,0,0-3.275,5.97s-1.471-4.038,3.374-7.758c0,0,.46-5.714,1.02-6.419,0,0-5.242,2.9-7.47,6.46,0,0,.821-5.305,7.93-7.943l1.8-5.6s-7.109,3.414-9.3,6.419c0,0,1.579-5.264,9.861-7.789l2.454-5.111s-6.315,2.412-9.4,5.111c0,0,2.391-4.528,10.158-6.614l1.994-3.22s-4.583,1.85-5.864,2.515-1.534.337-1.534.337a15.768,15.768,0,0,1,8.219-4.232S689.146,790.487,688.831,790.14Z" transform="translate(-145.197 -26.842)" fill="#fb404b"/>
    <path id="Tracé_227" data-name="Tracé 227" d="M650.52,462.519a68.349,68.349,0,0,1,10.357-7.288c5.413-2.954,15.337-10.621,15.337-10.621" transform="translate(-143.56 -34.513)" opacity="0.1"/>
    <path id="Tracé_233" data-name="Tracé 233" d="M1036.4,661.63s5.35,7.922-2.472,19.892-14.263,22.069-11.665,29.531c0,0,11.8-22.223,21.4-22.539S1046.949,674.99,1036.4,661.63Z" transform="translate(-179.874 -29.695)" fill="#fb404b"/>
    <path id="Tracé_234" data-name="Tracé 234" d="M1036.437,661.63a10.383,10.383,0,0,1,1.092,2.484c9.365,12.471,14.362,24.114,5.35,24.4-8.39.276-18.449,17.275-20.858,21.558q.115.519.28,1.022s11.8-22.223,21.4-22.539S1046.983,674.99,1036.437,661.63Z" transform="translate(-179.907 -29.695)" opacity="0.1"/>
    <path id="Tracé_235" data-name="Tracé 235" d="M1048.866,671.549c0,2.791-.28,5.05-.613,5.05s-.622-2.259-.622-5.05.343-1.472.686-1.472S1048.866,668.758,1048.866,671.549Z" transform="translate(-182.412 -29.515)" fill="#ffd037"/>
    <path id="Tracé_236" data-name="Tracé 236" d="M1052.333,674.813c-2.156,1.329-4.042,2.136-4.2,1.8s1.453-1.7,3.609-3.067,1.308-.368,1.471,0S1054.5,673.474,1052.333,674.813Z" transform="translate(-182.46 -29.446)" fill="#ffd037"/>
    <path id="Tracé_237" data-name="Tracé 237" d="M1005.359,661.63s-5.35,7.922,2.472,19.892,14.263,22.069,11.656,29.531c0,0-11.791-22.223-21.4-22.539S994.84,674.99,1005.359,661.63Z" transform="translate(-177.103 -29.695)" fill="#fb404b"/>
    <path id="Tracé_238" data-name="Tracé 238" d="M1005.359,661.63a10.388,10.388,0,0,0-1.092,2.484c-9.365,12.471-14.363,24.114-5.35,24.4,8.381.276,18.449,17.275,20.858,21.558a8.7,8.7,0,0,1-.289,1.022s-11.791-22.223-21.4-22.539S994.84,674.99,1005.359,661.63Z" transform="translate(-177.103 -29.695)" opacity="0.1"/>
    <path id="Tracé_239" data-name="Tracé 239" d="M995.64,671.549c0,2.791.271,5.05.614,5.05s.622-2.259.622-5.05-.352-1.472-.686-1.472S995.64,668.758,995.64,671.549Z" transform="translate(-177.326 -29.515)" fill="#ffd037"/>
    <path id="Tracé_240" data-name="Tracé 240" d="M991.718,674.813c2.156,1.329,4.042,2.136,4.2,1.8s-1.453-1.7-3.609-3.067-1.308-.368-1.471,0S989.552,673.474,991.718,674.813Z" transform="translate(-176.814 -29.446)" fill="#ffd037"/>
    <ellipse id="Ellipse_11" data-name="Ellipse 11" cx="55.934" cy="9.721" rx="55.934" ry="9.721" transform="translate(786.459 722.553)" fill="#6c63ff" opacity="0.1"/>
    <path id="Tracé_241" data-name="Tracé 241" d="M1047.994,699.61l-.271,2.474-.379,3.5-.153,1.462-.379,3.5-.162,1.462-.37,3.486-4.285,39.764c-.379,3.547-5.494,6.317-11.674,6.317h-22.238c-6.18,0-11.286-2.77-11.674-6.317l-4.285-39.764L991.744,712l-.153-1.462-.379-3.5-.162-1.462-.37-3.5-.271-2.474c-.208-2.044,2.553-3.7,6.054-3.7h45.487C1045.441,695.91,1048.21,697.6,1047.994,699.61Z" transform="translate(-176.813 -28.934)" fill="#65617d"/>
    <path id="Tracé_242" data-name="Tracé 242" d="M959.174,658.53l-.37,3.5H902.509l-.379-3.5Z" transform="translate(-88.263 14.62)" fill="#9d9cb5"/>
    <path id="Tracé_243" data-name="Tracé 243" d="M958.7,663.38l-.37,3.5H903.1l-.379-3.5Z" transform="translate(-88.321 14.727)" fill="#9d9cb5"/>
    <path id="Tracé_244" data-name="Tracé 244" d="M958.225,668.23l-.379,3.5H903.69l-.37-3.5Z" transform="translate(-88.38 14.835)" fill="#9d9cb5"/>
    <g id="Character" transform="translate(-215.964 -201.926)">
      <g id="Groupe_854" data-name="Groupe 854" transform="translate(465.411 235.736)">
        <g id="Groupe_600" data-name="Groupe 600" transform="translate(57.082 139.624)">
          <g id="Groupe_565" data-name="Groupe 565" transform="translate(199.147 10.29)">
            <path id="Tracé_190" data-name="Tracé 190" d="M610.856,319.077s17.559,5.682,25.062,48.56c7.119,40.676,22.569,60.9,22.569,60.9L717.7,438.66l-27.891,48.309L609.3,459.3l-4.21-80.77Z" transform="translate(-605.089 -319.077)" fill="#e8505b"/>
          </g>
          <g id="Groupe_566" data-name="Groupe 566" transform="translate(0 9.245)">
            <path id="Tracé_191" data-name="Tracé 191" d="M594.567,318.5s-26.522,3.4-33.968,29.77-15.567,88.417-15.567,88.417l-48.5,80.507,32.2,19.62L576.8,472.968a54.384,54.384,0,0,0,10.623-24.849,51.859,51.859,0,0,0,.442-10.381L586.708,418Z" transform="translate(-496.528 -318.496)" fill="#e8505b"/>
          </g>
          <g id="Groupe_567" data-name="Groupe 567" transform="translate(81.324)">
            <path id="Tracé_192" data-name="Tracé 192" d="M551.138,324l-9.583,65.169a65.369,65.369,0,0,0,2.025,28.167l11.812,39.7s-10.122,22.3,3.12,30.089c2.6,1.529,67.61,2.549,67.61,2.549h28.6l10.381-98.826-.657-67.2s-23.86-8.53-33.223-9.55c-5.87-.639-31.3-1.459-52.129.415Z" transform="translate(-540.86 -313.356)" fill="#e8505b"/>
          </g>
          <g id="Groupe_569" data-name="Groupe 569" transform="translate(48.503 127.332)">
            <g id="Groupe_568" data-name="Groupe 568">
              <path id="Tracé_193" data-name="Tracé 193" d="M539.692,396.132c-.237.169-2.785-3.833-7.488-7.145a27.477,27.477,0,0,0-6.433-3.49,10.488,10.488,0,0,1-2.8-1.324,10.3,10.3,0,0,1,3.045.705,21.721,21.721,0,0,1,6.752,3.351C537.654,391.68,539.921,396.056,539.692,396.132Z" transform="translate(-522.969 -384.144)" fill="#263238"/>
            </g>
          </g>
          <g id="Groupe_571" data-name="Groupe 571" transform="translate(81.64 44.629)">
            <g id="Groupe_570" data-name="Groupe 570">
              <path id="Tracé_194" data-name="Tracé 194" d="M547.511,338.167a19.575,19.575,0,0,1-.84,3.017c-.31.957-.681,2.13-1.024,3.515s-.836,2.936-1.179,4.7a102.958,102.958,0,0,0-2.02,12.419,117.429,117.429,0,0,0-.363,15.389,161.161,161.161,0,0,0,3.962,27.721c.8,3.5,1.48,6.335,1.979,8.285a19.4,19.4,0,0,1,.66,3.06,19.472,19.472,0,0,1-1.02-2.964c-.611-1.923-1.391-4.734-2.278-8.231a143.365,143.365,0,0,1-4.258-27.831,109.562,109.562,0,0,1,.442-15.515,93.022,93.022,0,0,1,2.238-12.484c.387-1.765.917-3.315,1.323-4.691s.818-2.542,1.183-3.484A19.707,19.707,0,0,1,547.511,338.167Z" transform="translate(-541.032 -338.167)" fill="#263238"/>
            </g>
          </g>
          <g id="Groupe_573" data-name="Groupe 573" transform="translate(200.97 48.389)">
            <g id="Groupe_572" data-name="Groupe 572">
              <path id="Tracé_195" data-name="Tracé 195" d="M609.741,340.257a18.664,18.664,0,0,1,.207,3.042c.077,1.959.132,4.794.156,8.3.049,7.01-.081,16.7-.58,27.381s-1.28,20.348-1.988,27.322c-.352,3.488-.673,6.307-.932,8.251a18.89,18.89,0,0,1-.492,3.008,18.362,18.362,0,0,1,.121-3.044c.161-2.112.372-4.9.629-8.273.534-6.983,1.205-16.634,1.708-27.308s.736-20.339.858-27.342c.061-3.38.11-6.175.148-8.292A18.53,18.53,0,0,1,609.741,340.257Z" transform="translate(-606.083 -340.257)" fill="#263238"/>
            </g>
          </g>
          <g id="Groupe_575" data-name="Groupe 575" transform="translate(112.414 123.942)" opacity="0.3">
            <g id="Groupe_574" data-name="Groupe 574">
              <path id="Tracé_196" data-name="Tracé 196" d="M624.031,384.171c1.346,2.169-.758,6.281-6.013,10.636a49.228,49.228,0,0,1-10.049,6.285,65.929,65.929,0,0,1-28.2,6.29,49.96,49.96,0,0,1-11.834-1.4c-6.659-1.7-10.37-4.511-10.113-7.039.259-2.614,4.239-4.51,10.073-6.209,5.865-1.689,13.6-3.324,22.1-5.2,8.484-1.909,16.183-3.718,22.217-4.682C618.219,381.9,622.644,381.925,624.031,384.171Z" transform="translate(-557.808 -382.259)"/>
            </g>
          </g>
          <g id="Groupe_577" data-name="Groupe 577" transform="translate(109.751 128.374)">
            <g id="Groupe_576" data-name="Groupe 576">
              <path id="Tracé_197" data-name="Tracé 197" d="M627.916,384.729a18.448,18.448,0,0,1-2.044,2.232,25.53,25.53,0,0,1-2.6,2.428,42.355,42.355,0,0,1-3.689,2.954q-1.076.769-2.242,1.6c-.785.549-1.666,1.025-2.542,1.57a63.4,63.4,0,0,1-5.822,3.121,67.514,67.514,0,0,1-29.475,6.341,64.7,64.7,0,0,1-6.621-.443c-1.031-.135-2.032-.207-2.981-.385l-2.72-.534a43.423,43.423,0,0,1-4.61-1.168,26.011,26.011,0,0,1-3.4-1.137,18.957,18.957,0,0,1-2.81-1.187c.079-.214,4.085,1.533,10.953,2.842l2.7.47c.939.156,1.933.209,2.953.326,2.036.273,4.234.279,6.54.353a69.631,69.631,0,0,0,29.1-6.258c2.062-1.014,4.054-1.921,5.789-3.006.875-.523,1.756-.98,2.541-1.507l2.253-1.534C624.86,387.8,627.755,384.567,627.916,384.729Z" transform="translate(-556.357 -384.723)" fill="#263238"/>
            </g>
          </g>
          <g id="Groupe_579" data-name="Groupe 579" transform="translate(201.419 12.359)">
            <g id="Groupe_578" data-name="Groupe 578">
              <path id="Tracé_198" data-name="Tracé 198" d="M613.422,320.233c.24.171-2.489,3.689-4.4,8.719-1.957,5.015-2.278,9.422-2.574,9.4-.233.022-.337-4.544,1.68-9.724C610.105,323.427,613.262,320.067,613.422,320.233Z" transform="translate(-606.328 -320.227)" fill="#263238"/>
            </g>
          </g>
          <g id="Groupe_599" data-name="Groupe 599" transform="translate(35.316 15.973)" opacity="0.5">
            <g id="Groupe_580" data-name="Groupe 580" transform="translate(174.192 61.481)">
              <path id="Tracé_199" data-name="Tracé 199" d="M616.147,356.892c-3.828,1.367-2.243.916-3.9,4.091s-2.166,7.143-.422,10.275c1.5,2.7,4.417,4.369,7.376,5.4,3.539,1.23,7.787,1.628,10.784-.588,3.042-2.247,3.8-6.6,2.715-10.179a13.469,13.469,0,0,0-6.729-8,13.917,13.917,0,0,0-10.541-.8" transform="translate(-610.737 -356.415)" fill="#fff"/>
            </g>
            <g id="Groupe_581" data-name="Groupe 581" transform="translate(121.366 97.021)">
              <path id="Tracé_200" data-name="Tracé 200" d="M593.1,379.1c-1.363-2.445-7.6-3.871-9.9-2.222a6.605,6.605,0,0,0,.029,7.8,6.282,6.282,0,0,0,7.648,1.637A5.5,5.5,0,0,0,593.1,379.1Z" transform="translate(-581.94 -376.172)" fill="#fff"/>
            </g>
            <g id="Groupe_582" data-name="Groupe 582" transform="translate(35.145 103.493)">
              <path id="Tracé_201" data-name="Tracé 201" d="M546.1,382.7c-1.365-2.446-7.605-3.871-9.9-2.221a6.605,6.605,0,0,0,.029,7.8,6.283,6.283,0,0,0,7.648,1.637A5.5,5.5,0,0,0,546.1,382.7Z" transform="translate(-534.938 -379.77)" fill="#fff"/>
            </g>
            <g id="Groupe_583" data-name="Groupe 583" transform="translate(50.747)">
              <path id="Tracé_202" data-name="Tracé 202" d="M561.8,322.236a22.436,22.436,0,0,0-16.774,11.687,12.052,12.052,0,0,0-1.556,6.4,6.6,6.6,0,0,0,3.425,5.418c3.01,1.462,6.587-.09,9.488-1.754a32.043,32.043,0,0,0,7.053-5.1,13.129,13.129,0,0,0,3.9-7.551,8.364,8.364,0,0,0-3.115-7.648,6.482,6.482,0,0,0-8.06.327" transform="translate(-543.444 -322.236)" fill="#fff"/>
            </g>
            <g id="Groupe_584" data-name="Groupe 584" transform="translate(0 136.659)">
              <path id="Tracé_203" data-name="Tracé 203" d="M534.137,398.208a22.433,22.433,0,0,0-16.774,11.685,12.05,12.05,0,0,0-1.556,6.4,6.6,6.6,0,0,0,3.425,5.418c3.01,1.462,6.587-.088,9.488-1.754a32.037,32.037,0,0,0,7.053-5.1,13.117,13.117,0,0,0,3.9-7.551,8.364,8.364,0,0,0-3.115-7.649,6.482,6.482,0,0,0-8.06.327" transform="translate(-515.78 -398.208)" fill="#fff"/>
            </g>
            <g id="Groupe_585" data-name="Groupe 585" transform="translate(140.427 0.414)">
              <path id="Tracé_204" data-name="Tracé 204" d="M597.741,322.943c-3.828,1.367-2.242.916-3.9,4.091s-2.166,7.145-.422,10.275c1.5,2.7,4.417,4.371,7.376,5.4,3.539,1.23,7.787,1.628,10.785-.588,3.041-2.247,3.8-6.6,2.715-10.179a13.469,13.469,0,0,0-6.729-8,13.917,13.917,0,0,0-10.54-.8" transform="translate(-592.331 -322.466)" fill="#fff"/>
            </g>
            <g id="Groupe_586" data-name="Groupe 586" transform="translate(130.473 37.698)">
              <path id="Tracé_205" data-name="Tracé 205" d="M586.913,352.719c.293,2.792.251,1.653,2.174,3.3a8.141,8.141,0,0,0,7.066,2.04,9.125,9.125,0,0,0,5.011-4c1.46-2.153,2.462-4.923,1.435-7.3-1.04-2.416-3.935-3.664-6.606-3.554a9.692,9.692,0,0,0-6.707,3.126,9.3,9.3,0,0,0-2.354,6.906" transform="translate(-586.904 -343.193)" fill="#fff"/>
            </g>
            <g id="Groupe_587" data-name="Groupe 587" transform="translate(23.293 66.752)">
              <path id="Tracé_206" data-name="Tracé 206" d="M528.486,368.871c.3,2.792.251,1.655,2.176,3.3a8.132,8.132,0,0,0,7.064,2.04,9.125,9.125,0,0,0,5.012-4c1.46-2.153,2.462-4.923,1.436-7.3-1.042-2.416-3.937-3.664-6.608-3.554a9.687,9.687,0,0,0-6.7,3.126,9.306,9.306,0,0,0-2.355,6.906" transform="translate(-528.477 -359.345)" fill="#fff"/>
            </g>
            <g id="Groupe_588" data-name="Groupe 588" transform="translate(96.743 39.724)">
              <path id="Tracé_207" data-name="Tracé 207" d="M576.6,345.862a3.308,3.308,0,0,0-3.183-1.534,9.79,9.79,0,0,0-3.542,1.162l-1.357,2.556a4.853,4.853,0,0,0,6.846,1.6A3.167,3.167,0,0,0,576.6,345.862Z" transform="translate(-568.517 -344.32)" fill="#fff"/>
            </g>
            <g id="Groupe_589" data-name="Groupe 589" transform="translate(36.438 38.584)">
              <path id="Tracé_208" data-name="Tracé 208" d="M543.726,345.228a3.308,3.308,0,0,0-3.183-1.534A9.777,9.777,0,0,0,537,344.855l-1.357,2.556a4.853,4.853,0,0,0,6.846,1.6A3.167,3.167,0,0,0,543.726,345.228Z" transform="translate(-535.643 -343.686)" fill="#fff"/>
            </g>
            <g id="Groupe_590" data-name="Groupe 590" transform="translate(153.127 87.499)">
              <path id="Tracé_209" data-name="Tracé 209" d="M607.336,372.422a3.313,3.313,0,0,0-3.183-1.536,9.824,9.824,0,0,0-3.542,1.164l-1.358,2.556a4.854,4.854,0,0,0,6.846,1.6A3.168,3.168,0,0,0,607.336,372.422Z" transform="translate(-599.254 -370.879)" fill="#fff"/>
            </g>
            <g id="Groupe_591" data-name="Groupe 591" transform="translate(63.33 142.762)">
              <path id="Tracé_210" data-name="Tracé 210" d="M558.386,403.144a3.313,3.313,0,0,0-3.183-1.536,9.828,9.828,0,0,0-3.542,1.164l-1.357,2.556a4.855,4.855,0,0,0,6.846,1.6A3.165,3.165,0,0,0,558.386,403.144Z" transform="translate(-550.303 -401.601)" fill="#fff"/>
            </g>
            <g id="Groupe_592" data-name="Groupe 592" transform="translate(90.347 62.681)">
              <path id="Tracé_211" data-name="Tracé 211" d="M592.61,363.385c-2.821-3.517-7.3-5.4-11.768-6.3-5.358.183-9.224,3.6-12.918,7.408-1.647,1.7-3.049,3.876-2.88,6.215.185,2.574,2.218,4.661,4.406,6.1a21.831,21.831,0,0,0,17.618,2.7,12.044,12.044,0,0,0,6.208-3.686C596.114,372.307,595.432,366.9,592.61,363.385Z" transform="translate(-565.031 -357.082)" fill="#fff"/>
            </g>
            <g id="Groupe_593" data-name="Groupe 593" transform="translate(137.814 64.951)">
              <path id="Tracé_212" data-name="Tracé 212" d="M599.339,360.559c-1.031-1.847-5.747-2.925-7.481-1.678a4.994,4.994,0,0,0,.022,5.9,4.747,4.747,0,0,0,5.78,1.236A4.159,4.159,0,0,0,599.339,360.559Z" transform="translate(-590.906 -358.344)" fill="#fff"/>
            </g>
            <g id="Groupe_594" data-name="Groupe 594" transform="translate(105.378 144.229)">
              <path id="Tracé_213" data-name="Tracé 213" d="M581.658,404.632c-1.031-1.847-5.747-2.925-7.481-1.678a4.991,4.991,0,0,0,.022,5.9,4.746,4.746,0,0,0,5.78,1.236A4.159,4.159,0,0,0,581.658,404.632Z" transform="translate(-573.225 -402.417)" fill="#fff"/>
            </g>
            <g id="Groupe_595" data-name="Groupe 595" transform="translate(178.895 29.944)">
              <path id="Tracé_214" data-name="Tracé 214" d="M621.734,341.1c-1.031-1.847-5.749-2.925-7.481-1.678a4.991,4.991,0,0,0,.022,5.9,4.747,4.747,0,0,0,5.78,1.238A4.162,4.162,0,0,0,621.734,341.1Z" transform="translate(-613.301 -338.883)" fill="#fff"/>
            </g>
            <g id="Groupe_596" data-name="Groupe 596" transform="translate(65.702 96.433)">
              <path id="Tracé_215" data-name="Tracé 215" d="M563.03,377.348a6.669,6.669,0,0,0-4.916-1.471l.062-.031c-3.408-.025-6.237,1.32-6.538,4.459a10.109,10.109,0,0,0,3.416,8.471c1.849,1.6,4.573,2.511,6.828,1.527a6.569,6.569,0,0,0,3.419-4.42A8.424,8.424,0,0,0,563.03,377.348Z" transform="translate(-551.596 -375.846)" fill="#fff"/>
            </g>
            <g id="Groupe_597" data-name="Groupe 597" transform="translate(139.732 124.627)">
              <path id="Tracé_216" data-name="Tracé 216" d="M610.115,397.545A8.582,8.582,0,0,0,605.6,392a7.767,7.767,0,0,0-7.209,1.058,14.351,14.351,0,0,0-4.573,5.862,17.217,17.217,0,0,0-1.844,8.319c.182,2.86,4.549,6.107,7.943,5.161l-.035-.016a9.8,9.8,0,0,0,6.866-2.042C610.41,407.348,611.52,402,610.115,397.545Z" transform="translate(-591.952 -391.519)" fill="#fff"/>
            </g>
            <g id="Groupe_598" data-name="Groupe 598" transform="translate(58.961 43.279)">
              <path id="Tracé_217" data-name="Tracé 217" d="M553.331,346.773c-3.828,1.367-2.242.914-3.9,4.09s-2.167,7.143-.422,10.275c1.5,2.7,4.417,4.369,7.376,5.4,3.539,1.23,7.787,1.626,10.786-.588,3.04-2.247,3.8-6.6,2.713-10.181a13.479,13.479,0,0,0-6.729-8,13.925,13.925,0,0,0-10.541-.793" transform="translate(-547.921 -346.296)" fill="#fff"/>
            </g>
          </g>
        </g>
        <g id="Groupe_649" data-name="Groupe 649" transform="translate(204.935 370.108)">
          <g id="Groupe_604" data-name="Groupe 604" transform="translate(0 3.68)">
            <g id="Groupe_603" data-name="Groupe 603">
              <g id="Groupe_602" data-name="Groupe 602">
                <g id="Groupe_601" data-name="Groupe 601">
                  <path id="Tracé_218" data-name="Tracé 218" d="M593.312,443.534s70.24,19.062,73.058,20.035c4.23,1.461,3.52,16.662-3.063,16.427-3.117-.111-53.952,1.856-60.376,1.462s-25.8-7.882-25.8-7.882Z" transform="translate(-577.127 -443.534)" fill="#e8505b"/>
                </g>
              </g>
            </g>
          </g>
          <g id="Groupe_609" data-name="Groupe 609" transform="translate(45.304 16.202)">
            <g id="Groupe_608" data-name="Groupe 608">
              <g id="Groupe_607" data-name="Groupe 607">
                <g id="Groupe_606" data-name="Groupe 606">
                  <g id="Groupe_605" data-name="Groupe 605">
                    <path id="Tracé_219" data-name="Tracé 219" d="M601.964,464.254c.354.049.829-3.6,3.1-7.395,2.211-3.831,5.186-6.064,4.966-6.339-.123-.266-3.612,1.675-5.986,5.765C601.628,460.348,601.668,464.284,601.964,464.254Z" transform="translate(-601.824 -450.496)" fill="#263238"/>
                  </g>
                </g>
              </g>
            </g>
          </g>
          <g id="Groupe_614" data-name="Groupe 614" transform="translate(38.011 13.541)">
            <g id="Groupe_613" data-name="Groupe 613">
              <g id="Groupe_612" data-name="Groupe 612">
                <g id="Groupe_611" data-name="Groupe 611">
                  <g id="Groupe_610" data-name="Groupe 610">
                    <path id="Tracé_220" data-name="Tracé 220" d="M597.958,462.179c.345.059,1.057-3.2,2.926-6.8,1.834-3.616,4.078-6.116,3.825-6.352-.193-.227-2.937,2.025-4.874,5.834C597.87,458.657,597.659,462.161,597.958,462.179Z" transform="translate(-597.848 -449.016)" fill="#263238"/>
                  </g>
                </g>
              </g>
            </g>
          </g>
          <g id="Groupe_619" data-name="Groupe 619" transform="translate(30.787 11.161)">
            <g id="Groupe_618" data-name="Groupe 618">
              <g id="Groupe_617" data-name="Groupe 617">
                <g id="Groupe_616" data-name="Groupe 616">
                  <g id="Groupe_615" data-name="Groupe 615">
                    <path id="Tracé_221" data-name="Tracé 221" d="M594.374,461.432c.354-.022.084-3.463,1.644-7.276,1.493-3.842,4.071-6.19,3.825-6.442-.139-.263-3.289,1.867-4.92,6.021C593.248,457.871,594.09,461.531,594.374,461.432Z" transform="translate(-593.91 -447.693)" fill="#263238"/>
                  </g>
                </g>
              </g>
            </g>
          </g>
          <g id="Groupe_624" data-name="Groupe 624" transform="translate(26.927)">
            <g id="Groupe_623" data-name="Groupe 623">
              <g id="Groupe_622" data-name="Groupe 622">
                <g id="Groupe_621" data-name="Groupe 621">
                  <g id="Groupe_620" data-name="Groupe 620">
                    <path id="Tracé_222" data-name="Tracé 222" d="M597.377,457.492c.125.031.748-1.892.754-5.125a23.781,23.781,0,0,0-.712-5.616,23.454,23.454,0,0,0-1.046-3.2,3.85,3.85,0,0,0-1.125-1.689,1.9,1.9,0,0,0-2.412.117,3.015,3.015,0,0,0-.936,1.948,12.859,12.859,0,0,0-.092,1.819,14.913,14.913,0,0,0,.433,3.373,20.3,20.3,0,0,0,2.161,5.265c1.638,2.794,3.056,4.224,3.157,4.146.16-.11-1.016-1.714-2.42-4.524a22.344,22.344,0,0,1-1.842-5.119,14.809,14.809,0,0,1-.338-3.148c.031-1.058.015-2.382.646-2.889a.69.69,0,0,1,.93-.077,2.892,2.892,0,0,1,.771,1.2,24.711,24.711,0,0,1,1.062,3.04,27.124,27.124,0,0,1,.93,5.378C597.506,455.515,597.187,457.465,597.377,457.492Z" transform="translate(-591.806 -441.488)" fill="#263238"/>
                  </g>
                </g>
              </g>
            </g>
          </g>
          <g id="Groupe_629" data-name="Groupe 629" transform="translate(18.357 14.586)">
            <g id="Groupe_628" data-name="Groupe 628">
              <g id="Groupe_627" data-name="Groupe 627">
                <g id="Groupe_626" data-name="Groupe 626">
                  <g id="Groupe_625" data-name="Groupe 625">
                    <path id="Tracé_223" data-name="Tracé 223" d="M601.188,450.315c.033-.126-1.662-.7-4.529-.718a20.867,20.867,0,0,0-4.984.6,11.134,11.134,0,0,0-2.871,1.036,2.894,2.894,0,0,0-1.587,3.148,3.477,3.477,0,0,0,2.53,2.459,6.561,6.561,0,0,0,3.152-.007,12.19,12.19,0,0,0,4.562-2.2c2.253-1.73,3.352-3.056,3.267-3.153-.123-.146-1.455.988-3.742,2.486a12.576,12.576,0,0,1-4.307,1.829,5.669,5.669,0,0,1-2.607-.036,2.36,2.36,0,0,1-1.71-1.637,1.769,1.769,0,0,1,1.044-1.923,10.832,10.832,0,0,1,2.548-.973,23.908,23.908,0,0,1,4.733-.811C599.436,450.223,601.158,450.5,601.188,450.315Z" transform="translate(-587.134 -449.597)" fill="#263238"/>
                  </g>
                </g>
              </g>
            </g>
          </g>
          <g id="Groupe_634" data-name="Groupe 634" transform="translate(55.691 19.063)">
            <g id="Groupe_633" data-name="Groupe 633">
              <g id="Groupe_632" data-name="Groupe 632">
                <g id="Groupe_631" data-name="Groupe 631">
                  <g id="Groupe_630" data-name="Groupe 630">
                    <path id="Tracé_224" data-name="Tracé 224" d="M608.033,463.721c.347-.038,0-2.982,1.385-6.211,1.315-3.258,3.66-5.127,3.438-5.393-.116-.281-3.053,1.353-4.527,4.958C606.813,460.661,607.748,463.843,608.033,463.721Z" transform="translate(-607.486 -452.086)" fill="#263238"/>
                  </g>
                </g>
              </g>
            </g>
          </g>
          <g id="Groupe_639" data-name="Groupe 639" transform="translate(7.225 33.86)">
            <g id="Groupe_638" data-name="Groupe 638">
              <g id="Groupe_637" data-name="Groupe 637">
                <g id="Groupe_636" data-name="Groupe 636">
                  <g id="Groupe_635" data-name="Groupe 635">
                    <path id="Tracé_225" data-name="Tracé 225" d="M581.066,460.33a14.8,14.8,0,0,0,2.717,1.254,61.5,61.5,0,0,0,7.817,2.374c6.718,1.66,16.3,2.6,26.817,2.493s20.012-.585,26.891-.854l8.139-.423a15.078,15.078,0,0,0,2.979-.311,14.806,14.806,0,0,0-2.994-.137l-8.15.056-26.871.516c-10.475.108-19.937-.7-26.628-2.135C585.069,461.811,581.149,460.116,581.066,460.33Z" transform="translate(-581.066 -460.312)" fill="#263238"/>
                  </g>
                </g>
              </g>
            </g>
          </g>
          <g id="Groupe_644" data-name="Groupe 644" transform="translate(5.147 29.591)">
            <g id="Groupe_643" data-name="Groupe 643">
              <g id="Groupe_642" data-name="Groupe 642">
                <g id="Groupe_641" data-name="Groupe 641">
                  <g id="Groupe_640" data-name="Groupe 640">
                    <path id="Tracé_226" data-name="Tracé 226" d="M579.935,463.794c.1.16,2.018-.941,5.263-2.337,3.207-1.349,8.015-2.966,13.29-2.168,5.294.8,9.046,4.281,11.489,6.7,2.464,2.506,3.906,4.171,4.049,4.055.106-.086-1.093-1.916-3.438-4.609a27.644,27.644,0,0,0-4.658-4.269,16.825,16.825,0,0,0-7.257-3.017,23.605,23.605,0,0,0-13.826,2.565C581.624,462.335,579.863,463.683,579.935,463.794Z" transform="translate(-579.933 -457.939)" fill="#263238"/>
                  </g>
                </g>
              </g>
            </g>
          </g>
          <g id="Groupe_648" data-name="Groupe 648" transform="translate(0 3.68)" opacity="0.3">
            <g id="Groupe_647" data-name="Groupe 647">
              <g id="Groupe_646" data-name="Groupe 646">
                <g id="Groupe_645" data-name="Groupe 645">
                  <path id="Tracé_227-2" data-name="Tracé 227" d="M593.312,443.534s70.24,19.062,73.058,20.035c4.23,1.461,3.52,16.662-3.063,16.427-3.117-.111-53.952,1.856-60.376,1.462s-25.8-7.882-25.8-7.882Z" transform="translate(-577.127 -443.534)"/>
                </g>
              </g>
            </g>
          </g>
        </g>
        <g id="Groupe_666" data-name="Groupe 666" transform="translate(0 297.761)">
          <g id="Groupe_650" data-name="Groupe 650" transform="translate(0 16.09)">
            <path id="Tracé_228" data-name="Tracé 228" d="M624.173,410.214,601.307,436.3s-76.132-22.7-95.315-21.658-34.894,8.58-38.626,23.858-4.239,36.356,18.139,50.985,133.6,22.712,133.6,22.712h44.012l71.933-93.005-6.316-5.1Z" transform="translate(-465.411 -410.214)" fill="#263238"/>
          </g>
          <g id="Groupe_652" data-name="Groupe 652" transform="translate(41.013 32.79)">
            <g id="Groupe_651" data-name="Groupe 651">
              <path id="Tracé_229" data-name="Tracé 229" d="M620.831,463.137a8.193,8.193,0,0,1-1.444-.025c-.943-.076-2.348-.07-4.129-.315a87.336,87.336,0,0,1-14.921-3.02,144.921,144.921,0,0,1-21.041-8.069c-7.7-3.56-15.908-7.942-24.536-12.484a255.56,255.56,0,0,0-24.851-11.69,113.294,113.294,0,0,0-21.5-6.3,77.346,77.346,0,0,0-15.072-1.288c-1.794-.04-3.177.148-4.122.158a8.367,8.367,0,0,1-1.447.018,8.235,8.235,0,0,1,1.429-.207c.943-.07,2.328-.317,4.129-.335a71.867,71.867,0,0,1,15.2,1,109.769,109.769,0,0,1,21.708,6.154A244.02,244.02,0,0,1,555.212,438.4c8.635,4.546,16.816,8.942,24.462,12.529a151.443,151.443,0,0,0,20.857,8.217,95.9,95.9,0,0,0,14.773,3.292c1.768.3,3.162.353,4.1.489A8.347,8.347,0,0,1,620.831,463.137Z" transform="translate(-487.768 -419.498)" fill="#455a64"/>
            </g>
          </g>
          <g id="Groupe_653" data-name="Groupe 653" transform="translate(167.335)">
            <path id="Tracé_230" data-name="Tracé 230" d="M615.392,511.751c14.138-5.447,91.9-29.709,119.425-60.9,22.919-25.971-13.536-49.224-13.536-49.224s-25.572-.8-34.1,0S556.63,483.291,556.63,483.291s21.314,40.755,20.78,42.322Z" transform="translate(-556.63 -401.269)" fill="#263238"/>
          </g>
          <g id="Groupe_655" data-name="Groupe 655" transform="translate(167.993 20.042)">
            <g id="Groupe_654" data-name="Groupe 654">
              <path id="Tracé_231" data-name="Tracé 231" d="M653.39,412.413c.009.013-.1.1-.33.259l-1.025.684-3.992,2.549c-3.561,2.227-8.589,5.368-14.769,9.23l-48.922,30.148-26.575,16.247.174-.534,13.934,32.873L575.8,513.3l1.007,2.52a4.625,4.625,0,0,1,.3.889,4.63,4.63,0,0,1-.437-.833l-1.135-2.468c-1-2.249-2.4-5.4-4.15-9.339l-14.253-32.742-.147-.34.319-.2,26.537-16.308,49.071-29.914,14.93-8.976,4.085-2.4,1.075-.6A1.436,1.436,0,0,1,653.39,412.413Z" transform="translate(-556.989 -412.411)" fill="#455a64"/>
            </g>
          </g>
          <g id="Groupe_657" data-name="Groupe 657" transform="translate(135.986 40.961)">
            <g id="Groupe_656" data-name="Groupe 656">
              <path id="Tracé_232" data-name="Tracé 232" d="M560.507,439.092a12.892,12.892,0,0,1-3.612-1.331,50.473,50.473,0,0,1-7.987-4.691,49.774,49.774,0,0,1-6.974-6.049,12.481,12.481,0,0,1-2.386-2.973c.22-.2,4.111,4.123,9.926,8.267C555.257,436.495,560.632,438.828,560.507,439.092Z" transform="translate(-539.541 -424.04)" fill="#455a64"/>
            </g>
          </g>
          <g id="Groupe_659" data-name="Groupe 659" transform="translate(189.623 17.461)">
            <g id="Groupe_658" data-name="Groupe 658">
              <path id="Tracé_233-2" data-name="Tracé 233" d="M569.345,410.976a28.4,28.4,0,0,1,.183,4.774c.044,2.941.163,7,.572,11.46s1.04,8.478,1.537,11.379a28.269,28.269,0,0,1,.692,4.727,20.628,20.628,0,0,1-1.356-4.6,87.241,87.241,0,0,1-2.121-22.974A20.482,20.482,0,0,1,569.345,410.976Z" transform="translate(-568.78 -410.976)" fill="#455a64"/>
            </g>
          </g>
          <g id="Groupe_661" data-name="Groupe 661" transform="translate(196.152 21.479)">
            <g id="Groupe_660" data-name="Groupe 660">
              <path id="Tracé_234-2" data-name="Tracé 234" d="M577.153,413.246c.006-.045.363-.086.956.128a4.284,4.284,0,0,1,2.023,1.667,4.509,4.509,0,0,1,.578,3.842,4.255,4.255,0,0,1-3.948,2.723,3.884,3.884,0,0,1-3.627-6.236,3.788,3.788,0,0,1,2.13-1.551c.62-.148.97-.043.967,0a4.531,4.531,0,0,0-2.524,1.9,3.623,3.623,0,0,0-.3,3.173,3.332,3.332,0,0,0,3.309,1.775,3.432,3.432,0,0,0,3.162-2.072,3.988,3.988,0,0,0-.326-3.22A5.733,5.733,0,0,0,577.153,413.246Z" transform="translate(-572.339 -413.21)" fill="#455a64"/>
            </g>
          </g>
          <g id="Groupe_663" data-name="Groupe 663" transform="translate(146.814 18.196)">
            <g id="Groupe_662" data-name="Groupe 662">
              <path id="Tracé_235-2" data-name="Tracé 235" d="M569.408,411.385a4.069,4.069,0,0,1,.67,1.417,12.673,12.673,0,0,1,.638,4.218,14.933,14.933,0,0,1-1.416,6.19,14.605,14.605,0,0,1-5.078,5.981,15.029,15.029,0,0,1-7.565,2.358,15.747,15.747,0,0,1-6.382-1.047,13.179,13.179,0,0,1-3.744-2.171c-.772-.664-1.123-1.1-1.084-1.14.123-.162,1.688,1.542,5.061,2.691a16.017,16.017,0,0,0,6.1.806,14.634,14.634,0,0,0,7.077-2.274,14.229,14.229,0,0,0,4.814-5.569A15.189,15.189,0,0,0,570.04,417C570.229,413.5,569.209,411.437,569.408,411.385Z" transform="translate(-545.443 -411.385)" fill="#455a64"/>
            </g>
          </g>
          <g id="Groupe_665" data-name="Groupe 665" transform="translate(233.117 18.294)">
            <g id="Groupe_664" data-name="Groupe 664">
              <path id="Tracé_236-2" data-name="Tracé 236" d="M602.708,425.543a5.143,5.143,0,0,1-2.886-.4,11.023,11.023,0,0,1-5.549-4.258,10.68,10.68,0,0,1-1.746-6.7c.154-1.79.69-2.79.789-2.75.148.04-.139,1.085-.114,2.772a11.572,11.572,0,0,0,1.871,6.161,11.906,11.906,0,0,0,5,4.157C601.638,425.232,602.73,425.392,602.708,425.543Z" transform="translate(-592.49 -411.439)" fill="#455a64"/>
            </g>
          </g>
        </g>
        <g id="Groupe_678" data-name="Groupe 678" transform="translate(324.176 255.026)">
          <g id="Groupe_668" data-name="Groupe 668">
            <g id="Groupe_667" data-name="Groupe 667">
              <path id="Tracé_237-2" data-name="Tracé 237" d="M642.129,400.847s11.885-16.826,14.49-18.251,24.592-5.8,26.285-4.984,26.278,8.805,22.925,11.313-20.461-3.308-20.461-3.308l-2.541.806s14.835,4.643,17.755,6.934c2.687,2.11,1.13,5.5-1.612,4.8s-15.563-5.175-16.431-4.761,13.83,5.637,15.316,6.827c2,1.6,1.623,5.461-1.117,4.86-1.616-.354-15.352-6.105-15.352-6.105s10.673,5.974,11.566,7.1c1.464,1.847-.268,4.065-2.64,3.169-1.629-.617-9.057-5.553-11.24-6.373,0,0-2.2.239-4.76,4.139s-17.981,12.455-17.981,12.455Z" transform="translate(-642.129 -377.511)" fill="#a36957"/>
            </g>
          </g>
          <g id="Groupe_674" data-name="Groupe 674" transform="translate(5.728 12.518)">
            <g id="Groupe_670" data-name="Groupe 670" transform="translate(0.004 0.048)">
              <g id="Groupe_669" data-name="Groupe 669">
                <path id="Tracé_238-2" data-name="Tracé 238" d="M645.254,396.38c1.321,1.63,3.9,1.662,5.865.869s3.6-2.216,5.5-3.146c5.683-2.781,12.947-.836,18.487-3.88.772-.424,1.589-1.185,1.33-2.016-.24-.77-1.216-1-2.031-1.1L653.535,384.5" transform="translate(-645.254 -384.497)" fill="#a36957"/>
              </g>
            </g>
            <g id="Groupe_673" data-name="Groupe 673">
              <g id="Groupe_672" data-name="Groupe 672">
                <g id="Groupe_671" data-name="Groupe 671">
                  <path id="Tracé_239-2" data-name="Tracé 239" d="M653.537,384.518a8.55,8.55,0,0,1,2.286.054c1.462.113,3.573.313,6.178.585l9.141,1.016,2.642.309c.829.162,1.985.011,2.955,1.078a1.711,1.711,0,0,1,.046,1.95,3.628,3.628,0,0,1-1.249,1.164,13.949,13.949,0,0,1-2.854,1.187c-4.012,1.142-7.893.881-11.239,1.414a16.1,16.1,0,0,0-4.562,1.268c-1.332.626-2.495,1.455-3.649,2.112a7.527,7.527,0,0,1-6.158,1.155c-1.491-.52-1.867-1.412-1.816-1.408a6.2,6.2,0,0,0,1.944.968,7.278,7.278,0,0,0,5.588-1.425c1.084-.673,2.221-1.552,3.65-2.275a16.6,16.6,0,0,1,4.83-1.464c3.476-.6,7.358-.4,11.063-1.47a13,13,0,0,0,2.585-1.063c.756-.43,1.2-1.1.873-1.432-.3-.417-1.257-.538-2.152-.642L671,387.249l-9.11-1.266c-2.59-.378-4.685-.7-6.129-.955A8.564,8.564,0,0,1,653.537,384.518Z" transform="translate(-645.252 -384.47)" fill="#7c3b29"/>
                </g>
              </g>
            </g>
          </g>
          <g id="Groupe_677" data-name="Groupe 677" transform="translate(31.766 7.238)">
            <g id="Groupe_676" data-name="Groupe 676">
              <g id="Groupe_675" data-name="Groupe 675">
                <path id="Tracé_240-2" data-name="Tracé 240" d="M691.319,385.766c.022.139-1.788.583-4.792.559a27.987,27.987,0,0,1-5.233-.563c-1.9-.5-3.961-1.1-6.131-1.734l-4.6-1.378.288.016c-6.562,1.248-11.346,1.984-11.4,1.727s4.634-1.434,11.181-2.83l.13-.029.158.045,4.575,1.315,6.044,1.81a34.436,34.436,0,0,0,5.034.79C689.474,385.728,691.3,385.584,691.319,385.766Z" transform="translate(-659.446 -381.535)" fill="#7c3b29"/>
              </g>
            </g>
          </g>
        </g>
        <g id="Groupe_800" data-name="Groupe 800" transform="translate(127.042)">
          <g id="Groupe_679" data-name="Groupe 679" transform="translate(104.351 21.808)">
            <path id="Tracé_241-2" data-name="Tracé 241" d="M642.6,314.656c-4.9-5.756-10.884-11.651-11.093-19.143-.112-3.983,1.367-8.458-1.066-11.647-2.119-2.776-6.331-3.216-8.712-5.778-3.177-3.421-1.807-8.83-2.9-13.331-1.185-4.9-5.467-8.674-10.284-10.413s-10.113-1.707-15.213-1.128L588.55,356.392c2.333-2.506,8.409-3.558,11.643-2.347s6.268,3.164,9.717,3.441c7.743.622,13.193-6.969,19.81-10.956,6.318-3.808,14.991-5.022,18.465-11.444C651.766,328.462,647.5,320.412,642.6,314.656Z" transform="translate(-588.55 -252.86)" fill="#263238"/>
          </g>
          <g id="Groupe_681" data-name="Groupe 681" transform="translate(127.683 57.293)">
            <g id="Groupe_680" data-name="Groupe 680">
              <path id="Tracé_242-2" data-name="Tracé 242" d="M617.515,331.559a8.507,8.507,0,0,0,2.579-1.041,5.582,5.582,0,0,0,2.034-2.394,5.378,5.378,0,0,0,.064-4.029c-.493-1.493-1.867-2.553-3.5-3.581a9.472,9.472,0,0,1-2.35-2.011,4.84,4.84,0,0,1-.985-3.189c.13-2.322,1.35-4.339,2.126-6.468a9.29,9.29,0,0,0,.7-3.279,5.828,5.828,0,0,0-1.005-3.195,19.574,19.574,0,0,0-5.217-4.727,27.86,27.86,0,0,1-5.263-4.391,21.468,21.468,0,0,1-5.047-10.275,19.874,19.874,0,0,1-.024-7.693,12.76,12.76,0,0,1,.547-2.024c.158-.452.255-.684.286-.673.1.029-.235.979-.466,2.756a21.7,21.7,0,0,0,5.362,17.337,27.655,27.655,0,0,0,5.151,4.216,20.135,20.135,0,0,1,5.479,4.974,6.732,6.732,0,0,1,1.147,3.684,10.122,10.122,0,0,1-.776,3.608c-.836,2.205-2.009,4.188-2.126,6.184a4.04,4.04,0,0,0,.782,2.666,8.845,8.845,0,0,0,2.126,1.864,16.507,16.507,0,0,1,2.249,1.734,5.783,5.783,0,0,1-1.1,9.213,5.636,5.636,0,0,1-2.031.727A1.719,1.719,0,0,1,617.515,331.559Z" transform="translate(-601.269 -272.587)" fill="#455a64"/>
            </g>
          </g>
          <g id="Groupe_771" data-name="Groupe 771" transform="translate(54.704 26.742)">
            <g id="Groupe_770" data-name="Groupe 770">
              <g id="Groupe_769" data-name="Groupe 769">
                <g id="Groupe_768" data-name="Groupe 768">
                  <g id="Groupe_753" data-name="Groupe 753">
                    <g id="Groupe_752" data-name="Groupe 752">
                      <g id="Groupe_751" data-name="Groupe 751">
                        <g id="Groupe_688" data-name="Groupe 688">
                          <g id="Groupe_687" data-name="Groupe 687">
                            <g id="Groupe_686" data-name="Groupe 686">
                              <g id="Groupe_685" data-name="Groupe 685">
                                <g id="Groupe_684" data-name="Groupe 684">
                                  <g id="Groupe_683" data-name="Groupe 683">
                                    <g id="Groupe_682" data-name="Groupe 682">
                                      <path id="Tracé_243-2" data-name="Tracé 243" d="M612.351,368.052l-.326-17.312s17.541-2.543,21.571-24.858c2-11.1,1.763-29.353,1.075-44.285-.618-13.439-15.127-27.1-28.793-25.924l-44.391,7.481.015,7.226,1.225,98.418a24.585,24.585,0,0,0,24.812,24.037h0A24.569,24.569,0,0,0,612.351,368.052Z" transform="translate(-561.486 -255.603)" fill="#a36957"/>
                                    </g>
                                  </g>
                                </g>
                              </g>
                            </g>
                          </g>
                        </g>
                        <g id="Groupe_704" data-name="Groupe 704" transform="translate(57.412 32.3)">
                          <g id="Groupe_695" data-name="Groupe 695" transform="translate(2.885 6.558)">
                            <g id="Groupe_694" data-name="Groupe 694">
                              <g id="Groupe_693" data-name="Groupe 693">
                                <g id="Groupe_692" data-name="Groupe 692">
                                  <g id="Groupe_691" data-name="Groupe 691">
                                    <g id="Groupe_690" data-name="Groupe 690">
                                      <g id="Groupe_689" data-name="Groupe 689">
                                        <path id="Tracé_244-2" data-name="Tracé 244" d="M600.2,279.849a2.9,2.9,0,0,1-2.875,2.846,2.778,2.778,0,0,1-2.97-2.641,2.9,2.9,0,0,1,2.871-2.847A2.783,2.783,0,0,1,600.2,279.849Z" transform="translate(-594.356 -277.205)" fill="#263238"/>
                                      </g>
                                    </g>
                                  </g>
                                </g>
                              </g>
                            </g>
                          </g>
                          <g id="Groupe_703" data-name="Groupe 703">
                            <g id="Groupe_702" data-name="Groupe 702">
                              <g id="Groupe_701" data-name="Groupe 701">
                                <g id="Groupe_700" data-name="Groupe 700">
                                  <g id="Groupe_699" data-name="Groupe 699">
                                    <g id="Groupe_698" data-name="Groupe 698">
                                      <g id="Groupe_697" data-name="Groupe 697">
                                        <g id="Groupe_696" data-name="Groupe 696">
                                          <path id="Tracé_245-2" data-name="Tracé 245" d="M604.347,276.676c-.369.369-2.557-1.279-5.707-1.326-3.144-.092-5.485,1.457-5.821,1.072-.163-.169.218-.838,1.238-1.54a8.134,8.134,0,0,1,4.667-1.322,7.8,7.8,0,0,1,4.533,1.524C604.213,275.829,604.529,276.513,604.347,276.676Z" transform="translate(-592.783 -273.559)" fill="#263238"/>
                                        </g>
                                      </g>
                                    </g>
                                  </g>
                                </g>
                              </g>
                            </g>
                          </g>
                        </g>
                        <g id="Groupe_720" data-name="Groupe 720" transform="translate(26.445 32.338)">
                          <g id="Groupe_711" data-name="Groupe 711" transform="translate(4.936 5.715)">
                            <g id="Groupe_710" data-name="Groupe 710">
                              <g id="Groupe_709" data-name="Groupe 709">
                                <g id="Groupe_708" data-name="Groupe 708">
                                  <g id="Groupe_707" data-name="Groupe 707">
                                    <g id="Groupe_706" data-name="Groupe 706">
                                      <g id="Groupe_705" data-name="Groupe 705">
                                        <path id="Tracé_246-2" data-name="Tracé 246" d="M584.438,279.4a2.9,2.9,0,0,1-2.875,2.846,2.777,2.777,0,0,1-2.97-2.639,2.9,2.9,0,0,1,2.871-2.848A2.781,2.781,0,0,1,584.438,279.4Z" transform="translate(-578.593 -276.757)" fill="#263238"/>
                                      </g>
                                    </g>
                                  </g>
                                </g>
                              </g>
                            </g>
                          </g>
                          <g id="Groupe_719" data-name="Groupe 719">
                            <g id="Groupe_718" data-name="Groupe 718">
                              <g id="Groupe_717" data-name="Groupe 717">
                                <g id="Groupe_716" data-name="Groupe 716">
                                  <g id="Groupe_715" data-name="Groupe 715">
                                    <g id="Groupe_714" data-name="Groupe 714">
                                      <g id="Groupe_713" data-name="Groupe 713">
                                        <g id="Groupe_712" data-name="Groupe 712">
                                          <path id="Tracé_247-2" data-name="Tracé 247" d="M587.468,276.7c-.37.367-2.563-1.281-5.709-1.327-3.144-.09-5.485,1.457-5.821,1.074-.163-.171.215-.84,1.238-1.54a8.121,8.121,0,0,1,4.667-1.322,7.809,7.809,0,0,1,4.535,1.522C587.331,275.85,587.648,276.532,587.468,276.7Z" transform="translate(-575.902 -273.58)" fill="#263238"/>
                                        </g>
                                      </g>
                                    </g>
                                  </g>
                                </g>
                              </g>
                            </g>
                          </g>
                        </g>
                        <g id="Groupe_728" data-name="Groupe 728" transform="translate(48.014 32.799)">
                          <g id="Groupe_727" data-name="Groupe 727">
                            <g id="Groupe_726" data-name="Groupe 726">
                              <g id="Groupe_725" data-name="Groupe 725">
                                <g id="Groupe_724" data-name="Groupe 724">
                                  <g id="Groupe_723" data-name="Groupe 723">
                                    <g id="Groupe_722" data-name="Groupe 722">
                                      <g id="Groupe_721" data-name="Groupe 721">
                                        <path id="Tracé_248-2" data-name="Tracé 248" d="M588.671,299.593c-.013-.176,1.952-.473,5.131-.817.805-.067,1.57-.21,1.715-.746a3.938,3.938,0,0,0-.5-2.346q-1.081-2.884-2.269-6.046c-3.148-8.607-5.41-15.678-5.056-15.8s3.194,6.756,6.342,15.364c.756,2.123,1.48,4.144,2.168,6.08a4.493,4.493,0,0,1,.361,3.1,2.012,2.012,0,0,1-1.345,1.13,5.521,5.521,0,0,1-1.369.162C590.659,299.789,588.68,299.769,588.671,299.593Z" transform="translate(-587.66 -273.836)" fill="#263238"/>
                                      </g>
                                    </g>
                                  </g>
                                </g>
                              </g>
                            </g>
                          </g>
                        </g>
                        <g id="Groupe_735" data-name="Groupe 735" transform="translate(20.122 86.61)">
                          <g id="Groupe_734" data-name="Groupe 734">
                            <g id="Groupe_733" data-name="Groupe 733">
                              <g id="Groupe_732" data-name="Groupe 732">
                                <g id="Groupe_731" data-name="Groupe 731">
                                  <g id="Groupe_730" data-name="Groupe 730">
                                    <g id="Groupe_729" data-name="Groupe 729">
                                      <path id="Tracé_249-2" data-name="Tracé 249" d="M602.872,312.279a58.985,58.985,0,0,1-30.417-8.528s7.64,15.632,30.517,13.935Z" transform="translate(-572.455 -303.751)" fill="#7c3b29"/>
                                    </g>
                                  </g>
                                </g>
                              </g>
                            </g>
                          </g>
                        </g>
                        <g id="Groupe_742" data-name="Groupe 742" transform="translate(38.128 63.796)">
                          <g id="Groupe_741" data-name="Groupe 741">
                            <g id="Groupe_740" data-name="Groupe 740">
                              <g id="Groupe_739" data-name="Groupe 739">
                                <g id="Groupe_738" data-name="Groupe 738">
                                  <g id="Groupe_737" data-name="Groupe 737">
                                    <g id="Groupe_736" data-name="Groupe 736">
                                      <path id="Tracé_250-2" data-name="Tracé 250" d="M591.7,293.246a5.727,5.727,0,0,0-5.05-2.155,5.211,5.211,0,0,0-3.61,1.82,3.169,3.169,0,0,0-.317,3.677,3.862,3.862,0,0,0,4.111,1.1A12.022,12.022,0,0,0,590.9,295.4a3.475,3.475,0,0,0,.917-.9,1.016,1.016,0,0,0,.015-1.149" transform="translate(-582.271 -291.069)" fill="#7c3b29"/>
                                    </g>
                                  </g>
                                </g>
                              </g>
                            </g>
                          </g>
                        </g>
                        <g id="Groupe_750" data-name="Groupe 750" transform="translate(39.175 60.53)">
                          <g id="Groupe_749" data-name="Groupe 749">
                            <g id="Groupe_748" data-name="Groupe 748">
                              <g id="Groupe_747" data-name="Groupe 747">
                                <g id="Groupe_746" data-name="Groupe 746">
                                  <g id="Groupe_745" data-name="Groupe 745">
                                    <g id="Groupe_744" data-name="Groupe 744">
                                      <g id="Groupe_743" data-name="Groupe 743">
                                        <path id="Tracé_251-2" data-name="Tracé 251" d="M583.384,289.253c.514-.022.459,3.331,3.342,5.762s6.527,2.124,6.545,2.594c.044.21-.822.637-2.361.651a8.615,8.615,0,0,1-5.468-1.975,7.223,7.223,0,0,1-2.583-4.828C582.754,290.054,583.151,289.23,583.384,289.253Z" transform="translate(-582.842 -289.253)" fill="#263238"/>
                                      </g>
                                    </g>
                                  </g>
                                </g>
                              </g>
                            </g>
                          </g>
                        </g>
                      </g>
                    </g>
                  </g>
                  <g id="Groupe_760" data-name="Groupe 760" transform="translate(24.646 20.943)">
                    <g id="Groupe_759" data-name="Groupe 759">
                      <g id="Groupe_758" data-name="Groupe 758">
                        <g id="Groupe_757" data-name="Groupe 757">
                          <g id="Groupe_756" data-name="Groupe 756">
                            <g id="Groupe_755" data-name="Groupe 755">
                              <g id="Groupe_754" data-name="Groupe 754">
                                <path id="Tracé_252-2" data-name="Tracé 252" d="M589.318,269.669c-.325.833-3.462.381-7.165.754-3.711.3-6.708,1.308-7.185.545-.213-.363.321-1.144,1.541-1.937a12.741,12.741,0,0,1,10.933-.989C588.787,268.6,589.459,269.272,589.318,269.669Z" transform="translate(-574.921 -267.246)" fill="#263238"/>
                              </g>
                            </g>
                          </g>
                        </g>
                      </g>
                    </g>
                  </g>
                  <g id="Groupe_767" data-name="Groupe 767" transform="translate(57.267 23.164)">
                    <g id="Groupe_766" data-name="Groupe 766">
                      <g id="Groupe_765" data-name="Groupe 765">
                        <g id="Groupe_764" data-name="Groupe 764">
                          <g id="Groupe_763" data-name="Groupe 763">
                            <g id="Groupe_762" data-name="Groupe 762">
                              <g id="Groupe_761" data-name="Groupe 761">
                                <path id="Tracé_253-2" data-name="Tracé 253" d="M603.419,271.775c-.569.693-2.724-.074-5.333-.153-2.6-.169-4.826.387-5.322-.354-.216-.362.145-1.058,1.123-1.705a7.848,7.848,0,0,1,8.583.41C603.379,270.71,603.668,271.437,603.419,271.775Z" transform="translate(-592.704 -268.48)" fill="#263238"/>
                              </g>
                            </g>
                          </g>
                        </g>
                      </g>
                    </g>
                  </g>
                </g>
              </g>
            </g>
          </g>
          <g id="Groupe_772" data-name="Groupe 772" transform="translate(60.332 16.565)">
            <path id="Tracé_254-2" data-name="Tracé 254" d="M570.56,294.044c7.5-9.026,28.846-25.241,39.251-29.723,1.666-.718,3.216-2.232,4.236-2.232a32.908,32.908,0,0,1,6.121,4.056c5.538,4.754,9.937,15.937,12.069,22.847,3.078-8.6,2.078-20.96-4.019-27.844s-12.577-10.69-21.864-11.142-16.273,1.588-24.189,6.371c-3.137,1.894-14.448,11.115-17.61,16.423Z" transform="translate(-564.554 -249.945)" fill="#455a64"/>
          </g>
          <g id="Groupe_773" data-name="Groupe 773" transform="translate(9.914 7.398)">
            <path id="Tracé_255-2" data-name="Tracé 255" d="M633.444,254.536c1.537.167-8.82-8.163-15.275-9.3a26.325,26.325,0,0,0-18.79,3.855c-3.689,2.425-6.769,5.807-10.856,7.51-3.113,1.3-6.576,1.516-9.822,2.459a22.464,22.464,0,0,0-15.84,19.278c-.281,3.715.411,7.431.468,11.154s-.638,7.7-3.208,10.437c-2.227,2.378-5.5,3.468-8.286,5.188a19.989,19.989,0,0,0-9.1,19.8c.677,4.067,2.645,8.255,1.209,12.128-.947,2.552-3.2,4.389-4.729,6.656a13.314,13.314,0,0,0,.5,15.212c3.863.416,6.908,3.259,9.913,5.679s6.846,4.657,10.576,3.581c4.837-1.4,7.134-7.74,12.127-8.44,4.889-.685,8.464,4.409,13.083,6.123,5.268,1.954,11.434-.986,14.615-5.544s3.961-10.316,4.074-15.838c.145-6.943-.761-14.275-4.956-19.873-3.007-4.01-7.78-7.452-7.848-12.43-.066-4.77,4.366-8.546,5.111-13.261.653-4.137-1.612-8.1-3.368-11.913s-4.99-9.456-2.53-12.878C590.515,274.119,607.338,251.69,633.444,254.536Z" transform="translate(-537.069 -244.849)" fill="#263238"/>
          </g>
          <g id="Groupe_775" data-name="Groupe 775" transform="translate(103.859 20.824)">
            <g id="Groupe_774" data-name="Groupe 774">
              <path id="Tracé_256-2" data-name="Tracé 256" d="M592.764,252.322c.068-.081.8.358,1.414,1.527a5.786,5.786,0,0,1,.121,5,5.976,5.976,0,0,1-3.915,3.2c-1.3.317-2.121.065-2.1-.038,0-.151.791-.155,1.9-.592a6.05,6.05,0,0,0,3.253-2.957,5.872,5.872,0,0,0,.128-4.346C593.167,253.008,592.652,252.423,592.764,252.322Z" transform="translate(-588.282 -252.313)" fill="#263238"/>
            </g>
          </g>
          <g id="Groupe_777" data-name="Groupe 777" transform="translate(109.782 26.588)">
            <g id="Groupe_776" data-name="Groupe 776">
              <path id="Tracé_257-2" data-name="Tracé 257" d="M596.462,259.312c-.07.239-1.585-.036-3.038-1.162s-2.091-2.5-1.871-2.619c.231-.148,1.143.88,2.462,1.882C595.321,258.433,596.554,259.059,596.462,259.312Z" transform="translate(-591.511 -255.517)" fill="#263238"/>
            </g>
          </g>
          <g id="Groupe_779" data-name="Groupe 779" transform="translate(99.658 22.976)">
            <g id="Groupe_778" data-name="Groupe 778">
              <path id="Tracé_258-2" data-name="Tracé 258" d="M585.994,255.06c.046-.266,1.391-.223,2.931-.64,1.55-.389,2.695-1.079,2.869-.872.18.174-.84,1.32-2.623,1.779S585.926,255.3,585.994,255.06Z" transform="translate(-585.992 -253.509)" fill="#263238"/>
            </g>
          </g>
          <g id="Groupe_781" data-name="Groupe 781" transform="translate(99.83 20.223)">
            <g id="Groupe_780" data-name="Groupe 780">
              <path id="Tracé_259-2" data-name="Tracé 259" d="M586.086,252.179c.04-.255,1.368-.268,2.965-.031s2.86.64,2.821.9-1.367.27-2.964.031S586.048,252.436,586.086,252.179Z" transform="translate(-586.086 -251.979)" fill="#263238"/>
            </g>
          </g>
          <g id="Groupe_783" data-name="Groupe 783" transform="translate(112.807 21.421)">
            <g id="Groupe_782" data-name="Groupe 782">
              <path id="Tracé_260-2" data-name="Tracé 260" d="M595.615,253.032c.018.257-.516.507-1.192.556s-1.242-.121-1.262-.38.514-.505,1.193-.556S595.595,252.775,595.615,253.032Z" transform="translate(-593.16 -252.644)" fill="#263238"/>
            </g>
          </g>
          <g id="Groupe_785" data-name="Groupe 785" transform="translate(111.929 23.899)">
            <g id="Groupe_784" data-name="Groupe 784">
              <path id="Tracé_261-2" data-name="Tracé 261" d="M596.187,254.49c0,.259-.783.469-1.752.469s-1.754-.21-1.754-.469.785-.468,1.754-.468S596.187,254.232,596.187,254.49Z" transform="translate(-592.681 -254.022)" fill="#263238"/>
            </g>
          </g>
          <g id="Groupe_787" data-name="Groupe 787" transform="translate(66.405 39.41)">
            <g id="Groupe_786" data-name="Groupe 786">
              <path id="Tracé_262-2" data-name="Tracé 262" d="M576.7,262.656c.194.2-2.192,2.608-4.6,5.97-2.429,3.351-3.948,6.361-4.2,6.249-.229-.086.928-3.344,3.425-6.789C573.794,264.631,576.54,262.471,576.7,262.656Z" transform="translate(-567.865 -262.645)" fill="#263238"/>
            </g>
          </g>
          <g id="Groupe_789" data-name="Groupe 789" transform="translate(65.691 32.755)">
            <g id="Groupe_788" data-name="Groupe 788">
              <path id="Tracé_263" data-name="Tracé 263" d="M577.86,258.952c.215.18-2.57,3.554-5.41,8.093-2.864,4.528-4.689,8.481-4.951,8.375-.229-.083,1.225-4.26,4.139-8.866C574.528,261.936,577.683,258.786,577.86,258.952Z" transform="translate(-567.475 -258.945)" fill="#263238"/>
            </g>
          </g>
          <g id="Groupe_791" data-name="Groupe 791" transform="translate(12.512 25.438)">
            <g id="Groupe_790" data-name="Groupe 790">
              <path id="Tracé_264" data-name="Tracé 264" d="M540.513,294.092c-.024.022-.213-.171-.552-.565a6.971,6.971,0,0,1-1.046-2,9.024,9.024,0,0,1,1.266-7.992c2.033-3.015,6.8-4.8,11.462-3.517,2.387.57,4.379,2.211,6.417,3.536a10.489,10.489,0,0,0,3.291,1.545,4.1,4.1,0,0,0,3.355-.691,5.574,5.574,0,0,0,1.9-2.979,9.667,9.667,0,0,0,.185-3.574c-.288-2.385-.873-4.776-.934-7.084-.26-4.6.915-8.9,3.234-11.645a11.45,11.45,0,0,1,7.127-4.168,8.1,8.1,0,0,1,2.286-.007,2.565,2.565,0,0,1,.77.2,15.543,15.543,0,0,0-2.994.167,11.385,11.385,0,0,0-6.659,4.22c-2.117,2.635-3.185,6.738-2.886,11.19.083,2.247.666,4.517.985,7.033.327,2.445-.062,5.538-2.434,7.391a5.057,5.057,0,0,1-4.14.858,11.307,11.307,0,0,1-3.6-1.689c-2.124-1.4-3.959-2.934-6.138-3.472-4.32-1.232-8.75.353-10.674,3.071a8.818,8.818,0,0,0-1.46,7.5A11.589,11.589,0,0,0,540.513,294.092Z" transform="translate(-538.486 -254.878)" fill="#263238"/>
            </g>
          </g>
          <g id="Groupe_793" data-name="Groupe 793" transform="translate(129.041 27.16)">
            <g id="Groupe_792" data-name="Groupe 792">
              <path id="Tracé_265" data-name="Tracé 265" d="M627.755,295c-.017.049-.277-.076-.778-.052a2.533,2.533,0,0,0-1.8,1.052,2.291,2.291,0,0,0-.009,2.986,3.628,3.628,0,0,0,4.032.853,5.23,5.23,0,0,0,2.834-4.269,13.66,13.66,0,0,0-1.17-6.184c-.809-2.078-1.952-4.319-3.984-5.569a5.649,5.649,0,0,0-3.46-.712,23.786,23.786,0,0,0-3.83.838,11.918,11.918,0,0,1-4.127.543,5.406,5.406,0,0,1-3.671-1.9,9.444,9.444,0,0,1-1.719-7.19c.26-2.333.805-4.454.838-6.452a12.972,12.972,0,0,0-1.1-5.395,14.6,14.6,0,0,0-5.142-6.2c-1.627-1.077-2.689-1.416-2.652-1.5a2.582,2.582,0,0,1,.778.209,11.821,11.821,0,0,1,2.078.989,14.384,14.384,0,0,1,5.557,6.24,13.494,13.494,0,0,1,1.279,5.672c0,2.114-.532,4.281-.754,6.528a8.637,8.637,0,0,0,1.561,6.515,4.442,4.442,0,0,0,3.045,1.567,11.1,11.1,0,0,0,3.786-.52,24.051,24.051,0,0,1,4-.862,6.6,6.6,0,0,1,4.028.856c2.357,1.486,3.495,3.9,4.324,6.055a14.25,14.25,0,0,1,1.132,6.578,5.909,5.909,0,0,1-3.357,4.783,4.2,4.2,0,0,1-4.713-1.135,2.62,2.62,0,0,1-.585-1.98,2.98,2.98,0,0,1,.719-1.56,2.67,2.67,0,0,1,2.091-1.015A1.367,1.367,0,0,1,627.755,295Z" transform="translate(-602.01 -255.835)" fill="#263238"/>
            </g>
          </g>
          <g id="Groupe_795" data-name="Groupe 795" transform="translate(0 67.527)">
            <g id="Groupe_794" data-name="Groupe 794">
              <path id="Tracé_266" data-name="Tracé 266" d="M536.51,306.507a5.352,5.352,0,0,0,.721.124,2.056,2.056,0,0,0,1.638-1.042,1.762,1.762,0,0,0,.253-1.326,2.041,2.041,0,0,0-1.007-1.254,3.2,3.2,0,0,0-3.827.585,6.8,6.8,0,0,0-1.829,4.689,4.79,4.79,0,0,0,.714,2.664,4.045,4.045,0,0,0,2.352,1.648,5.724,5.724,0,0,0,5.856-1.842,10.219,10.219,0,0,0,2.249-6.573,51.17,51.17,0,0,0-.7-7.285,19.061,19.061,0,0,1,.172-7.006,11.941,11.941,0,0,1,3.26-5.513,17.49,17.49,0,0,1,4.591-3.2,32.777,32.777,0,0,1,7.675-2.43,16.1,16.1,0,0,1,2.909-.457,19.736,19.736,0,0,1-2.823.813,36.863,36.863,0,0,0-7.455,2.664,17.105,17.105,0,0,0-4.329,3.153,11.252,11.252,0,0,0-2.974,5.175,18.485,18.485,0,0,0-.1,6.69,49.8,49.8,0,0,1,.724,7.42,11.039,11.039,0,0,1-2.5,7.152,6.719,6.719,0,0,1-3.162,2.051,6.643,6.643,0,0,1-3.645.018,4.9,4.9,0,0,1-2.818-2.038,5.542,5.542,0,0,1-.794-3.114,7.428,7.428,0,0,1,2.157-5.161,3.791,3.791,0,0,1,4.569-.549,2.49,2.49,0,0,1,1.174,1.608,2.135,2.135,0,0,1-.387,1.615,2.224,2.224,0,0,1-1.959,1.031A1.056,1.056,0,0,1,536.51,306.507Z" transform="translate(-531.665 -278.276)" fill="#263238"/>
            </g>
          </g>
          <g id="Groupe_797" data-name="Groupe 797" transform="translate(59.686)">
            <g id="Groupe_796" data-name="Groupe 796">
              <path id="Tracé_267" data-name="Tracé 267" d="M572.943,251.153c-.044.007-.1-.259-.3-.709a3.032,3.032,0,0,0-1.534-1.426,5.122,5.122,0,0,0-3.344-.189,3.617,3.617,0,0,0-2.818,2.954c-.591,3.193,3.183,7.226,7.666,6.443a12.591,12.591,0,0,0,6.246-2.954,35.631,35.631,0,0,0,5.1-5.666,34.016,34.016,0,0,1,5.283-5.78,12.961,12.961,0,0,1,6.767-3.042,10.227,10.227,0,0,1,6.527,1.669,13.566,13.566,0,0,1,4.076,4.13,21.175,21.175,0,0,1,2.766,7.751c.162.955.244,1.7.288,2.209a2.344,2.344,0,0,1,.013.781,29.177,29.177,0,0,1-.666-2.919,22.555,22.555,0,0,0-2.97-7.465,13.083,13.083,0,0,0-3.935-3.831,9.451,9.451,0,0,0-6.006-1.466,12.171,12.171,0,0,0-6.264,2.891,33.889,33.889,0,0,0-5.122,5.643,35.552,35.552,0,0,1-5.252,5.8,13.371,13.371,0,0,1-6.738,3.107,7.667,7.667,0,0,1-6.4-2.024,6.1,6.1,0,0,1-2.045-5.386,3.959,3.959,0,0,1,1.258-2.3,4.67,4.67,0,0,1,2.091-1.052,5.415,5.415,0,0,1,3.643.371,3.052,3.052,0,0,1,1.546,1.682A1.763,1.763,0,0,1,572.943,251.153Z" transform="translate(-564.202 -240.736)" fill="#263238"/>
            </g>
          </g>
          <g id="Groupe_799" data-name="Groupe 799" transform="translate(24.744 11.332)">
            <g id="Groupe_798" data-name="Groupe 798">
              <path id="Tracé_268" data-name="Tracé 268" d="M616.966,252.269a1.218,1.218,0,0,1-.158-.353,3.388,3.388,0,0,0-.482-.988,6.7,6.7,0,0,0-3.416-2.428,18.458,18.458,0,0,0-6.747-.937,16.2,16.2,0,0,0-4.192.628,13.523,13.523,0,0,0-4.085,2.324,31.593,31.593,0,0,0-7.246,8.06,18.007,18.007,0,0,0-1.323,2.623,7.71,7.71,0,0,1-1.68,2.768,13.183,13.183,0,0,1-5.775,3.4,25.329,25.329,0,0,1-3.388.676,14.44,14.44,0,0,0-3.2,1.069,13.235,13.235,0,0,0-5.283,4.344,10.979,10.979,0,0,0-1.93,6.674,45.881,45.881,0,0,0,.9,7.413,23.469,23.469,0,0,1,.352,7.661,10.943,10.943,0,0,1-3.671,6.567c-3.779,3.351-8.515,4.706-11.83,7.577a11.5,11.5,0,0,0-3.707,4.956,7.317,7.317,0,0,0,.5,5.627c.8,1.75,1.93,3.31,2.708,5.026a8.265,8.265,0,0,1,.805,5.316,7.087,7.087,0,0,1-3.018,3.878,34.229,34.229,0,0,0-3.427,2.545,7.117,7.117,0,0,0-2.086,6.037,22.293,22.293,0,0,0,.827,4.188,10.257,10.257,0,0,1,.383,1.453,1.225,1.225,0,0,1-.169-.345c-.1-.234-.233-.586-.4-1.052a19.637,19.637,0,0,1-1.014-4.211,9.206,9.206,0,0,1,.174-3.16,6.674,6.674,0,0,1,1.908-3.283,33.344,33.344,0,0,1,3.434-2.644,6.5,6.5,0,0,0,2.726-3.56,7.631,7.631,0,0,0-.818-4.864c-.75-1.617-1.9-3.171-2.757-5a8.092,8.092,0,0,1-.572-6.2,12.294,12.294,0,0,1,3.933-5.36c3.491-3.02,8.237-4.413,11.768-7.595a10.021,10.021,0,0,0,3.366-6.044,22.664,22.664,0,0,0-.356-7.359,46.077,46.077,0,0,1-.91-7.566,11.887,11.887,0,0,1,2.11-7.192,14.1,14.1,0,0,1,5.661-4.632,15.263,15.263,0,0,1,3.416-1.122,25.178,25.178,0,0,0,3.313-.64,12.407,12.407,0,0,0,5.412-3.134,6.91,6.91,0,0,0,1.537-2.5,18.522,18.522,0,0,1,1.4-2.732,31.969,31.969,0,0,1,7.51-8.183,14.051,14.051,0,0,1,4.316-2.369,16.69,16.69,0,0,1,4.362-.585,18.447,18.447,0,0,1,6.9,1.122,6.677,6.677,0,0,1,3.445,2.671,2.98,2.98,0,0,1,.411,1.06A1.125,1.125,0,0,1,616.966,252.269Z" transform="translate(-545.154 -247.036)" fill="#455a64"/>
            </g>
          </g>
        </g>
        <g id="Groupe_802" data-name="Groupe 802" transform="translate(135.44 208.99)" opacity="0.3">
          <g id="Groupe_801" data-name="Groupe 801">
            <path id="Tracé_269" data-name="Tracé 269" d="M547.65,435.382c-10.174-26.182-10.5-56.121-4.258-83.463-1.51,14.594.8,29.078,3.894,43.428,2.9,13.457,6.4,13.6,3.911,28.554a34.785,34.785,0,0,1-1.581,5.988Z" transform="translate(-539.243 -351.919)"/>
          </g>
        </g>
        <g id="Groupe_850" data-name="Groupe 850" transform="translate(95.897 381.588)">
          <g id="Groupe_847" data-name="Groupe 847">
            <g id="Groupe_806" data-name="Groupe 806" transform="translate(0 3.68)">
              <g id="Groupe_805" data-name="Groupe 805">
                <g id="Groupe_804" data-name="Groupe 804">
                  <g id="Groupe_803" data-name="Groupe 803">
                    <path id="Tracé_270" data-name="Tracé 270" d="M593.394,449.916s-70.24,19.064-73.058,20.035c-4.232,1.462-3.522,16.662,3.064,16.427,3.115-.112,53.952,1.856,60.374,1.462s23.71-7.091,23.71-7.091Z" transform="translate(-517.687 -449.916)" fill="#e8505b"/>
                  </g>
                </g>
              </g>
            </g>
            <g id="Groupe_811" data-name="Groupe 811" transform="translate(38.372 16.202)">
              <g id="Groupe_810" data-name="Groupe 810">
                <g id="Groupe_809" data-name="Groupe 809">
                  <g id="Groupe_808" data-name="Groupe 808">
                    <g id="Groupe_807" data-name="Groupe 807">
                      <path id="Tracé_271" data-name="Tracé 271" d="M546.678,470.636c-.352.049-.827-3.6-3.095-7.395-2.212-3.831-5.186-6.064-4.968-6.339.123-.266,3.612,1.675,5.986,5.765C547.014,466.732,546.974,470.666,546.678,470.636Z" transform="translate(-538.605 -456.878)" fill="#263238"/>
                    </g>
                  </g>
                </g>
              </g>
            </g>
            <g id="Groupe_816" data-name="Groupe 816" transform="translate(46.998 13.542)">
              <g id="Groupe_815" data-name="Groupe 815">
                <g id="Groupe_814" data-name="Groupe 814">
                  <g id="Groupe_813" data-name="Groupe 813">
                    <g id="Groupe_812" data-name="Groupe 812">
                      <path id="Tracé_272" data-name="Tracé 272" d="M550.078,468.561c-.343.059-1.055-3.2-2.926-6.8-1.834-3.616-4.078-6.116-3.825-6.351.195-.225,2.937,2.027,4.876,5.833C550.168,465.041,550.378,468.543,550.078,468.561Z" transform="translate(-543.307 -455.398)" fill="#263238"/>
                    </g>
                  </g>
                </g>
              </g>
            </g>
            <g id="Groupe_821" data-name="Groupe 821" transform="translate(55.154 11.161)">
              <g id="Groupe_820" data-name="Groupe 820">
                <g id="Groupe_819" data-name="Groupe 819">
                  <g id="Groupe_818" data-name="Groupe 818">
                    <g id="Groupe_817" data-name="Groupe 817">
                      <path id="Tracé_273" data-name="Tracé 273" d="M553.238,467.814c-.354-.022-.084-3.461-1.644-7.276-1.491-3.842-4.071-6.19-3.825-6.442.141-.261,3.291,1.867,4.92,6.022C554.364,464.253,553.522,467.913,553.238,467.814Z" transform="translate(-547.753 -454.075)" fill="#263238"/>
                    </g>
                  </g>
                </g>
              </g>
            </g>
            <g id="Groupe_826" data-name="Groupe 826" transform="translate(58.639)">
              <g id="Groupe_825" data-name="Groupe 825">
                <g id="Groupe_824" data-name="Groupe 824">
                  <g id="Groupe_823" data-name="Groupe 823">
                    <g id="Groupe_822" data-name="Groupe 822">
                      <path id="Tracé_274" data-name="Tracé 274" d="M550.405,463.874c-.125.031-.747-1.892-.752-5.125a23.731,23.731,0,0,1,1.755-8.812,3.855,3.855,0,0,1,1.126-1.689,1.9,1.9,0,0,1,2.412.117,3.015,3.015,0,0,1,.936,1.948,13.148,13.148,0,0,1,.092,1.819,15.022,15.022,0,0,1-.435,3.373,20.277,20.277,0,0,1-2.161,5.265c-1.638,2.8-3.056,4.224-3.155,4.146-.161-.11,1.016-1.714,2.418-4.524a22.351,22.351,0,0,0,1.842-5.119,14.939,14.939,0,0,0,.339-3.148c-.031-1.058-.017-2.382-.648-2.889a.69.69,0,0,0-.928-.077,2.9,2.9,0,0,0-.77,1.2,25.146,25.146,0,0,0-1.064,3.04,27.115,27.115,0,0,0-.93,5.378C550.277,461.9,550.6,463.847,550.405,463.874Z" transform="translate(-549.653 -447.87)" fill="#263238"/>
                    </g>
                  </g>
                </g>
              </g>
            </g>
            <g id="Groupe_831" data-name="Groupe 831" transform="translate(59.479 14.586)">
              <g id="Groupe_830" data-name="Groupe 830">
                <g id="Groupe_829" data-name="Groupe 829">
                  <g id="Groupe_828" data-name="Groupe 828">
                    <g id="Groupe_827" data-name="Groupe 827">
                      <path id="Tracé_275" data-name="Tracé 275" d="M550.111,456.7c-.033-.126,1.662-.7,4.531-.718a20.873,20.873,0,0,1,4.984.6,11.063,11.063,0,0,1,2.869,1.038,2.889,2.889,0,0,1,1.587,3.148,3.475,3.475,0,0,1-2.53,2.457,6.54,6.54,0,0,1-3.152-.007,12.206,12.206,0,0,1-4.562-2.2c-2.251-1.73-3.35-3.056-3.265-3.152.123-.148,1.453.986,3.74,2.484a12.591,12.591,0,0,0,4.309,1.829,5.663,5.663,0,0,0,2.6-.036,2.357,2.357,0,0,0,1.71-1.637,1.77,1.77,0,0,0-1.042-1.923,10.843,10.843,0,0,0-2.55-.973,24.033,24.033,0,0,0-4.733-.811C551.865,456.6,550.141,456.882,550.111,456.7Z" transform="translate(-550.111 -455.979)" fill="#263238"/>
                    </g>
                  </g>
                </g>
              </g>
            </g>
            <g id="Groupe_836" data-name="Groupe 836" transform="translate(30.815 19.063)">
              <g id="Groupe_835" data-name="Groupe 835">
                <g id="Groupe_834" data-name="Groupe 834">
                  <g id="Groupe_833" data-name="Groupe 833">
                    <g id="Groupe_832" data-name="Groupe 832">
                      <path id="Tracé_276" data-name="Tracé 276" d="M539.322,470.1c-.347-.038,0-2.982-1.383-6.211-1.315-3.258-3.661-5.127-3.44-5.393.116-.281,3.052,1.353,4.527,4.958C540.542,467.045,539.607,470.225,539.322,470.1Z" transform="translate(-534.485 -458.468)" fill="#263238"/>
                    </g>
                  </g>
                </g>
              </g>
            </g>
            <g id="Groupe_841" data-name="Groupe 841" transform="translate(9.304 33.86)">
              <g id="Groupe_840" data-name="Groupe 840">
                <g id="Groupe_839" data-name="Groupe 839">
                  <g id="Groupe_838" data-name="Groupe 838">
                    <g id="Groupe_837" data-name="Groupe 837">
                      <path id="Tracé_277" data-name="Tracé 277" d="M598.119,466.712a14.807,14.807,0,0,1-2.717,1.254,61.417,61.417,0,0,1-7.817,2.374c-6.718,1.66-16.3,2.6-26.816,2.493s-20.012-.585-26.891-.854l-8.139-.423a15.1,15.1,0,0,1-2.981-.311,14.834,14.834,0,0,1,2.994-.137l8.15.056,26.872.516c10.473.108,19.935-.7,26.627-2.135C594.116,468.193,598.038,466.5,598.119,466.712Z" transform="translate(-522.759 -466.694)" fill="#263238"/>
                    </g>
                  </g>
                </g>
              </g>
            </g>
            <g id="Groupe_846" data-name="Groupe 846" transform="translate(52.643 29.591)">
              <g id="Groupe_845" data-name="Groupe 845">
                <g id="Groupe_844" data-name="Groupe 844">
                  <g id="Groupe_843" data-name="Groupe 843">
                    <g id="Groupe_842" data-name="Groupe 842">
                      <path id="Tracé_278" data-name="Tracé 278" d="M580.482,470.178c-.1.158-2.016-.943-5.261-2.338-3.208-1.349-8.015-2.966-13.292-2.166-5.294.793-9.045,4.279-11.489,6.7-2.462,2.507-3.906,4.171-4.049,4.054-.106-.086,1.093-1.916,3.438-4.607a27.578,27.578,0,0,1,4.658-4.27,16.857,16.857,0,0,1,7.257-3.017,23.609,23.609,0,0,1,13.828,2.565C578.792,468.717,580.553,470.065,580.482,470.178Z" transform="translate(-546.384 -464.321)" fill="#263238"/>
                    </g>
                  </g>
                </g>
              </g>
            </g>
          </g>
          <g id="Groupe_849" data-name="Groupe 849" transform="translate(13.068 21.4)">
            <g id="Groupe_848" data-name="Groupe 848">
              <path id="Tracé_279" data-name="Tracé 279" d="M528.021,476.794a27.341,27.341,0,0,1,1.026-2.6,12.424,12.424,0,0,0-2.324-12.34c-1.1-1.31-1.994-1.95-1.906-2.072.055-.094,1.106.362,2.407,1.626a11.8,11.8,0,0,1,3.278,6.143,11.66,11.66,0,0,1-.826,6.882C528.922,476.069,528.106,476.861,528.021,476.794Z" transform="translate(-524.811 -459.767)" fill="#263238"/>
            </g>
          </g>
        </g>
        <g id="Groupe_853" data-name="Groupe 853" transform="translate(185.472 228.458)">
          <g id="Groupe_851" data-name="Groupe 851">
            <path id="Tracé_280" data-name="Tracé 280" d="M566.517,448.4h0a2.25,2.25,0,0,1,2.243-2.227l65.234-.808,25.761-78.3a6.35,6.35,0,0,1,6.228-4.319l99.022,2.729a6.244,6.244,0,0,1,5.769,8.429l-31.1,80.914-170.939-4.193A2.246,2.246,0,0,1,566.517,448.4Z" transform="translate(-566.517 -362.742)" fill="#455a64"/>
          </g>
          <g id="Groupe_852" data-name="Groupe 852" transform="translate(134.664 41.776)">
            <path id="Tracé_281" data-name="Tracé 281" d="M651.574,388.015c-1.157-2.1-6.065-2.808-8.422-1.063a6.476,6.476,0,0,0-3.067,3.869,5.487,5.487,0,0,0,3.414,6.452c2.511.793,5.313-.558,6.96-2.578C651.982,392.829,652.734,390.12,651.574,388.015Z" transform="translate(-639.926 -385.966)" fill="#fff"/>
          </g>
        </g>
      </g>
    </g>
  </g>
</svg>
