<svg xmlns="http://www.w3.org/2000/svg" xmlns:xlink="http://www.w3.org/1999/xlink" width="251.797" height="241.625" viewBox="0 0 251.797 241.625">
  <defs>
    <clipPath id="clip-path">
      <path id="Tracé_17" data-name="Tracé 17" d="M869.856,692.039c0-66.722-56.036-120.812-125.162-120.812s-125.162,54.09-125.162,120.812,56.037,120.813,125.162,120.813S869.856,758.762,869.856,692.039Z" transform="translate(-619.532 -571.227)" fill="none"/>
    </clipPath>
  </defs>
  <g id="Groupe_125" data-name="Groupe 125" transform="translate(-619.532 -591.227)">
    <path id="Tracé_2" data-name="Tracé 2" d="M869.856,692.039c0-66.722-56.036-120.812-125.162-120.812s-125.162,54.09-125.162,120.812,56.037,120.813,125.162,120.813S869.856,758.762,869.856,692.039Z" transform="translate(0 20)" fill="#fee8e9"/>
    <g id="Groupe_8" data-name="Groupe 8" transform="translate(621.004 591.227)">
      <g id="Groupe_7" data-name="Groupe 7" transform="translate(0)" clip-path="url(#clip-path)">
        <g id="Groupe_6" data-name="Groupe 6" transform="translate(46.435 49.457)">
          <path id="Tracé_3" data-name="Tracé 3" d="M728.74,716.459l-17.891,41.918-18.763-41.918V677.664H728.74Z" transform="translate(-631.686 -575.84)" fill="#b6754a"/>
          <path id="Tracé_4" data-name="Tracé 4" d="M711.467,693.93s-39.3,4.916-44.446,10.09c-4.482,4.508-13.8,47.665-15.954,57.135h78.724V738.4Z" transform="translate(-651.067 -568.987)" fill="#fb404b"/>
          <path id="Tracé_5" data-name="Tracé 5" d="M722.86,693.93s39.3,4.916,44.443,10.09c4.481,4.508,13.8,47.665,15.953,57.135H704.53V738.4Z" transform="translate(-625.806 -568.987)" fill="#fb404b"/>
          <g id="Groupe_4" data-name="Groupe 4" transform="translate(51.627 120.69)">
            <path id="Tracé_12" data-name="Tracé 12" d="M710,737.4l-12.456-41.085-4.6,18.516Z" transform="translate(-682.905 -688.673)" fill="#34315d"/>
            <path id="Tracé_13" data-name="Tracé 13" d="M694.383,690.938l6.539,8.2-4.75,17.952-10.044-13.078Z" transform="translate(-686.128 -690.938)" fill="#34315d"/>
          </g>
          <g id="Groupe_5" data-name="Groupe 5" transform="translate(78.727 120.69)">
            <path id="Tracé_14" data-name="Tracé 14" d="M704.532,737.541l11.28-41.568,5.776,19Z" transform="translate(-704.532 -688.816)" fill="#34315d"/>
            <path id="Tracé_15" data-name="Tracé 15" d="M719.8,690.938l-7.713,7.717,5.927,18.438,10.914-13.078Z" transform="translate(-700.961 -690.938)" fill="#34315d"/>
          </g>
          <g id="Groupe_107" data-name="Groupe 107" transform="translate(22.941)">
            <g id="Groupe_57" data-name="Groupe 57" transform="translate(9.583 9.471)">
              <g id="Groupe_52" data-name="Groupe 52" transform="translate(0 43.656)">
                <path id="Tracé_155" data-name="Tracé 155" d="M298.6,123.524c-2.443-1.717-5.846-1.973-7.951.109a7.917,7.917,0,0,0-2.028,5.328,18.621,18.621,0,0,0,.95,5.922,22.891,22.891,0,0,0,4.839,9.238c2.339,2.482,5.653,3.978,8.73,3.265,1.738-.4,1.247-12.307,1.095-13.9A14.3,14.3,0,0,0,298.6,123.524Z" transform="translate(-288.612 -122.153)" fill="#b6754a"/>
                <path id="Tracé_156" data-name="Tracé 156" d="M294.871,125.887a17,17,0,0,1,5.675,11.165,5.108,5.108,0,0,1-.877,3.9q-.631-1.376-1.266-2.75a9.726,9.726,0,0,0-2.671-3.929,20.159,20.159,0,0,0-2.149-1.214,9.226,9.226,0,0,1-2.209-1.75c-1.23-1.329-2.521-4.137-1.457-5.994C291.055,123.329,293.687,124.855,294.871,125.887Z" transform="translate(-287.323 -119.824)" fill="#dfb37d" opacity="0.7" style="mix-blend-mode: multiply;isolation: isolate"/>
              </g>
              <g id="Groupe_53" data-name="Groupe 53" transform="translate(79.67 43.776)">
                <path id="Tracé_157" data-name="Tracé 157" d="M327.39,123.583c2.446-1.719,5.846-1.975,7.952.107a7.905,7.905,0,0,1,2.028,5.328,18.616,18.616,0,0,1-.95,5.922,22.888,22.888,0,0,1-4.836,9.238c-2.342,2.482-5.653,3.978-8.732,3.265-1.735-.4-1.247-12.307-1.095-13.9A14.316,14.316,0,0,1,327.39,123.583Z" transform="translate(-321.576 -122.211)" fill="#b6754a"/>
                <path id="Tracé_158" data-name="Tracé 158" d="M328.344,125.945a17,17,0,0,0-5.675,11.165,5.107,5.107,0,0,0,.877,3.9q.634-1.376,1.266-2.75a9.773,9.773,0,0,1,2.671-3.929,20.162,20.162,0,0,1,2.151-1.214,9.259,9.259,0,0,0,2.207-1.75c1.23-1.329,2.521-4.137,1.457-5.994C332.162,123.387,329.528,124.913,328.344,125.945Z" transform="translate(-320.091 -119.882)" fill="#dfb37d" opacity="0.7" style="mix-blend-mode: multiply;isolation: isolate"/>
              </g>
              <path id="Tracé_159" data-name="Tracé 159" d="M329.617,101.008c-17.991.633-30.931,12.177-34.839,26.366-2.308,8.387-1.929,17.128-1.262,25.727.563,7.288,1.411,14.811,5.583,21.23,2.076,3.195,4.921,6.017,6.857,9.273,4.6,7.742,4.164,16.032,4.563,24.425a9.145,9.145,0,0,0,1.039,4.572c1.039,1.651,3.035,2.715,5.039,3.52,3.78,1.519,7.671,1.9,11.557,2.914a6.009,6.009,0,0,1,3.538,2.216,9.273,9.273,0,0,1,1.008,3.4,12.512,12.512,0,0,0,1.934,4.481,17,17,0,0,0,2.025-4.926,21.971,21.971,0,0,1,1.155-4.431c1.51-3.238,5.682-2.778,8.4-5.056,3.355-2.813,1.626-9.421,1.537-13.02-.114-4.547-.128-9.7,2.886-13.661,2.383-3.139,6.76-5.126,9.261-8.36,3.688-4.761,4.824-10.582,5.682-16.227,2.794-18.392,5.626-43.966-13.152-57.574C346.783,101.792,336.85,100.755,329.617,101.008Z" transform="translate(-282.387 -100.973)" fill="#b6754a"/>
              <path id="Tracé_160" data-name="Tracé 160" d="M317.212,145.709a75.774,75.774,0,0,1-15.144-3.467,21.2,21.2,0,0,0,9.257,10.423c4.341,2.319,10.006,2.867,14.506.8,4.4-2.02,7.079-6.085,9.382-10C329.042,144.971,323.742,146.379,317.212,145.709Z" transform="translate(-269.547 -57.179)" fill="#dfb37d" opacity="0.7" style="mix-blend-mode: multiply;isolation: isolate"/>
              <path id="Tracé_161" data-name="Tracé 161" d="M296.507,135.589c0,4.491,4.08,8.133,9.112,8.133s9.109-3.642,9.109-8.133-4.08-8.135-9.109-8.135S296.507,131.1,296.507,135.589Z" transform="translate(-277.426 -72.872)" fill="#ae5c43"/>
              <path id="Tracé_162" data-name="Tracé 162" d="M314.445,134.722c0,4.493,4.077,8.135,9.109,8.135s9.112-3.642,9.112-8.135-4.08-8.133-9.112-8.133S314.445,130.231,314.445,134.722Z" transform="translate(-252.011 -73.79)" fill="#ae5c43"/>
              <g id="Groupe_56" data-name="Groupe 56" transform="translate(20.925 29.858)">
                <g id="Groupe_55" data-name="Groupe 55">
                  <path id="Tracé_163" data-name="Tracé 163" d="M312.836,117.847c-2.545,4.984-2.8,12.058.479,16.868.7,1.029,1.624,1.931,2.4,2.921a5.532,5.532,0,0,1,1.395,3.306c-.012,1.773-1.571,2.772-3.34,3.378" transform="translate(-277.97 -112.924)" fill="none"/>
                  <g id="Groupe_54" data-name="Groupe 54" transform="translate(19.83 32.645)">
                    <path id="Tracé_164" data-name="Tracé 164" d="M305.475,131.3c4.343,4.58,11.951,6.462,18.45,4.561" transform="translate(-305.475 -131.297)" fill="none"/>
                    <path id="Tracé_165" data-name="Tracé 165" d="M307.086,134.412a14.082,14.082,0,0,0,10.216,1.8" transform="translate(-303.192 -127.992)" fill="none"/>
                  </g>
                  <path id="Tracé_166" data-name="Tracé 166" d="M312.851,118.847a17.092,17.092,0,0,1,10.525-3.083,16.82,16.82,0,0,1,10.18,3.91" transform="translate(-275.194 -115.15)" fill="none"/>
                  <path id="Tracé_167" data-name="Tracé 167" d="M319.2,118.2a21.923,21.923,0,0,0-21.933.4" transform="translate(-297.27 -115.459)" fill="none"/>
                </g>
                <path id="Tracé_168" data-name="Tracé 168" d="M320.023,125.707c.031,2.348-1.254,4.265-2.874,4.283s-2.956-1.872-2.987-4.219,1.252-4.267,2.871-4.285S319.989,123.358,320.023,125.707Z" transform="translate(-273.337 -109.063)"/>
                <path id="Tracé_169" data-name="Tracé 169" d="M309.359,125.513c.034,2.348-1.252,4.265-2.871,4.283s-2.956-1.871-2.99-4.219,1.254-4.267,2.874-4.285S309.328,123.164,309.359,125.513Z" transform="translate(-288.446 -109.269)"/>
              </g>
            </g>
            <g id="Groupe_59" data-name="Groupe 59" transform="translate(0 0)">
              <path id="Tracé_170" data-name="Tracé 170" d="M370.486,104.5a169.594,169.594,0,0,0-16.193-6.367,34.6,34.6,0,0,0-9.841-1.709,50.964,50.964,0,0,0-24.785,4.978,29.946,29.946,0,0,0-5.191,3.312c-1.53,1.23-2.03,2.377-4.157,2.164-4.633-.46-8.619,2.525-11.354,5.6-2.811,3.156-4.628,6.855-6.617,10.438s-4.246,7.165-7.7,9.815a11.183,11.183,0,0,0,8.63,1.9,20.948,20.948,0,0,0,1.644,15.64,34.28,34.28,0,0,0,11.487,12.443,30.1,30.1,0,0,1,.007-13.9c1.728,3.407,5.467,5.709,9.034,7.836a25.988,25.988,0,0,1-2.763-17.685,34.133,34.133,0,0,1,4.046-10.656c.839-1.459,1.825-3.7,3.318-4.761,1.979-1.4,3.106.4,4.517,1.585A52.413,52.413,0,0,0,346.5,135.837a20.81,20.81,0,0,1-6.629-8.4c1.392,2.127,3.666,3.72,5.938,5.2,6.656,4.33,13.928,8.214,22.061,9.906a36.315,36.315,0,0,1-7.142-5.67c8.884,3.788,15.644,11.031,17.979,19.266,3.043-2.791,5.982-5.584,6.612-9.438.761-4.66,2.035-9.261,2.33-13.97a29.462,29.462,0,0,0-3.069-15.415,27.319,27.319,0,0,0-11.9-11.749Q371.6,105.028,370.486,104.5Z" transform="translate(-284.647 -96.378)" fill="#694424"/>
              <g id="Groupe_58" data-name="Groupe 58" transform="translate(15.693 3.884)">
                <path id="Tracé_171" data-name="Tracé 171" d="M296.382,102.289a20.346,20.346,0,0,0,4.565,7.142" transform="translate(-283.713 -93.989)" fill="none"/>
                <path id="Tracé_172" data-name="Tracé 172" d="M298.337,105.4a33.212,33.212,0,0,1,15.825-7.138" transform="translate(-280.943 -98.262)" fill="none"/>
                <path id="Tracé_173" data-name="Tracé 173" d="M298.918,104.857a40.974,40.974,0,0,1,12.889-4.015" transform="translate(-280.12 -95.524)" fill="none"/>
                <path id="Tracé_174" data-name="Tracé 174" d="M300.935,103.779a14.52,14.52,0,0,0-9.8,4.969" transform="translate(-291.14 -92.408)" fill="none"/>
                <path id="Tracé_175" data-name="Tracé 175" d="M298.716,105.063a19.792,19.792,0,0,0-6.226,8.76" transform="translate(-289.227 -91.045)" fill="none"/>
              </g>
            </g>
          </g>
        </g>
      </g>
    </g>
  </g>
</svg>
